STARTFONT 2.1
FONT -FontForge-Noto Mono-Book-R-Normal--48-460-75-75-P-289-ISO8859-1
SIZE 46 75 75
FONTBOUNDINGBOX 38 64 -7 -13
COMMENT "Generated by fontforge, http://fontforge.sourceforge.net"
COMMENT "Copyright 2007 Google Inc. All Rights Reserved."
STARTPROPERTIES 41
FOUNDRY "FontForge"
FAMILY_NAME "Noto Mono"
WEIGHT_NAME "Book"
SLANT "R"
SETWIDTH_NAME "Normal"
ADD_STYLE_NAME ""
PIXEL_SIZE 48
POINT_SIZE 460
RESOLUTION_X 75
RESOLUTION_Y 75
SPACING "P"
AVERAGE_WIDTH 289
CHARSET_REGISTRY "ISO8859"
CHARSET_ENCODING "1"
FONTNAME_REGISTRY ""
CHARSET_COLLECTIONS "ISO8859-2 ISO8859-5 ISO8859-7 ISO8859-9 ISO8859-4 ISOLatin1Encoding"
FONT_NAME "NotoMono"
FACE_NAME "Noto Mono"
COPYRIGHT "Copyright 2007 Google Inc. All Rights Reserved."
FONT_VERSION "1.00"
FONT_ASCENT 38
FONT_DESCENT 10
UNDERLINE_POSITION -5
UNDERLINE_THICKNESS 3
X_HEIGHT 25
CAP_HEIGHT 33
DEFAULT_CHAR 1
RAW_ASCENT 799
RAW_DESCENT 200
NORM_SPACE 29
RELATIVE_WEIGHT 40
RELATIVE_SETWIDTH 50
SUPERSCRIPT_X 0
SUPERSCRIPT_Y 22
SUPERSCRIPT_SIZE 31
SUBSCRIPT_X 0
SUBSCRIPT_Y 6
SUBSCRIPT_SIZE 31
FIGURE_WIDTH 29
AVG_LOWERCASE_WIDTH 290
AVG_UPPERCASE_WIDTH 290
ENDPROPERTIES
CHARS 897
STARTCHAR uni0000
ENCODING 0
SWIDTH 0 0
DWIDTH 0 0
BBX 1 1 0 0
BITMAP
00
ENDCHAR
STARTCHAR uni000D
ENCODING 13
SWIDTH 600 0
DWIDTH 29 0
BBX 1 1 0 0
BITMAP
00
ENDCHAR
STARTCHAR space
ENCODING 32
SWIDTH 600 0
DWIDTH 29 0
BBX 1 1 0 0
BITMAP
00
ENDCHAR
STARTCHAR exclam
ENCODING 33
SWIDTH 600 0
DWIDTH 29 0
BBX 6 35 11 -1
BITMAP
FC
FC
7C
78
78
78
78
78
78
78
78
78
78
78
78
78
78
78
78
78
78
78
78
38
30
00
00
00
00
78
FC
FC
FC
FC
78
ENDCHAR
STARTCHAR quotedbl
ENCODING 34
SWIDTH 600 0
DWIDTH 29 0
BBX 16 13 7 21
BITMAP
FC3F
F83E
F83E
F83E
F83E
F83E
F83E
781E
781E
781E
781E
781E
781E
ENDCHAR
STARTCHAR numbersign
ENCODING 35
SWIDTH 600 0
DWIDTH 29 0
BBX 27 34 1 0
BITMAP
00780700
00780F00
00780F00
00700E00
00700E00
00F00E00
00F01E00
00F01E00
00E01C00
00E01C00
3FFFFFE0
3FFFFFE0
3FFFFFE0
01C03800
01C03800
01C03800
03C07800
03C07800
03807000
03807000
03807000
FFFFFF80
FFFFFF80
FFFFFF80
0700E000
0700E000
0F01E000
0F01E000
0E01E000
0E01C000
0E01C000
1E03C000
1E03C000
1C03C000
ENDCHAR
STARTCHAR dollar
ENCODING 36
SWIDTH 600 0
DWIDTH 29 0
BBX 20 39 5 -3
BITMAP
00E000
00E000
00E000
00E000
03FF00
1FFFE0
3FFFE0
7FFFE0
7CE0C0
F8E000
F0E000
F0E000
F0E000
F0E000
F8E000
7CE000
3FE000
1FE000
0FFC00
03FF00
00FFC0
00FFE0
00E3E0
00E1F0
00E0F0
00E0F0
00E0F0
00E0F0
00E1F0
E0E7E0
FFFFC0
FFFF80
FFFF00
1FF800
00E000
00E000
00E000
00E000
00E000
ENDCHAR
STARTCHAR percent
ENCODING 37
SWIDTH 600 0
DWIDTH 29 0
BBX 29 34 0 0
BITMAP
0FC00780
3FE00700
3FF00F00
78781E00
F0381E00
F03C3C00
F03C3C00
F03C7800
F03C7800
F03CF000
F03CF000
7039E000
7879E000
3FF3C000
1FE3C000
0FC78000
00078000
000F0000
000F1F80
001E3FC0
001E7FE0
003CF0F0
003DE070
0079E078
0079E078
00F1E078
00F1E078
01E1E078
01E1E078
03C0E070
03C0F0F0
07807FE0
07003FC0
0F001F80
ENDCHAR
STARTCHAR ampersand
ENCODING 38
SWIDTH 600 0
DWIDTH 29 0
BBX 28 34 1 0
BITMAP
00FF0000
03FFC000
07FFE000
0FFFF000
1F81F000
1F00F800
1E007800
1E007800
1E007800
1F00F800
0F01F000
0F83E000
07CFC000
07DF8000
03FF0000
01FC0000
07F80000
0FFC0000
1FBE01E0
3E3F03E0
7C1F03C0
780F87C0
F807C780
F803EF80
F001FF00
F000FF00
F800FE00
F8007C00
7C00FE00
7E03FF00
3FFFEF80
3FFFC7C0
0FFF03E0
03FC03F0
ENDCHAR
STARTCHAR quotesingle
ENCODING 39
SWIDTH 600 0
DWIDTH 29 0
BBX 6 13 12 21
BITMAP
FC
F8
F8
F8
F8
F8
F8
78
78
78
78
78
78
ENDCHAR
STARTCHAR parenleft
ENCODING 40
SWIDTH 600 0
DWIDTH 29 0
BBX 14 42 7 -8
BITMAP
003C
0078
00F0
01E0
03E0
07C0
0F80
0F00
1F00
1E00
3E00
3C00
7C00
7800
7800
7800
F800
F800
F800
F000
F000
F000
F000
F800
F800
F800
F800
7800
7800
7C00
3C00
3E00
1E00
1F00
0F00
0F80
07C0
03C0
01E0
00F0
0078
003C
ENDCHAR
STARTCHAR parenright
ENCODING 41
SWIDTH 600 0
DWIDTH 29 0
BBX 14 42 8 -8
BITMAP
F000
7800
3C00
1E00
0F00
0F80
07C0
03C0
03E0
01E0
01F0
00F0
00F8
00F8
0078
0078
007C
007C
007C
003C
003C
003C
003C
007C
007C
007C
0078
0078
00F8
00F8
00F0
01F0
01E0
03E0
03C0
07C0
0F80
0F00
1E00
3C00
7800
F000
ENDCHAR
STARTCHAR asterisk
ENCODING 42
SWIDTH 600 0
DWIDTH 29 0
BBX 23 22 3 14
BITMAP
007C00
007C00
007C00
003C00
003C00
003800
003800
70381C
7E38FE
7FFFFE
FFFFFE
1FFFF0
007C00
00FE00
01EF00
01EF80
03C780
07C7C0
0F83E0
0F83F0
0701C0
010180
ENDCHAR
STARTCHAR plus
ENCODING 43
SWIDTH 600 0
DWIDTH 29 0
BBX 22 22 4 6
BITMAP
007800
007800
007800
007800
007800
007800
007800
007800
007800
FFFFFC
FFFFFC
FFFFFC
FFFFFC
007800
007800
007800
007800
007800
007800
007800
007800
007800
ENDCHAR
STARTCHAR comma
ENCODING 44
SWIDTH 600 0
DWIDTH 29 0
BBX 8 13 10 -7
BITMAP
3F
3F
3E
3E
3E
7E
7C
7C
78
78
78
F0
F0
ENDCHAR
STARTCHAR hyphen
ENCODING 45
SWIDTH 600 0
DWIDTH 29 0
BBX 15 4 7 11
BITMAP
FFFE
FFFE
FFFE
FFFE
ENDCHAR
STARTCHAR period
ENCODING 46
SWIDTH 600 0
DWIDTH 29 0
BBX 7 8 11 -1
BITMAP
78
FC
FE
FE
FE
FE
7C
7C
ENDCHAR
STARTCHAR slash
ENCODING 47
SWIDTH 600 0
DWIDTH 29 0
BBX 19 34 5 0
BITMAP
0001E0
0003C0
0003C0
000780
000780
000F80
000F00
000F00
001E00
001E00
003C00
003C00
007C00
007800
00F800
00F000
00F000
01E000
01E000
03E000
03C000
07C000
078000
078000
0F0000
0F0000
1E0000
1E0000
3E0000
3C0000
3C0000
780000
780000
F00000
ENDCHAR
STARTCHAR zero
ENCODING 48
SWIDTH 600 0
DWIDTH 29 0
BBX 23 34 3 0
BITMAP
00FE00
03FF80
0FFFC0
1FFFE0
1F01F0
3E00F8
3C0078
7C007C
78003C
78003C
F8003C
F8003E
F8003E
F0001E
F0001E
F0001E
F0001E
F0001E
F0001E
F0001E
F0001E
F8003E
F8003E
78003C
78003C
78003C
7C007C
3C0078
3E00F8
1F01F0
0FFFF0
0FFFE0
03FF80
00FE00
ENDCHAR
STARTCHAR one
ENCODING 49
SWIDTH 600 0
DWIDTH 29 0
BBX 12 34 6 0
BITMAP
00F0
01F0
03F0
0FF0
1FF0
3EF0
7CF0
F8F0
70F0
20F0
00F0
00F0
00F0
00F0
00F0
00F0
00F0
00F0
00F0
00F0
00F0
00F0
00F0
00F0
00F0
00F0
00F0
00F0
00F0
00F0
00F0
00F0
00F0
00F0
ENDCHAR
STARTCHAR two
ENCODING 50
SWIDTH 600 0
DWIDTH 29 0
BBX 21 34 4 0
BITMAP
01FC00
0FFF00
3FFF80
7FFFC0
7C07E0
3003E0
2001F0
0001F0
0000F0
0000F0
0000F0
0001F0
0001E0
0001E0
0003E0
0007C0
000780
000F80
001F00
003E00
007C00
00F800
01F000
03E000
07C000
07C000
0F8000
1F0000
3E0000
7C0000
FFFFF8
FFFFF8
FFFFF8
FFFFF8
ENDCHAR
STARTCHAR three
ENCODING 51
SWIDTH 600 0
DWIDTH 29 0
BBX 22 34 3 0
BITMAP
03FE00
1FFF80
3FFFC0
FFFFE0
7C03F0
3000F8
0000F8
000078
000078
000078
0000F8
0000F0
0001F0
0003E0
000FC0
07FF80
07F800
07FF80
07FFE0
0003F0
0000F8
00007C
00007C
00003C
00003C
00003C
00007C
00007C
8000F8
E003F8
FFFFF0
FFFFE0
7FFF80
0FFC00
ENDCHAR
STARTCHAR four
ENCODING 52
SWIDTH 600 0
DWIDTH 29 0
BBX 26 34 1 0
BITMAP
0000F800
0000F800
0001F800
0003F800
0007F800
0007F800
000F7800
001E7800
003E7800
003C7800
00787800
00F87800
00F07800
01E07800
03C07800
07C07800
07807800
0F007800
1E007800
1E007800
3C007800
78007800
F8007800
FFFFFFC0
FFFFFFC0
FFFFFFC0
FFFFFFC0
00007800
00007800
00007800
00007800
00007800
00007800
00007800
ENDCHAR
STARTCHAR five
ENCODING 53
SWIDTH 600 0
DWIDTH 29 0
BBX 21 34 4 0
BITMAP
3FFFC0
3FFFC0
3FFFC0
3FFFC0
3C0000
3C0000
3C0000
3C0000
3C0000
780000
780000
780000
780000
7FFC00
7FFF00
7FFFC0
3FFFE0
0007F0
0001F0
0000F8
0000F8
0000F8
000078
000078
000078
0000F8
0000F8
0000F0
8001F0
E007E0
FFFFC0
FFFF80
7FFF00
1FF800
ENDCHAR
STARTCHAR six
ENCODING 54
SWIDTH 600 0
DWIDTH 29 0
BBX 21 34 4 0
BITMAP
003FC0
01FFC0
03FFC0
07FFC0
0FC000
1F0000
3E0000
3E0000
3C0000
7C0000
780000
780000
780000
F87E00
F9FF80
FBFFC0
F7CFE0
FE01F0
FC00F0
F800F8
F80078
F00078
F00078
F00078
F80078
780078
7800F8
7C00F0
3E01F0
3F03E0
1FFFE0
0FFFC0
07FF00
01FC00
ENDCHAR
STARTCHAR seven
ENCODING 55
SWIDTH 600 0
DWIDTH 29 0
BBX 23 34 3 0
BITMAP
FFFFFE
FFFFFE
FFFFFE
FFFFFE
00003E
00003C
00007C
000078
000078
0000F0
0000F0
0001E0
0001E0
0003E0
0003C0
0007C0
000780
000F80
000F00
000F00
001E00
001E00
003E00
003C00
007C00
007800
00F800
00F000
01F000
01F000
01E000
03E000
03C000
07C000
ENDCHAR
STARTCHAR eight
ENCODING 56
SWIDTH 600 0
DWIDTH 29 0
BBX 21 34 4 0
BITMAP
01FC00
07FF00
1FFFC0
3FFFE0
3E03E0
7C01F0
7800F0
7800F0
7800F0
7800F0
7C01F0
3C01E0
3E03C0
1F8FC0
0FFF00
07FE00
03FE00
0FFF80
1F1FC0
3E07E0
7C01F0
7800F0
F800F8
F00078
F00078
F00078
F00078
F800F8
7800F0
7C03F0
3FFFE0
1FFFC0
0FFF80
03FC00
ENDCHAR
STARTCHAR nine
ENCODING 57
SWIDTH 600 0
DWIDTH 29 0
BBX 21 34 4 0
BITMAP
01F800
0FFF00
1FFF80
3FFFC0
3E07E0
7C03E0
7801F0
F800F0
F000F0
F000F8
F00078
F00078
F00078
F000F8
F800F8
7801F8
7C03F8
3F9F78
1FFEF8
0FFCF8
03F0F8
0000F0
0000F0
0000F0
0001F0
0001E0
0003E0
0003E0
0007C0
001F80
18FF00
1FFE00
1FFC00
1FE000
ENDCHAR
STARTCHAR colon
ENCODING 58
SWIDTH 600 0
DWIDTH 29 0
BBX 6 27 11 -1
BITMAP
78
FC
FC
FC
FC
FC
78
00
00
00
00
00
00
00
00
00
00
00
00
00
78
FC
FC
FC
FC
FC
78
ENDCHAR
STARTCHAR semicolon
ENCODING 59
SWIDTH 600 0
DWIDTH 29 0
BBX 9 32 9 -6
BITMAP
0F00
1F80
1F80
1F80
1F80
1F80
0F00
0000
0000
0000
0000
0000
0000
0000
0000
0000
0000
0000
0000
0000
3F00
3F00
3E00
3E00
3E00
7C00
7C00
7C00
7800
7800
F000
F000
ENDCHAR
STARTCHAR less
ENCODING 60
SWIDTH 600 0
DWIDTH 29 0
BBX 21 24 4 5
BITMAP
000008
000038
0000F8
0003F8
000FF0
003FC0
00FF00
03FC00
0FF000
1FC000
7F0000
FC0000
FC0000
7F0000
3FC000
0FF000
03FC00
00FF00
003FC0
000FF0
0003F8
0000F8
000038
000008
ENDCHAR
STARTCHAR equal
ENCODING 61
SWIDTH 600 0
DWIDTH 29 0
BBX 21 13 4 10
BITMAP
FFFFF8
FFFFF8
FFFFF8
FFFFF8
000000
000000
000000
000000
000000
FFFFF8
FFFFF8
FFFFF8
FFFFF8
ENDCHAR
STARTCHAR greater
ENCODING 62
SWIDTH 600 0
DWIDTH 29 0
BBX 21 24 4 5
BITMAP
800000
E00000
F80000
FE0000
7F8000
1FE000
07F800
01FE00
007F80
001FC0
0007F0
0001F8
0001F8
0007F0
001FC0
007F80
01FE00
07F800
1FE000
7F8000
FE0000
F80000
E00000
800000
ENDCHAR
STARTCHAR question
ENCODING 63
SWIDTH 600 0
DWIDTH 29 0
BBX 21 35 4 -1
BITMAP
07FC00
3FFF80
FFFFC0
7FFFE0
7803F0
4001F0
0000F8
000078
000078
000078
000078
0000F8
0000F0
0001F0
0003E0
000FC0
001F80
003F00
007C00
00F800
00F000
01E000
01E000
01E000
01E000
000000
000000
000000
000000
01E000
03F000
03F000
03F000
03F000
01E000
ENDCHAR
STARTCHAR at
ENCODING 64
SWIDTH 600 0
DWIDTH 29 0
BBX 27 38 1 -4
BITMAP
001FC000
00FFF000
01FFFC00
07E07E00
07801F00
0F000F00
1E000780
1C000380
3C0003C0
380FE1C0
783FF9C0
707FF9C0
70F0F1E0
71E071E0
F1E0F0E0
F1C0F0E0
E3C0F0E0
E3C0F0E0
E3C0F0E0
E3C0F0E0
E3C0F0E0
E3C0F1E0
E3C0F1E0
F3C1F1C0
F1E1F1C0
F1E3BBC0
70FFBF80
70FF1F00
783C0E00
38000000
3C000000
1E000000
1F000000
0F800200
07E01E00
03FFFE00
00FFFC00
001FE000
ENDCHAR
STARTCHAR A
ENCODING 65
SWIDTH 600 0
DWIDTH 29 0
BBX 27 34 1 0
BITMAP
001F0000
001F0000
003F8000
003F8000
003F8000
007BC000
007BC000
007BC000
00FBE000
00F1E000
00F1E000
01F1F000
01E0F000
01E0F000
03E0F800
03C07800
03C07800
07C07C00
07C03C00
07803C00
0FFFFE00
0FFFFE00
0FFFFE00
1FFFFF00
1F001F00
1E000F00
3E000F80
3E000F80
3C000780
7C0007C0
7C0007C0
780003C0
F80003E0
F80003E0
ENDCHAR
STARTCHAR B
ENCODING 66
SWIDTH 600 0
DWIDTH 29 0
BBX 24 34 3 0
BITMAP
FFFF00
FFFFE0
FFFFF8
FFFFFC
F000FC
F0007E
F0003E
F0003E
F0003E
F0003E
F0003E
F0003C
F0007C
F001F8
FFFFE0
FFFF00
FFFFE0
FFFFF8
F000FC
F0003E
F0001E
F0001F
F0001F
F0001F
F0001F
F0001F
F0001F
F0003E
F0003E
F000FC
FFFFFC
FFFFF8
FFFFE0
FFFF80
ENDCHAR
STARTCHAR C
ENCODING 67
SWIDTH 600 0
DWIDTH 29 0
BBX 25 34 3 0
BITMAP
001FF800
00FFFF00
01FFFF80
07FFFF00
0FF00F00
1FC00000
1F800000
3F000000
3E000000
7C000000
7C000000
78000000
F8000000
F8000000
F8000000
F8000000
F8000000
F8000000
F8000000
F8000000
F8000000
F8000000
78000000
7C000000
7C000000
7E000000
3E000000
3F000000
1FC00000
0FF00700
07FFFF00
03FFFF00
00FFFF00
001FF800
ENDCHAR
STARTCHAR D
ENCODING 68
SWIDTH 600 0
DWIDTH 29 0
BBX 24 34 3 0
BITMAP
FFF800
FFFF00
FFFFC0
FFFFE0
F007F0
F001F8
F000F8
F0007C
F0007E
F0003E
F0003E
F0001E
F0001F
F0001F
F0001F
F0001F
F0001F
F0001F
F0001F
F0001F
F0001F
F0001F
F0001E
F0003E
F0003E
F0007C
F0007C
F000F8
F003F8
F00FF0
FFFFE0
FFFF80
FFFE00
FFF000
ENDCHAR
STARTCHAR E
ENCODING 69
SWIDTH 600 0
DWIDTH 29 0
BBX 20 34 5 0
BITMAP
FFFFF0
FFFFF0
FFFFF0
FFFFF0
F00000
F00000
F00000
F00000
F00000
F00000
F00000
F00000
F00000
F00000
FFFFE0
FFFFE0
FFFFE0
FFFFE0
F00000
F00000
F00000
F00000
F00000
F00000
F00000
F00000
F00000
F00000
F00000
F00000
FFFFF0
FFFFF0
FFFFF0
FFFFF0
ENDCHAR
STARTCHAR F
ENCODING 70
SWIDTH 600 0
DWIDTH 29 0
BBX 20 34 6 0
BITMAP
FFFFF0
FFFFF0
FFFFF0
FFFFF0
F00000
F00000
F00000
F00000
F00000
F00000
F00000
F00000
F00000
F00000
F00000
F00000
FFFFE0
FFFFE0
FFFFE0
FFFFE0
F00000
F00000
F00000
F00000
F00000
F00000
F00000
F00000
F00000
F00000
F00000
F00000
F00000
F00000
ENDCHAR
STARTCHAR G
ENCODING 71
SWIDTH 600 0
DWIDTH 29 0
BBX 23 34 3 0
BITMAP
003FE0
00FFF8
03FFFC
07FFFC
0FE038
1F8008
3F0000
3E0000
7C0000
7C0000
7C0000
780000
F80000
F80000
F80000
F80000
F807FE
F807FE
F807FE
F807FE
F8001E
F8001E
F8001E
78001E
7C001E
7C001E
3E001E
3E001E
1F001E
1FC01E
0FFFFE
07FFFE
01FFFC
007FE0
ENDCHAR
STARTCHAR H
ENCODING 72
SWIDTH 600 0
DWIDTH 29 0
BBX 23 34 3 0
BITMAP
F0001E
F0001E
F0001E
F0001E
F0001E
F0001E
F0001E
F0001E
F0001E
F0001E
F0001E
F0001E
F0001E
F0001E
FFFFFE
FFFFFE
FFFFFE
FFFFFE
F0001E
F0001E
F0001E
F0001E
F0001E
F0001E
F0001E
F0001E
F0001E
F0001E
F0001E
F0001E
F0001E
F0001E
F0001E
F0001E
ENDCHAR
STARTCHAR I
ENCODING 73
SWIDTH 600 0
DWIDTH 29 0
BBX 18 34 5 0
BITMAP
FFFFC0
FFFFC0
FFFFC0
01E000
01E000
01E000
01E000
01E000
01E000
01E000
01E000
01E000
01E000
01E000
01E000
01E000
01E000
01E000
01E000
01E000
01E000
01E000
01E000
01E000
01E000
01E000
01E000
01E000
01E000
01E000
01E000
FFFFC0
FFFFC0
FFFFC0
ENDCHAR
STARTCHAR J
ENCODING 74
SWIDTH 600 0
DWIDTH 29 0
BBX 20 34 3 0
BITMAP
0000F0
0000F0
0000F0
0000F0
0000F0
0000F0
0000F0
0000F0
0000F0
0000F0
0000F0
0000F0
0000F0
0000F0
0000F0
0000F0
0000F0
0000F0
0000F0
0000F0
0000F0
0000F0
0000F0
0000F0
0000F0
0001F0
0001F0
0003E0
0007E0
E01FC0
FFFF80
FFFF00
FFFE00
1FF000
ENDCHAR
STARTCHAR K
ENCODING 75
SWIDTH 600 0
DWIDTH 29 0
BBX 23 34 5 0
BITMAP
F0003E
F0007C
F000F8
F001F0
F003E0
F003E0
F007C0
F00F80
F01F00
F03E00
F07C00
F07800
F0F800
F1F000
F3E000
F7E000
F7F000
FFF000
FEF800
FC7C00
F07C00
F03E00
F01F00
F01F00
F00F80
F007C0
F007C0
F003E0
F001F0
F001F0
F000F8
F0007C
F0007C
F0003E
ENDCHAR
STARTCHAR L
ENCODING 76
SWIDTH 600 0
DWIDTH 29 0
BBX 20 34 5 0
BITMAP
F00000
F00000
F00000
F00000
F00000
F00000
F00000
F00000
F00000
F00000
F00000
F00000
F00000
F00000
F00000
F00000
F00000
F00000
F00000
F00000
F00000
F00000
F00000
F00000
F00000
F00000
F00000
F00000
F00000
F00000
FFFFF0
FFFFF0
FFFFF0
FFFFF0
ENDCHAR
STARTCHAR M
ENCODING 77
SWIDTH 600 0
DWIDTH 29 0
BBX 23 34 3 0
BITMAP
FC007E
FC007E
FC007E
FC00FE
FE00EE
EE00EE
EE00EE
EE00EE
EE01EE
EF01CE
E701DE
F701DE
F701DE
F703DE
F7839E
F3839E
F3839E
F3839E
F3871E
F1C71E
F1C71E
F1C71E
F1C71E
F1CE1E
F0EE1E
F0EE1E
F0EE1E
F0EE1E
F0FC1E
F07C1E
F07C1E
F07C1E
F0781E
F0381E
ENDCHAR
STARTCHAR N
ENCODING 78
SWIDTH 600 0
DWIDTH 29 0
BBX 23 34 3 0
BITMAP
F8001E
FC001E
FC001E
FE001E
FE001E
FF001E
FF001E
F7801E
F7801E
F3C01E
F3C01E
F1E01E
F1E01E
F0F01E
F0F01E
F0781E
F0781E
F03C1E
F03C1E
F01E1E
F01E1E
F00F1E
F00F1E
F0079E
F0079E
F003DE
F003DE
F001FE
F001FE
F000FE
F000FE
F0007E
F0007E
F0003E
ENDCHAR
STARTCHAR O
ENCODING 79
SWIDTH 600 0
DWIDTH 29 0
BBX 25 34 2 0
BITMAP
007F0000
03FFE000
07FFF000
0FFFF800
1F80FC00
3F007C00
3E003E00
7C001E00
7C001F00
7C001F00
78000F00
F8000F80
F8000F80
F8000F80
F8000F80
F8000F80
F8000F80
F8000F80
F8000F80
F8000F80
F8000F80
F8000F80
F8000F80
78000F00
7C001F00
7C001F00
7C001E00
3E003E00
3F007C00
1F80FC00
0FFFF800
07FFF000
03FFE000
007F0000
ENDCHAR
STARTCHAR P
ENCODING 80
SWIDTH 600 0
DWIDTH 29 0
BBX 22 34 4 0
BITMAP
FFFC00
FFFF80
FFFFE0
FFFFF0
F003F8
F001F8
F000FC
F0007C
F0007C
F0007C
F0007C
F0007C
F0007C
F0007C
F000F8
F001F8
F007F0
FFFFE0
FFFFC0
FFFF00
FFF800
F00000
F00000
F00000
F00000
F00000
F00000
F00000
F00000
F00000
F00000
F00000
F00000
F00000
ENDCHAR
STARTCHAR Q
ENCODING 81
SWIDTH 600 0
DWIDTH 29 0
BBX 25 43 2 -9
BITMAP
007F0000
03FFE000
07FFF000
0FFFF800
1F80FC00
3F007E00
3E003E00
7C001E00
7C001F00
7C001F00
78000F00
F8000F80
F8000F80
F8000F80
F8000F80
F8000F80
F8000F80
F8000F80
F8000F80
F8000F80
F8000F80
F8000F80
F8000F80
78000F00
7C001F00
7C001F00
7C001E00
3E003E00
3F007C00
1F80FC00
0FFFF800
07FFF000
03FFC000
007FE000
0001E000
0001F000
0000F800
0000FC00
00007E00
00003F80
00001F00
00000E00
00000600
ENDCHAR
STARTCHAR R
ENCODING 82
SWIDTH 600 0
DWIDTH 29 0
BBX 24 34 4 0
BITMAP
FFFC00
FFFF00
FFFFC0
FFFFE0
F007F0
F001F0
F000F8
F000F8
F000F8
F000F8
F000F8
F000F8
F000F8
F001F0
F003F0
F00FE0
FFFFC0
FFFF00
FFFC00
FFFE00
F03E00
F01F00
F00F80
F00F80
F007C0
F003E0
F003E0
F001F0
F000F8
F000F8
F0007C
F0007E
F0003E
F0001F
ENDCHAR
STARTCHAR S
ENCODING 83
SWIDTH 600 0
DWIDTH 29 0
BBX 22 34 4 0
BITMAP
01FF80
0FFFF0
1FFFF8
3FFFF0
7E00F0
F80010
F80000
F00000
F00000
F00000
F80000
F80000
7C0000
7F0000
3FC000
1FF800
07FF00
01FFC0
003FE0
000FF0
0001F8
0000F8
00007C
00007C
00003C
00003C
00007C
00007C
8000F8
F001F8
FFFFF0
FFFFE0
FFFF80
0FFC00
ENDCHAR
STARTCHAR T
ENCODING 84
SWIDTH 600 0
DWIDTH 29 0
BBX 24 34 2 0
BITMAP
FFFFFF
FFFFFF
FFFFFF
FFFFFF
003C00
003C00
003C00
003C00
003C00
003C00
003C00
003C00
003C00
003C00
003C00
003C00
003C00
003C00
003C00
003C00
003C00
003C00
003C00
003C00
003C00
003C00
003C00
003C00
003C00
003C00
003C00
003C00
003C00
003C00
ENDCHAR
STARTCHAR U
ENCODING 85
SWIDTH 600 0
DWIDTH 29 0
BBX 23 34 3 0
BITMAP
F0001E
F0001E
F0001E
F0001E
F0001E
F0001E
F0001E
F0001E
F0001E
F0001E
F0001E
F0001E
F0001E
F0001E
F0001E
F0001E
F0001E
F0001E
F0001E
F0001E
F0001E
F0001E
F0001E
F0003E
F8003E
F8003E
78003C
7C007C
7E00FC
3F01F8
3FFFF0
1FFFE0
07FFC0
01FF00
ENDCHAR
STARTCHAR V
ENCODING 86
SWIDTH 600 0
DWIDTH 29 0
BBX 27 34 1 0
BITMAP
F80003E0
F80003E0
780003C0
7C0007C0
7C0007C0
3C000780
3E000F80
3E000F80
1E000F00
1F001F00
1F001F00
0F001E00
0F803E00
0F803E00
07803C00
07C07C00
07C07C00
03C07800
03C07800
01E0F800
01E0F000
01E0F000
00F1F000
00F1E000
00F1E000
007BE000
007BC000
007BC000
003BC000
003F8000
003F8000
001F8000
001F0000
001F0000
ENDCHAR
STARTCHAR W
ENCODING 87
SWIDTH 600 0
DWIDTH 29 0
BBX 29 34 0 0
BITMAP
F0000078
F0000078
F0000078
F0000078
78000070
780000F0
780000F0
780000F0
780000F0
780000F0
780000F0
3C0F80F0
3C0F80E0
3C0F80E0
3C1DC0E0
3C1DC1E0
3C1DC1E0
1C1DE1E0
1C3DE1E0
1E38E1E0
1E38E1C0
1E78F1C0
1E7871C0
1E7071C0
0E707BC0
0EF03BC0
0EE03BC0
0EE03BC0
0EE01F80
0EE01F80
0FC01F80
07C00F80
07C00F80
07800F80
ENDCHAR
STARTCHAR X
ENCODING 88
SWIDTH 600 0
DWIDTH 29 0
BBX 27 34 1 0
BITMAP
7C0007C0
3E000780
1E000F00
1F001F00
0F001E00
0F803E00
07C07C00
03C07800
03E0F800
01E0F000
00F1E000
00FBE000
007BC000
007F8000
003F8000
001F0000
001F0000
003F8000
003FC000
007BC000
00FBE000
00F1E000
01E1F000
03E0F800
03C07800
07C07C00
07803C00
0F003E00
1F001F00
1E001F00
3E000F80
3C000780
780007C0
F80003E0
ENDCHAR
STARTCHAR Y
ENCODING 89
SWIDTH 600 0
DWIDTH 29 0
BBX 27 34 1 0
BITMAP
F80003E0
780007C0
7C0007C0
3C000F80
3E000F80
1E001F00
1F001E00
0F003E00
0F803C00
07807C00
07C07800
03C0F800
01E0F000
01E1F000
00F1E000
00F3C000
007BC000
007F8000
003F8000
003F0000
001F0000
001E0000
001E0000
001E0000
001E0000
001E0000
001E0000
001E0000
001E0000
001E0000
001E0000
001E0000
001E0000
001E0000
ENDCHAR
STARTCHAR Z
ENCODING 90
SWIDTH 600 0
DWIDTH 29 0
BBX 25 34 2 0
BITMAP
7FFFFF80
7FFFFF80
7FFFFF80
7FFFFF80
00000F00
00001E00
00003E00
00007C00
00007800
0000F000
0001F000
0003E000
0003C000
00078000
000F8000
001F0000
001E0000
003C0000
007C0000
00F80000
00F00000
01E00000
03E00000
07C00000
07800000
0F000000
1F000000
3E000000
3C000000
78000000
FFFFFF80
FFFFFF80
FFFFFF80
FFFFFF80
ENDCHAR
STARTCHAR bracketleft
ENCODING 91
SWIDTH 600 0
DWIDTH 29 0
BBX 12 42 10 -8
BITMAP
FFF0
FFF0
FFF0
FFF0
F000
F000
F000
F000
F000
F000
F000
F000
F000
F000
F000
F000
F000
F000
F000
F000
F000
F000
F000
F000
F000
F000
F000
F000
F000
F000
F000
F000
F000
F000
F000
F000
F000
F000
FFF0
FFF0
FFF0
FFF0
ENDCHAR
STARTCHAR backslash
ENCODING 92
SWIDTH 600 0
DWIDTH 29 0
BBX 19 34 5 0
BITMAP
F00000
780000
780000
3C0000
3C0000
3E0000
1E0000
1E0000
0F0000
0F0000
078000
078000
07C000
03C000
03E000
01E000
01E000
00F000
00F000
00F800
007800
007C00
003C00
003C00
001E00
001E00
000F00
000F00
000F80
000780
000780
0003C0
0003C0
0001E0
ENDCHAR
STARTCHAR bracketright
ENCODING 93
SWIDTH 600 0
DWIDTH 29 0
BBX 12 42 7 -8
BITMAP
FFF0
FFF0
FFF0
FFF0
00F0
00F0
00F0
00F0
00F0
00F0
00F0
00F0
00F0
00F0
00F0
00F0
00F0
00F0
00F0
00F0
00F0
00F0
00F0
00F0
00F0
00F0
00F0
00F0
00F0
00F0
00F0
00F0
00F0
00F0
00F0
00F0
00F0
00F0
FFF0
FFF0
FFF0
FFF0
ENDCHAR
STARTCHAR asciicircum
ENCODING 94
SWIDTH 600 0
DWIDTH 29 0
BBX 23 22 3 13
BITMAP
003000
007800
007800
00FC00
00FC00
01FE00
01CE00
03CF00
038700
038780
070380
0703C0
0F01C0
0E01E0
1E00E0
1C00F0
3C0070
3C0078
380038
78003C
70003C
F0001E
ENDCHAR
STARTCHAR underscore
ENCODING 95
SWIDTH 600 0
DWIDTH 29 0
BBX 29 3 0 -7
BITMAP
FFFFFFF8
FFFFFFF8
FFFFFFF8
ENDCHAR
STARTCHAR grave
ENCODING 96
SWIDTH 600 0
DWIDTH 29 0
BBX 9 8 10 29
BITMAP
F800
7C00
7C00
3E00
1E00
0F00
0700
0380
ENDCHAR
STARTCHAR a
ENCODING 97
SWIDTH 600 0
DWIDTH 29 0
BBX 21 26 3 0
BITMAP
01FE00
0FFFC0
3FFFE0
3FFFF0
1C01F0
0000F8
0000F8
000078
000078
000078
00FFF8
07FFF8
1FFFF8
3FC078
7C0078
F80078
F80078
F000F8
F000F8
F000F8
F801F8
7C03F8
7F3F78
3FFE78
1FFC38
07F038
ENDCHAR
STARTCHAR b
ENCODING 98
SWIDTH 600 0
DWIDTH 29 0
BBX 22 36 4 0
BITMAP
F00000
F00000
F00000
F00000
F00000
F00000
F00000
F00000
F00000
F00000
F07E00
F1FF80
F7FFC0
FFFFE0
FE01F0
FC00F8
F800F8
F80078
F8007C
F0007C
F0007C
F0003C
F0003C
F0003C
F0003C
F0007C
F8007C
F8007C
F80078
F800F8
FC00F8
FE01F0
FFFFE0
F7FFC0
E1FF80
E0FE00
ENDCHAR
STARTCHAR c
ENCODING 99
SWIDTH 600 0
DWIDTH 29 0
BBX 21 26 4 0
BITMAP
007FC0
03FFF8
0FFFF8
1FFFF0
3F8030
3E0000
7C0000
7C0000
780000
F80000
F80000
F00000
F00000
F00000
F00000
F80000
F80000
F80000
7C0000
7C0000
3E0000
3F8018
1FFFF8
0FFFF8
03FFF8
007FC0
ENDCHAR
STARTCHAR d
ENCODING 100
SWIDTH 600 0
DWIDTH 29 0
BBX 22 36 3 0
BITMAP
00003C
00003C
00003C
00003C
00003C
00003C
00003C
00003C
00003C
00003C
01F83C
07FE3C
0FFFBC
1FFFFC
3E01FC
7C00FC
7C007C
78007C
F8007C
F8007C
F8003C
F0003C
F0003C
F0003C
F0003C
F8003C
F8003C
F8007C
78007C
7C007C
7C00FC
3E01FC
1FFFBC
1FFFBC
07FE3C
01F83C
ENDCHAR
STARTCHAR e
ENCODING 101
SWIDTH 600 0
DWIDTH 29 0
BBX 23 26 3 0
BITMAP
00FF00
03FFC0
0FFFE0
1FFFF0
3F00F8
3C007C
7C003C
78003E
78003E
F8001E
FFFFFE
FFFFFE
FFFFFE
FFFFFE
F00000
F80000
F80000
780000
780000
7C0000
3E0000
3F801C
1FFFFC
07FFFC
03FFF8
007FC0
ENDCHAR
STARTCHAR f
ENCODING 102
SWIDTH 600 0
DWIDTH 29 0
BBX 22 36 4 0
BITMAP
000FF8
003FFC
00FFFC
00FFF8
01F000
01F000
01E000
01E000
01E000
01E000
7FFFF0
FFFFF0
FFFFF0
01E000
01E000
01E000
01E000
01E000
01E000
01E000
01E000
01E000
01E000
01E000
01E000
01E000
01E000
01E000
01E000
01E000
01E000
01E000
01E000
01E000
01E000
01E000
ENDCHAR
STARTCHAR g
ENCODING 103
SWIDTH 600 0
DWIDTH 29 0
BBX 25 38 2 -12
BITMAP
00FFFF80
03FFFF80
0FFFFF80
0F81F800
1F00F800
3E007C00
3C003C00
3C003C00
3C003C00
3C003C00
3C003C00
3E007C00
1E007800
1F81F800
0FFFF000
07FFC000
03FF0000
07800000
0E000000
1E000000
1E000000
1F000000
1FFFF000
0FFFFC00
0FFFFE00
3FFFFF00
7C000F80
78000780
F0000780
F0000780
F0000780
F0000F80
F8000F00
7C003F00
7F87FE00
3FFFFC00
1FFFF000
03FF8000
ENDCHAR
STARTCHAR h
ENCODING 104
SWIDTH 600 0
DWIDTH 29 0
BBX 21 36 4 0
BITMAP
F00000
F00000
F00000
F00000
F00000
F00000
F00000
F00000
F00000
F00000
F07F00
F1FFC0
F7FFE0
F7FFF0
FE01F0
FC00F8
FC00F8
F80078
F80078
F80078
F00078
F00078
F00078
F00078
F00078
F00078
F00078
F00078
F00078
F00078
F00078
F00078
F00078
F00078
F00078
F00078
ENDCHAR
STARTCHAR i
ENCODING 105
SWIDTH 600 0
DWIDTH 29 0
BBX 21 36 5 0
BITMAP
00F000
00F800
00F800
00F000
00F000
000000
000000
000000
000000
000000
3FF000
3FF000
3FF000
00F000
00F000
00F000
00F000
00F000
00F000
00F000
00F000
00F000
00F000
00F000
00F000
00F000
00F000
00F000
00F000
00F000
00F000
00F000
00F000
FFFFF8
FFFFF8
FFFFF8
ENDCHAR
STARTCHAR j
ENCODING 106
SWIDTH 600 0
DWIDTH 29 0
BBX 17 48 3 -12
BITMAP
000700
000F80
000F80
000F80
000700
000000
000000
000000
000000
000000
1FFF80
1FFF80
1FFF80
000780
000780
000780
000780
000780
000780
000780
000780
000780
000780
000780
000780
000780
000780
000780
000780
000780
000780
000780
000780
000780
000780
000780
000780
000780
000780
000780
000780
000F80
000F00
001F00
FFFE00
FFFE00
FFF800
7FE000
ENDCHAR
STARTCHAR k
ENCODING 107
SWIDTH 600 0
DWIDTH 29 0
BBX 22 36 5 0
BITMAP
F00000
F00000
F00000
F00000
F00000
F00000
F00000
F00000
F00000
F00000
F001F8
F003F0
F007E0
F00FC0
F00F80
F01F00
F03E00
F07C00
F0F800
F1F000
F3E000
F7C000
FFE000
FFF000
FEF000
F8F800
F07C00
F03E00
F01F00
F00F80
F00F80
F007C0
F003E0
F001F0
F000F8
F0007C
ENDCHAR
STARTCHAR l
ENCODING 108
SWIDTH 600 0
DWIDTH 29 0
BBX 21 36 5 0
BITMAP
3FF000
3FF000
3FF000
00F000
00F000
00F000
00F000
00F000
00F000
00F000
00F000
00F000
00F000
00F000
00F000
00F000
00F000
00F000
00F000
00F000
00F000
00F000
00F000
00F000
00F000
00F000
00F000
00F000
00F000
00F000
00F000
00F000
00F000
FFFFF8
FFFFF8
FFFFF8
ENDCHAR
STARTCHAR m
ENCODING 109
SWIDTH 600 0
DWIDTH 29 0
BBX 25 26 2 0
BITMAP
E1E07C00
F3F0FE00
F7F9FF00
FFFBFF00
F87F0F80
F83E0F80
F83E0780
F83E0780
F03C0780
F03C0780
F03C0780
F03C0780
F03C0780
F03C0780
F03C0780
F03C0780
F03C0780
F03C0780
F03C0780
F03C0780
F03C0780
F03C0780
F03C0780
F03C0780
F03C0780
F03C0780
ENDCHAR
STARTCHAR n
ENCODING 110
SWIDTH 600 0
DWIDTH 29 0
BBX 21 26 4 0
BITMAP
F07F00
F1FFC0
F7FFE0
F7FFF0
FE01F0
FC00F8
FC00F8
F80078
F80078
F80078
F00078
F00078
F00078
F00078
F00078
F00078
F00078
F00078
F00078
F00078
F00078
F00078
F00078
F00078
F00078
F00078
ENDCHAR
STARTCHAR o
ENCODING 111
SWIDTH 600 0
DWIDTH 29 0
BBX 23 26 3 0
BITMAP
00FE00
03FF80
0FFFE0
1FFFF0
3F01F8
3C00F8
7C007C
78003C
F8003C
F8003E
F8003E
F0001E
F0001E
F0001E
F0001E
F8003E
F8003E
78003C
78003C
7C007C
3E00F8
3F01F8
1FFFF0
0FFFE0
03FF80
00FE00
ENDCHAR
STARTCHAR p
ENCODING 112
SWIDTH 600 0
DWIDTH 29 0
BBX 22 38 4 -12
BITMAP
F07E00
F1FF80
F7FFC0
F7FFE0
FE01F0
FC00F8
F800F8
F80078
F8007C
F0007C
F0007C
F0003C
F0003C
F0003C
F0003C
F0007C
F8007C
F8007C
F80078
F800F8
FC00F8
FE01F0
FFFFE0
F7FFC0
F1FF80
F0FE00
F00000
F00000
F00000
F00000
F00000
F00000
F00000
F00000
F00000
F00000
F00000
F00000
ENDCHAR
STARTCHAR q
ENCODING 113
SWIDTH 600 0
DWIDTH 29 0
BBX 22 38 3 -12
BITMAP
01F83C
07FE3C
0FFFBC
1FFFBC
3E01FC
7C00FC
7C007C
78007C
F8007C
F8007C
F8003C
F0003C
F0003C
F0003C
F0003C
F8003C
F8003C
F8007C
78007C
7C007C
7C00FC
3E01FC
1FFFBC
1FFFBC
07FE3C
01F83C
00003C
00003C
00003C
00003C
00003C
00003C
00003C
00003C
00003C
00003C
00003C
00003C
ENDCHAR
STARTCHAR r
ENCODING 114
SWIDTH 600 0
DWIDTH 29 0
BBX 19 26 6 0
BITMAP
F03F80
F0FFE0
F3FFE0
F7FFC0
F70040
FE0000
FC0000
F80000
F80000
F80000
F00000
F00000
F00000
F00000
F00000
F00000
F00000
F00000
F00000
F00000
F00000
F00000
F00000
F00000
F00000
F00000
ENDCHAR
STARTCHAR s
ENCODING 115
SWIDTH 600 0
DWIDTH 29 0
BBX 19 26 5 0
BITMAP
03FE00
1FFFC0
3FFFE0
7FFFC0
F801C0
F00000
F00000
F00000
F80000
7E0000
7F8000
3FF000
0FFC00
03FF00
007F80
000FC0
0007E0
0003E0
0001E0
0001E0
0003E0
E007C0
FFFFC0
FFFF80
FFFF00
1FF800
ENDCHAR
STARTCHAR t
ENCODING 116
SWIDTH 600 0
DWIDTH 29 0
BBX 20 33 4 0
BITMAP
00C000
01C000
01C000
01C000
01C000
03C000
03C000
1FFFF0
FFFFF0
FFFFF0
03C000
03C000
03C000
03C000
03C000
03C000
03C000
03C000
03C000
03C000
03C000
03C000
03C000
03C000
03C000
03C000
03C000
03E000
03F000
01FFF0
00FFF0
007FF0
001FE0
ENDCHAR
STARTCHAR u
ENCODING 117
SWIDTH 600 0
DWIDTH 29 0
BBX 21 26 4 0
BITMAP
F00078
F00078
F00078
F00078
F00078
F00078
F00078
F00078
F00078
F00078
F00078
F00078
F00078
F00078
F00078
F00078
F000F8
F000F8
F000F8
F800F8
F801F8
7C03F8
7FFF78
3FFF78
1FFC78
07F078
ENDCHAR
STARTCHAR v
ENCODING 118
SWIDTH 600 0
DWIDTH 29 0
BBX 25 26 2 0
BITMAP
F8000F80
78000F00
78000F00
7C001F00
3C001E00
3C001E00
3E003E00
1E003C00
1F007C00
0F007800
0F007800
0F80F800
0780F000
0780F000
03C1F000
03C1E000
03E1E000
01E3C000
01E3C000
01F3C000
00F78000
00F78000
00778000
007F0000
007F0000
003E0000
ENDCHAR
STARTCHAR w
ENCODING 119
SWIDTH 600 0
DWIDTH 29 0
BBX 29 26 0 0
BITMAP
F00F8078
F00F8078
700F8070
701FC070
781DC0F0
781DC0F0
781DC0F0
381DC0E0
383DE0E0
3C38E0E0
3C38E1E0
3C38E1E0
1C78F1C0
1C78F1C0
1C7071C0
1E7073C0
1E7073C0
0EF07B80
0EE03B80
0EE03B80
0EE03B80
0EE03B80
07E03F00
07C01F00
07C01F00
07C01F00
ENDCHAR
STARTCHAR x
ENCODING 120
SWIDTH 600 0
DWIDTH 29 0
BBX 25 26 2 0
BITMAP
7C001F00
3C001E00
3E003E00
1F007C00
0F80F800
0780F000
07C1F000
03E3E000
01F7C000
00F78000
00FF8000
007F0000
003E0000
007F0000
007F0000
00FF8000
01F7C000
03E3E000
03C1E000
07C1F000
0F80F800
1F007C00
1E003C00
3E003E00
7C001F00
F8000F80
ENDCHAR
STARTCHAR y
ENCODING 121
SWIDTH 600 0
DWIDTH 29 0
BBX 25 38 2 -12
BITMAP
F8000F80
78000F00
78000F00
7C001F00
3C001E00
3E003E00
1E003E00
1E003C00
1F007C00
0F007800
0F807800
0780F800
0780F000
07C1F000
03C1E000
03E1E000
01E3E000
01E3C000
00F3C000
00F7C000
00F78000
00778000
007F0000
003F0000
003F0000
003E0000
003E0000
003C0000
003C0000
007C0000
00780000
00F80000
00F00000
01F00000
FFE00000
FFC00000
FF800000
FE000000
ENDCHAR
STARTCHAR z
ENCODING 122
SWIDTH 600 0
DWIDTH 29 0
BBX 21 26 4 0
BITMAP
7FFFF8
7FFFF8
7FFFF8
000078
0000F0
0001E0
0003E0
0007C0
000F80
001F00
001E00
003C00
007800
00F000
01F000
03E000
07C000
078000
0F0000
1E0000
3C0000
7C0000
F80000
FFFFF8
FFFFF8
FFFFF8
ENDCHAR
STARTCHAR braceleft
ENCODING 123
SWIDTH 600 0
DWIDTH 29 0
BBX 19 42 5 -8
BITMAP
0003E0
001FE0
003FE0
007FE0
00FC00
00F800
00F000
00F000
00F000
00F000
00F000
00F000
00F000
00F000
00F000
00F000
00F000
01F000
0FE000
FFC000
FF0000
FF8000
FFC000
03E000
01F000
00F000
00F000
00F000
00F000
00F000
00F000
00F000
00F000
00F000
00F000
00F000
00F800
00FC00
007FE0
003FE0
001FE0
0003E0
ENDCHAR
STARTCHAR bar
ENCODING 124
SWIDTH 600 0
DWIDTH 29 0
BBX 4 48 13 -12
BITMAP
F0
F0
F0
F0
F0
F0
F0
F0
F0
F0
F0
F0
F0
F0
F0
F0
F0
F0
F0
F0
F0
F0
F0
F0
F0
F0
F0
F0
F0
F0
F0
F0
F0
F0
F0
F0
F0
F0
F0
F0
F0
F0
F0
F0
F0
F0
F0
F0
ENDCHAR
STARTCHAR braceright
ENCODING 125
SWIDTH 600 0
DWIDTH 29 0
BBX 19 42 5 -8
BITMAP
F80000
FF0000
FF8000
FFC000
07E000
03E000
01E000
01E000
01E000
01E000
01E000
01E000
01E000
01E000
01E000
01E000
01E000
01F000
00FE00
007FE0
000FE0
003FE0
00FFE0
00F800
01F000
01E000
01E000
01E000
01E000
01E000
01E000
01E000
01E000
01E000
01E000
01E000
03E000
07E000
FFC000
FF8000
FF0000
F80000
ENDCHAR
STARTCHAR asciitilde
ENCODING 126
SWIDTH 600 0
DWIDTH 29 0
BBX 21 6 4 14
BITMAP
1F8008
7FF018
FFFFF8
FFFFF8
C07FF0
800FC0
ENDCHAR
STARTCHAR uni00A0
ENCODING 160
SWIDTH 600 0
DWIDTH 29 0
BBX 1 1 0 0
BITMAP
00
ENDCHAR
STARTCHAR exclamdown
ENCODING 161
SWIDTH 600 0
DWIDTH 29 0
BBX 6 35 11 -9
BITMAP
78
FC
FC
FC
FC
FC
78
00
00
00
00
30
70
78
78
78
78
78
78
78
78
78
78
78
78
78
78
78
78
78
78
78
F8
FC
FC
ENDCHAR
STARTCHAR cent
ENCODING 162
SWIDTH 600 0
DWIDTH 29 0
BBX 21 34 4 0
BITMAP
003C00
003C00
003C00
003C00
00FFE0
07FFF8
0FFFF8
1FFFF8
3F0010
7E0000
7C0000
780000
F80000
F80000
F80000
F00000
F00000
F00000
F80000
F80000
F80000
780000
7C0000
7E0000
3F8018
1FFFF8
0FFFF8
03FFF8
00FFC0
003C00
003C00
003C00
003C00
003C00
ENDCHAR
STARTCHAR sterling
ENCODING 163
SWIDTH 600 0
DWIDTH 29 0
BBX 23 34 3 0
BITMAP
001FC0
007FF8
01FFFC
03FFF8
03E018
07C000
07C000
078000
078000
078000
078000
078000
078000
078000
078000
078000
FFFFC0
FFFFC0
FFFFC0
078000
078000
078000
078000
078000
078000
078000
078000
0F8000
0F0000
3E0000
FFFFFE
FFFFFE
FFFFFE
FFFFFE
ENDCHAR
STARTCHAR currency
ENCODING 164
SWIDTH 600 0
DWIDTH 29 0
BBX 20 20 4 7
BITMAP
600060
F1F8F0
FFFFF0
7FFFE0
3F9FC0
3C03C0
3803C0
7801E0
7000E0
7000E0
7000E0
7000E0
7801E0
3801C0
3C03C0
3F9FC0
7FFFE0
FFFFF0
F1F8F0
600060
ENDCHAR
STARTCHAR yen
ENCODING 165
SWIDTH 600 0
DWIDTH 29 0
BBX 25 34 2 0
BITMAP
F8000F80
78000F00
7C001F00
3C001E00
3C003E00
1E003C00
1E007C00
0F007800
0F00F800
0F80F000
0781F000
07C1E000
03C3C000
03C3C000
01E78000
01E78000
00FF0000
00FF0000
1FFFF800
1FFFF800
1FFFF800
003C0000
003C0000
003C0000
003C0000
1FFFF800
1FFFF800
1FFFF800
003C0000
003C0000
003C0000
003C0000
003C0000
003C0000
ENDCHAR
STARTCHAR brokenbar
ENCODING 166
SWIDTH 600 0
DWIDTH 29 0
BBX 4 48 13 -12
BITMAP
F0
F0
F0
F0
F0
F0
F0
F0
F0
F0
F0
F0
F0
F0
F0
F0
F0
F0
00
00
00
00
00
00
00
00
00
00
00
00
F0
F0
F0
F0
F0
F0
F0
F0
F0
F0
F0
F0
F0
F0
F0
F0
F0
F0
ENDCHAR
STARTCHAR section
ENCODING 167
SWIDTH 600 0
DWIDTH 29 0
BBX 17 36 6 0
BITMAP
07F800
1FFF00
7FFF00
7E3F00
F80200
F00000
F00000
F80000
7C0000
7F0000
3FC000
1FF800
3FFC00
787E00
F01F00
F00F80
F00780
F00780
F00780
F80780
7C0780
7F0F00
1FDE00
0FFC00
03FC00
007F00
001F00
000F80
000780
000780
000780
800F80
FC7F00
FFFE00
FFFC00
3FF000
ENDCHAR
STARTCHAR dieresis
ENCODING 168
SWIDTH 600 0
DWIDTH 29 0
BBX 13 5 8 30
BITMAP
7070
F078
F8F8
F078
7070
ENDCHAR
STARTCHAR copyright
ENCODING 169
SWIDTH 600 0
DWIDTH 29 0
BBX 29 34 0 0
BITMAP
003FE000
00FFF800
03FFFE00
07C01F00
0F000780
1E0003C0
3C0001C0
380FE0E0
703FFC60
707FF870
60FC3870
61F00030
E1E00038
E3C00038
E3C00038
E3C00038
E3C00038
E3C00038
E3C00038
E3C00038
E3C00038
E1E00038
61F00030
60FC3870
707FF870
703FF860
380FE0E0
3C0001C0
1C0003C0
0F000780
07800F00
03FFFE00
00FFF800
003FE000
ENDCHAR
STARTCHAR ordfeminine
ENCODING 170
SWIDTH 600 0
DWIDTH 29 0
BBX 15 15 6 19
BITMAP
0FF0
7FF8
3FFC
201E
001E
07FE
3FFE
7F1E
F01E
F01E
F01E
F07E
FFEE
7FCE
3F0E
ENDCHAR
STARTCHAR guillemotleft
ENCODING 171
SWIDTH 600 0
DWIDTH 29 0
BBX 19 19 5 3
BITMAP
010080
03C1E0
0783C0
0F87C0
0F0780
1E0F00
3E1F00
7C3E00
783C00
F07800
783C00
7C3E00
3E1F00
1E0F00
0F0780
0F87C0
0783C0
03C1E0
010080
ENDCHAR
STARTCHAR logicalnot
ENCODING 172
SWIDTH 600 0
DWIDTH 29 0
BBX 21 13 4 6
BITMAP
FFFFF8
FFFFF8
FFFFF8
FFFFF8
000078
000078
000078
000078
000078
000078
000078
000078
000078
ENDCHAR
STARTCHAR uni00AD
ENCODING 173
SWIDTH 600 0
DWIDTH 29 0
BBX 15 4 7 11
BITMAP
FFFE
FFFE
FFFE
FFFE
ENDCHAR
STARTCHAR registered
ENCODING 174
SWIDTH 600 0
DWIDTH 29 0
BBX 29 34 0 0
BITMAP
003FE000
00FFF800
03FFFE00
07C01F00
0F000780
1E0003C0
3C0001C0
38FFC0E0
70FFF060
70FFF870
60F0FC70
60F03C30
E0F03C38
E0F03C38
E0F03C38
E0F0F838
E0FFF038
E0FFE038
E0FFC038
E0F1E038
E0F1F038
E0F0F038
60F07830
60F07C70
70F03C70
70F01E60
38F01FE0
3C0001C0
1C0003C0
0F000780
07800F00
03FFFE00
00FFF800
003FE000
ENDCHAR
STARTCHAR macron
ENCODING 175
SWIDTH 600 0
DWIDTH 29 0
BBX 29 3 0 36
BITMAP
FFFFFFF8
FFFFFFF8
FFFFFFF8
ENDCHAR
STARTCHAR degree
ENCODING 176
SWIDTH 600 0
DWIDTH 29 0
BBX 15 15 7 19
BITMAP
07C0
1FF0
3FF8
783C
701C
F01E
E00E
E00E
E00E
F01E
701C
783C
3FF8
1FF0
07C0
ENDCHAR
STARTCHAR plusminus
ENCODING 177
SWIDTH 600 0
DWIDTH 29 0
BBX 22 28 4 0
BITMAP
007800
007800
007800
007800
007800
007800
007800
007800
007800
FFFFFC
FFFFFC
FFFFFC
FFFFFC
007800
007800
007800
007800
007800
007800
007800
007800
007800
000000
000000
FFFFFC
FFFFFC
FFFFFC
FFFFFC
ENDCHAR
STARTCHAR uni00B2
ENCODING 178
SWIDTH 600 0
DWIDTH 29 0
BBX 13 19 8 15
BITMAP
1F80
7FE0
FFE0
60F0
00F0
00F0
00F0
00F0
01E0
01C0
03C0
0780
0F00
1E00
3C00
7800
FFF8
FFF8
FFF8
ENDCHAR
STARTCHAR uni00B3
ENCODING 179
SWIDTH 600 0
DWIDTH 29 0
BBX 12 19 8 15
BITMAP
1F00
7FC0
FFE0
61E0
01E0
01E0
01E0
03C0
1F80
1F80
03E0
00F0
00F0
00F0
00F0
80F0
FFE0
FFC0
3F80
ENDCHAR
STARTCHAR acute
ENCODING 180
SWIDTH 600 0
DWIDTH 29 0
BBX 9 8 10 29
BITMAP
0F80
1F00
1F00
3E00
3C00
7800
7000
E000
ENDCHAR
STARTCHAR mu
ENCODING 181
SWIDTH 600 0
DWIDTH 29 0
BBX 21 38 4 -12
BITMAP
F00078
F00078
F00078
F00078
F00078
F00078
F00078
F00078
F00078
F00078
F00078
F00078
F00078
F00078
F00078
F00078
F000F8
F000F8
F000F8
F800F8
F801F8
FC03F8
FFFF78
FFFF78
F7FC78
F3F878
F00000
F00000
F00000
F00000
F00000
F00000
F00000
F00000
F00000
F00000
F00000
F00000
ENDCHAR
STARTCHAR paragraph
ENCODING 182
SWIDTH 600 0
DWIDTH 29 0
BBX 23 42 2 -6
BITMAP
03FFFE
0FFFFE
1FFFFE
3FFFFE
7FFF0E
7FFF0E
7FFF0E
FFFF0E
FFFF0E
FFFF0E
FFFF0E
FFFF0E
FFFF0E
FFFF0E
FFFF0E
FFFF0E
7FFF0E
7FFF0E
7FFF0E
3FFF0E
1FFF0E
0FFF0E
03FF0E
00070E
00070E
00070E
00070E
00070E
00070E
00070E
00070E
00070E
00070E
00070E
00070E
00070E
00070E
00070E
00070E
00070E
00070E
00070E
ENDCHAR
STARTCHAR periodcentered
ENCODING 183
SWIDTH 600 0
DWIDTH 29 0
BBX 6 7 11 14
BITMAP
78
FC
FC
FC
FC
FC
78
ENDCHAR
STARTCHAR cedilla
ENCODING 184
SWIDTH 600 0
DWIDTH 29 0
BBX 9 12 10 -12
BITMAP
1C00
1C00
3800
3E00
3F00
0780
0780
0380
0780
FF00
FF00
FC00
ENDCHAR
STARTCHAR uni00B9
ENCODING 185
SWIDTH 600 0
DWIDTH 29 0
BBX 9 19 9 15
BITMAP
0780
1F80
3F80
FF80
7780
4780
0780
0780
0780
0780
0780
0780
0780
0780
0780
0780
0780
0780
0780
ENDCHAR
STARTCHAR ordmasculine
ENCODING 186
SWIDTH 600 0
DWIDTH 29 0
BBX 16 15 7 19
BITMAP
07E0
1FF8
3FFC
781E
F00E
F00F
F00F
F00F
F00F
F00F
700E
781E
3FFC
1FF8
07E0
ENDCHAR
STARTCHAR guillemotright
ENCODING 187
SWIDTH 600 0
DWIDTH 29 0
BBX 19 19 5 3
BITMAP
201000
F07800
783C00
783C00
3C1E00
1E0F00
1F0F80
0F87C0
0783C0
03C1E0
0783C0
0F87C0
1F0F80
1E0F00
3C1E00
7C3E00
783C00
F07800
201000
ENDCHAR
STARTCHAR onequarter
ENCODING 188
SWIDTH 600 0
DWIDTH 29 0
BBX 27 34 1 0
BITMAP
07800F00
1F800E00
3F801E00
FF803C00
77803C00
47807800
07807800
0780F000
0780F000
0781E000
0781E000
0783C000
0783C000
07878000
07878000
078F03C0
078F07C0
079E0FC0
079E1FC0
003C1FC0
003C3BC0
007873C0
007873C0
00F0E3C0
00F1C3C0
01E3C3C0
01E383C0
03C7FFE0
03C7FFE0
0787FFE0
078003C0
0F0003C0
0E0003C0
1E0003C0
ENDCHAR
STARTCHAR onehalf
ENCODING 189
SWIDTH 600 0
DWIDTH 29 0
BBX 29 34 0 0
BITMAP
07801E00
1F801C00
3F803C00
FF807800
77807800
4780F000
0780F000
0781E000
0781E000
0783C000
0783C000
07878000
07878000
078F0000
078F0000
079E1F80
079E7FE0
07BCFFE0
07BC60F0
007800F0
007800F0
00F000F0
00F000F0
01E001E0
01E001C0
03C003C0
03C00780
07800F00
07801E00
0F003C00
0F007800
1E00FFF8
1C00FFF8
3C00FFF8
ENDCHAR
STARTCHAR threequarters
ENCODING 190
SWIDTH 600 0
DWIDTH 29 0
BBX 29 34 0 0
BITMAP
1F0003C0
7FC00380
FFE00780
61E00F00
01E00F00
01E01E00
01E01E00
03C03C00
1F803C00
1F807800
03E07800
00F0F000
00F0F000
00F1E000
00F1E000
80F3C0F0
FFE3C1F0
FFC783F0
3F8787F0
000F07F0
000F0EF0
001E1CF0
001E1CF0
003C38F0
003C70F0
0078F0F0
0078E0F0
00F1FFF8
00F1FFF8
01E1FFF8
01E000F0
03C000F0
038000F0
078000F0
ENDCHAR
STARTCHAR questiondown
ENCODING 191
SWIDTH 600 0
DWIDTH 29 0
BBX 21 35 4 -9
BITMAP
003C00
007E00
007E00
007E00
007E00
003C00
001000
000000
000000
000000
003C00
003C00
003C00
003C00
007800
00F800
01F000
07E000
0FC000
1F8000
3F0000
7C0000
780000
F80000
F00000
F00000
F00000
F00000
F80000
FC0010
7E00F0
3FFFF8
1FFFF8
0FFFE0
01FF00
ENDCHAR
STARTCHAR Agrave
ENCODING 192
SWIDTH 600 0
DWIDTH 29 0
BBX 27 45 1 0
BITMAP
01F00000
00F80000
00F80000
007C0000
003C0000
001E0000
000E0000
00070000
00000000
00000000
00000000
001F0000
001F0000
003F8000
003F8000
003F8000
007BC000
007BC000
007BC000
00FBE000
00F1E000
00F1E000
01F1F000
01E0F000
01E0F000
03E0F800
03C07800
03C07800
07C07C00
07C03C00
07803C00
0FFFFE00
0FFFFE00
0FFFFE00
1FFFFF00
1F001F00
1E000F00
3E000F80
3E000F80
3C000780
7C0007C0
7C0007C0
780003C0
F80003E0
F80003E0
ENDCHAR
STARTCHAR Aacute
ENCODING 193
SWIDTH 600 0
DWIDTH 29 0
BBX 27 45 1 0
BITMAP
0000F800
0001F000
0001F000
0003E000
0003C000
00078000
00070000
000E0000
00000000
00000000
00000000
001F0000
001F0000
003F8000
003F8000
003F8000
007BC000
007BC000
007BC000
00FBE000
00F1E000
00F1E000
01F1F000
01E0F000
01E0F000
03E0F800
03C07800
03C07800
07C07C00
07C03C00
07803C00
0FFFFE00
0FFFFE00
0FFFFE00
1FFFFF00
1F001F00
1E000F00
3E000F80
3E000F80
3C000780
7C0007C0
7C0007C0
780003C0
F80003E0
F80003E0
ENDCHAR
STARTCHAR Acircumflex
ENCODING 194
SWIDTH 600 0
DWIDTH 29 0
BBX 27 45 1 0
BITMAP
001F0000
003F8000
003FC000
007BC000
00F9E000
01F0F000
01E07800
03803C00
00000000
00000000
00000000
001F0000
001F0000
003F8000
003F8000
003F8000
007BC000
007BC000
007BC000
00FBE000
00F1E000
00F1E000
01F1F000
01E0F000
01E0F000
03E0F800
03C07800
03C07800
07C07C00
07C03C00
07803C00
0FFFFE00
0FFFFE00
0FFFFE00
1FFFFF00
1F001F00
1E000F00
3E000F80
3E000F80
3C000780
7C0007C0
7C0007C0
780003C0
F80003E0
F80003E0
ENDCHAR
STARTCHAR Atilde
ENCODING 195
SWIDTH 600 0
DWIDTH 29 0
BBX 27 44 1 0
BITMAP
00F01C00
01F81C00
03FE1C00
03FFF800
070FF800
0703F000
0701E000
00000000
00000000
00000000
001F0000
001F0000
003F8000
003F8000
003F8000
007BC000
007BC000
007BC000
00FBE000
00F1E000
00F1E000
01F1F000
01E0F000
01E0F000
03E0F800
03C07800
03C07800
07C07C00
07C03C00
07803C00
0FFFFE00
0FFFFE00
0FFFFE00
1FFFFF00
1F001F00
1E000F00
3E000F80
3E000F80
3C000780
7C0007C0
7C0007C0
780003C0
F80003E0
F80003E0
ENDCHAR
STARTCHAR Adieresis
ENCODING 196
SWIDTH 600 0
DWIDTH 29 0
BBX 27 43 1 0
BITMAP
00E0E000
01E0F000
01F1F000
01E0F000
00E0E000
00000000
00000000
00000000
00000000
001F0000
001F0000
003F8000
003F8000
003F8000
007BC000
007BC000
007BC000
00FBE000
00F1E000
00F1E000
01F1F000
01E0F000
01E0F000
03E0F800
03C07800
03C07800
07C07C00
07C03C00
07803C00
0FFFFE00
0FFFFE00
0FFFFE00
1FFFFF00
1F001F00
1E000F00
3E000F80
3E000F80
3C000780
7C0007C0
7C0007C0
780003C0
F80003E0
F80003E0
ENDCHAR
STARTCHAR Aring
ENCODING 197
SWIDTH 600 0
DWIDTH 29 0
BBX 27 42 1 0
BITMAP
001F0000
007FC000
007BC000
00E0E000
00E0E000
00E0E000
00E0E000
007BC000
007FC000
001F0000
003F8000
003F8000
003F8000
007BC000
007BC000
007BC000
00FBE000
00F1E000
00F1E000
01F1F000
01E0F000
01E0F000
03E0F800
03C07800
03C07800
07C07C00
07C03C00
07803C00
0FFFFE00
0FFFFE00
0FFFFE00
1FFFFF00
1F001F00
1E000F00
3E000F80
3E000F80
3C000780
7C0007C0
7C0007C0
780003C0
F80003E0
F80003E0
ENDCHAR
STARTCHAR AE
ENCODING 198
SWIDTH 600 0
DWIDTH 29 0
BBX 28 34 0 0
BITMAP
00FFFFF0
00FFFFF0
01FFFFF0
01FFFFF0
01E78000
01C78000
03C78000
03C78000
03C78000
03878000
03878000
07878000
07878000
07878000
0707FFE0
0F07FFE0
0F07FFE0
0F07FFE0
0F078000
1E078000
1FFF8000
1FFF8000
1FFF8000
3FFF8000
3C078000
3C078000
3C078000
3C078000
78078000
78078000
7807FFF0
7807FFF0
F007FFF0
F007FFF0
ENDCHAR
STARTCHAR Ccedilla
ENCODING 199
SWIDTH 600 0
DWIDTH 29 0
BBX 25 46 3 -12
BITMAP
001FF800
00FFFF00
01FFFF80
07FFFF00
0FF00F00
1FC00000
1F800000
3F000000
3E000000
7C000000
7C000000
78000000
F8000000
F8000000
F8000000
F8000000
F8000000
F8000000
F8000000
F8000000
F8000000
F8000000
78000000
7C000000
7C000000
7E000000
3E000000
3F000000
1FC00000
0FF00700
07FFFF00
03FFFF00
00FFFF00
001FF800
000E0000
000E0000
001C0000
001F0000
001F8000
0003C000
0003C000
0001C000
0003C000
007F8000
007F8000
007E0000
ENDCHAR
STARTCHAR Egrave
ENCODING 200
SWIDTH 600 0
DWIDTH 29 0
BBX 20 45 5 0
BITMAP
0F8000
07C000
07C000
03E000
01E000
00F000
007000
003800
000000
000000
000000
FFFFF0
FFFFF0
FFFFF0
FFFFF0
F00000
F00000
F00000
F00000
F00000
F00000
F00000
F00000
F00000
F00000
FFFFE0
FFFFE0
FFFFE0
FFFFE0
F00000
F00000
F00000
F00000
F00000
F00000
F00000
F00000
F00000
F00000
F00000
F00000
FFFFF0
FFFFF0
FFFFF0
FFFFF0
ENDCHAR
STARTCHAR Eacute
ENCODING 201
SWIDTH 600 0
DWIDTH 29 0
BBX 20 45 5 0
BITMAP
001F00
003E00
003E00
007C00
007800
00F000
00E000
01C000
000000
000000
000000
FFFFF0
FFFFF0
FFFFF0
FFFFF0
F00000
F00000
F00000
F00000
F00000
F00000
F00000
F00000
F00000
F00000
FFFFE0
FFFFE0
FFFFE0
FFFFE0
F00000
F00000
F00000
F00000
F00000
F00000
F00000
F00000
F00000
F00000
F00000
F00000
FFFFF0
FFFFF0
FFFFF0
FFFFF0
ENDCHAR
STARTCHAR Ecircumflex
ENCODING 202
SWIDTH 600 0
DWIDTH 29 0
BBX 20 45 5 0
BITMAP
00F800
01FC00
01FE00
03DE00
07CF00
0F8780
0F03C0
1C01E0
000000
000000
000000
FFFFF0
FFFFF0
FFFFF0
FFFFF0
F00000
F00000
F00000
F00000
F00000
F00000
F00000
F00000
F00000
F00000
FFFFE0
FFFFE0
FFFFE0
FFFFE0
F00000
F00000
F00000
F00000
F00000
F00000
F00000
F00000
F00000
F00000
F00000
F00000
FFFFF0
FFFFF0
FFFFF0
FFFFF0
ENDCHAR
STARTCHAR Edieresis
ENCODING 203
SWIDTH 600 0
DWIDTH 29 0
BBX 20 43 5 0
BITMAP
070700
0F0780
0F8F80
0F0780
070700
000000
000000
000000
000000
FFFFF0
FFFFF0
FFFFF0
FFFFF0
F00000
F00000
F00000
F00000
F00000
F00000
F00000
F00000
F00000
F00000
FFFFE0
FFFFE0
FFFFE0
FFFFE0
F00000
F00000
F00000
F00000
F00000
F00000
F00000
F00000
F00000
F00000
F00000
F00000
FFFFF0
FFFFF0
FFFFF0
FFFFF0
ENDCHAR
STARTCHAR Igrave
ENCODING 204
SWIDTH 600 0
DWIDTH 29 0
BBX 18 45 5 0
BITMAP
3E0000
1F0000
1F0000
0F8000
078000
03C000
01C000
00E000
000000
000000
000000
FFFFC0
FFFFC0
FFFFC0
01E000
01E000
01E000
01E000
01E000
01E000
01E000
01E000
01E000
01E000
01E000
01E000
01E000
01E000
01E000
01E000
01E000
01E000
01E000
01E000
01E000
01E000
01E000
01E000
01E000
01E000
01E000
01E000
FFFFC0
FFFFC0
FFFFC0
ENDCHAR
STARTCHAR Iacute
ENCODING 205
SWIDTH 600 0
DWIDTH 29 0
BBX 18 45 5 0
BITMAP
000F80
001F00
001F00
003E00
003C00
007800
007000
00E000
000000
000000
000000
FFFFC0
FFFFC0
FFFFC0
01E000
01E000
01E000
01E000
01E000
01E000
01E000
01E000
01E000
01E000
01E000
01E000
01E000
01E000
01E000
01E000
01E000
01E000
01E000
01E000
01E000
01E000
01E000
01E000
01E000
01E000
01E000
01E000
FFFFC0
FFFFC0
FFFFC0
ENDCHAR
STARTCHAR Icircumflex
ENCODING 206
SWIDTH 600 0
DWIDTH 29 0
BBX 18 45 5 0
BITMAP
03E000
07F000
07F800
0F7800
1F3C00
3E1E00
3C0F00
700780
000000
000000
000000
FFFFC0
FFFFC0
FFFFC0
01E000
01E000
01E000
01E000
01E000
01E000
01E000
01E000
01E000
01E000
01E000
01E000
01E000
01E000
01E000
01E000
01E000
01E000
01E000
01E000
01E000
01E000
01E000
01E000
01E000
01E000
01E000
01E000
FFFFC0
FFFFC0
FFFFC0
ENDCHAR
STARTCHAR Idieresis
ENCODING 207
SWIDTH 600 0
DWIDTH 29 0
BBX 18 43 5 0
BITMAP
0E0E00
1E0F00
1F1F00
1E0F00
0E0E00
000000
000000
000000
000000
FFFFC0
FFFFC0
FFFFC0
01E000
01E000
01E000
01E000
01E000
01E000
01E000
01E000
01E000
01E000
01E000
01E000
01E000
01E000
01E000
01E000
01E000
01E000
01E000
01E000
01E000
01E000
01E000
01E000
01E000
01E000
01E000
01E000
FFFFC0
FFFFC0
FFFFC0
ENDCHAR
STARTCHAR Eth
ENCODING 208
SWIDTH 600 0
DWIDTH 29 0
BBX 27 34 0 0
BITMAP
1FFF0000
1FFFE000
1FFFF800
1FFFFC00
1E00FE00
1E003F00
1E001F00
1E000F80
1E000FC0
1E0007C0
1E0007C0
1E0003C0
1E0003E0
1E0003E0
1E0003E0
FFFF03E0
FFFF03E0
FFFF03E0
FFFF03E0
1E0003E0
1E0003E0
1E0003E0
1E0003C0
1E0007C0
1E0007C0
1E000F80
1E000F80
1E001F00
1E007F00
1E01FE00
1FFFFC00
1FFFF000
1FFFC000
1FFE0000
ENDCHAR
STARTCHAR Ntilde
ENCODING 209
SWIDTH 600 0
DWIDTH 29 0
BBX 23 44 3 0
BITMAP
03C070
07E070
0FF870
0FFFE0
1C3FE0
1C0FC0
1C0780
000000
000000
000000
F8001E
FC001E
FC001E
FE001E
FE001E
FF001E
FF001E
F7801E
F7801E
F3C01E
F3C01E
F1E01E
F1E01E
F0F01E
F0F01E
F0781E
F0781E
F03C1E
F03C1E
F01E1E
F01E1E
F00F1E
F00F1E
F0079E
F0079E
F003DE
F003DE
F001FE
F001FE
F000FE
F000FE
F0007E
F0007E
F0003E
ENDCHAR
STARTCHAR Ograve
ENCODING 210
SWIDTH 600 0
DWIDTH 29 0
BBX 25 45 2 0
BITMAP
03E00000
01F00000
01F00000
00F80000
00780000
003C0000
001C0000
000E0000
00000000
00000000
00000000
007F0000
03FFE000
07FFF000
0FFFF800
1F80FC00
3F007C00
3E003E00
7C001E00
7C001F00
7C001F00
78000F00
F8000F80
F8000F80
F8000F80
F8000F80
F8000F80
F8000F80
F8000F80
F8000F80
F8000F80
F8000F80
F8000F80
F8000F80
78000F00
7C001F00
7C001F00
7C001E00
3E003E00
3F007C00
1F80FC00
0FFFF800
07FFF000
03FFE000
007F0000
ENDCHAR
STARTCHAR Oacute
ENCODING 211
SWIDTH 600 0
DWIDTH 29 0
BBX 25 45 2 0
BITMAP
0003E000
0007C000
0007C000
000F8000
000F0000
001E0000
001C0000
00380000
00000000
00000000
00000000
007F0000
03FFE000
07FFF000
0FFFF800
1F80FC00
3F007C00
3E003E00
7C001E00
7C001F00
7C001F00
78000F00
F8000F80
F8000F80
F8000F80
F8000F80
F8000F80
F8000F80
F8000F80
F8000F80
F8000F80
F8000F80
F8000F80
F8000F80
78000F00
7C001F00
7C001F00
7C001E00
3E003E00
3F007C00
1F80FC00
0FFFF800
07FFF000
03FFE000
007F0000
ENDCHAR
STARTCHAR Ocircumflex
ENCODING 212
SWIDTH 600 0
DWIDTH 29 0
BBX 25 45 2 0
BITMAP
003E0000
007F0000
007F8000
00F78000
01F3C000
03E1E000
03C0F000
07007800
00000000
00000000
00000000
007F0000
03FFE000
07FFF000
0FFFF800
1F80FC00
3F007C00
3E003E00
7C001E00
7C001F00
7C001F00
78000F00
F8000F80
F8000F80
F8000F80
F8000F80
F8000F80
F8000F80
F8000F80
F8000F80
F8000F80
F8000F80
F8000F80
F8000F80
78000F00
7C001F00
7C001F00
7C001E00
3E003E00
3F007C00
1F80FC00
0FFFF800
07FFF000
03FFE000
007F0000
ENDCHAR
STARTCHAR Otilde
ENCODING 213
SWIDTH 600 0
DWIDTH 29 0
BBX 25 44 2 0
BITMAP
01E03800
03F03800
07FC3800
07FFF000
0E1FF000
0E07E000
0E03C000
00000000
00000000
00000000
007F0000
03FFE000
07FFF000
0FFFF800
1F80FC00
3F007C00
3E003E00
7C001E00
7C001F00
7C001F00
78000F00
F8000F80
F8000F80
F8000F80
F8000F80
F8000F80
F8000F80
F8000F80
F8000F80
F8000F80
F8000F80
F8000F80
F8000F80
78000F00
7C001F00
7C001F00
7C001E00
3E003E00
3F007C00
1F80FC00
0FFFF800
07FFF000
03FFE000
007F0000
ENDCHAR
STARTCHAR Odieresis
ENCODING 214
SWIDTH 600 0
DWIDTH 29 0
BBX 25 43 2 0
BITMAP
01C1C000
03C1E000
03E3E000
03C1E000
01C1C000
00000000
00000000
00000000
00000000
007F0000
03FFE000
07FFF000
0FFFF800
1F80FC00
3F007C00
3E003E00
7C001E00
7C001F00
7C001F00
78000F00
F8000F80
F8000F80
F8000F80
F8000F80
F8000F80
F8000F80
F8000F80
F8000F80
F8000F80
F8000F80
F8000F80
F8000F80
78000F00
7C001F00
7C001F00
7C001E00
3E003E00
3F007C00
1F80FC00
0FFFF800
07FFF000
03FFE000
007F0000
ENDCHAR
STARTCHAR multiply
ENCODING 215
SWIDTH 600 0
DWIDTH 29 0
BBX 19 19 5 7
BITMAP
6000C0
F001E0
F803E0
7C07C0
3E0F80
1F1F00
0FBE00
07FC00
03F800
01F000
03F800
07FC00
0FBE00
1F1F00
3E0F80
7C07C0
F803E0
F001E0
6000C0
ENDCHAR
STARTCHAR Oslash
ENCODING 216
SWIDTH 600 0
DWIDTH 29 0
BBX 25 36 2 -1
BITMAP
00000200
007F0780
03FFEF80
07FFFF00
0FFFFE00
1F80FE00
3F007C00
3E007E00
7C007E00
7C00FF00
7C01FF00
7801EF00
F803CF80
F807CF80
F8078F80
F80F0F80
F81F0F80
F81E0F80
F83C0F80
F87C0F80
F8780F80
F8F80F80
F8F00F80
F9E00F80
7BE00F00
7BC01F00
7F801F00
7F801E00
3F003E00
3F007C00
3F80FC00
3FFFF800
7FFFF000
7BFFE000
F07F0000
30000000
ENDCHAR
STARTCHAR Ugrave
ENCODING 217
SWIDTH 600 0
DWIDTH 29 0
BBX 23 45 3 0
BITMAP
03E000
01F000
01F000
00F800
007800
003C00
001C00
000E00
000000
000000
000000
F0001E
F0001E
F0001E
F0001E
F0001E
F0001E
F0001E
F0001E
F0001E
F0001E
F0001E
F0001E
F0001E
F0001E
F0001E
F0001E
F0001E
F0001E
F0001E
F0001E
F0001E
F0001E
F0001E
F0003E
F8003E
F8003E
78003C
7C007C
7E00FC
3F01F8
3FFFF0
1FFFE0
07FFC0
01FF00
ENDCHAR
STARTCHAR Uacute
ENCODING 218
SWIDTH 600 0
DWIDTH 29 0
BBX 23 45 3 0
BITMAP
0007C0
000F80
000F80
001F00
001E00
003C00
003800
007000
000000
000000
000000
F0001E
F0001E
F0001E
F0001E
F0001E
F0001E
F0001E
F0001E
F0001E
F0001E
F0001E
F0001E
F0001E
F0001E
F0001E
F0001E
F0001E
F0001E
F0001E
F0001E
F0001E
F0001E
F0001E
F0003E
F8003E
F8003E
78003C
7C007C
7E00FC
3F01F8
3FFFF0
1FFFE0
07FFC0
01FF00
ENDCHAR
STARTCHAR Ucircumflex
ENCODING 219
SWIDTH 600 0
DWIDTH 29 0
BBX 23 45 3 0
BITMAP
007C00
00FE00
00FF00
01EF00
03E780
07C3C0
0781E0
0E00F0
000000
000000
000000
F0001E
F0001E
F0001E
F0001E
F0001E
F0001E
F0001E
F0001E
F0001E
F0001E
F0001E
F0001E
F0001E
F0001E
F0001E
F0001E
F0001E
F0001E
F0001E
F0001E
F0001E
F0001E
F0001E
F0003E
F8003E
F8003E
78003C
7C007C
7E00FC
3F01F8
3FFFF0
1FFFE0
07FFC0
01FF00
ENDCHAR
STARTCHAR Udieresis
ENCODING 220
SWIDTH 600 0
DWIDTH 29 0
BBX 23 43 3 0
BITMAP
038380
0783C0
07C7C0
0783C0
038380
000000
000000
000000
000000
F0001E
F0001E
F0001E
F0001E
F0001E
F0001E
F0001E
F0001E
F0001E
F0001E
F0001E
F0001E
F0001E
F0001E
F0001E
F0001E
F0001E
F0001E
F0001E
F0001E
F0001E
F0001E
F0001E
F0003E
F8003E
F8003E
78003C
7C007C
7E00FC
3F01F8
3FFFF0
1FFFE0
07FFC0
01FF00
ENDCHAR
STARTCHAR Yacute
ENCODING 221
SWIDTH 600 0
DWIDTH 29 0
BBX 27 45 1 0
BITMAP
0001F000
0003E000
0003E000
0007C000
00078000
000F0000
000E0000
001C0000
00000000
00000000
00000000
F80003E0
780007C0
7C0007C0
3C000F80
3E000F80
1E001F00
1F001E00
0F003E00
0F803C00
07807C00
07C07800
03C0F800
01E0F000
01E1F000
00F1E000
00F3C000
007BC000
007F8000
003F8000
003F0000
001F0000
001E0000
001E0000
001E0000
001E0000
001E0000
001E0000
001E0000
001E0000
001E0000
001E0000
001E0000
001E0000
001E0000
ENDCHAR
STARTCHAR Thorn
ENCODING 222
SWIDTH 600 0
DWIDTH 29 0
BBX 22 34 4 0
BITMAP
F00000
F00000
F00000
F00000
F00000
F00000
FFFC00
FFFF80
FFFFE0
FFFFF0
F003F8
F001F8
F000FC
F0007C
F0007C
F0007C
F0007C
F0007C
F0007C
F0007C
F000F8
F001F8
F003F0
FFFFE0
FFFFC0
FFFF80
FFFC00
F00000
F00000
F00000
F00000
F00000
F00000
F00000
ENDCHAR
STARTCHAR germandbls
ENCODING 223
SWIDTH 600 0
DWIDTH 29 0
BBX 23 36 4 0
BITMAP
03FC00
1FFF00
3FFF80
7FFFC0
7C03E0
F803E0
F801E0
F001E0
F003E0
F003C0
F007C0
F00F80
F01F00
F03E00
F07C00
F07800
F07800
F07800
F07C00
F03F00
F03F80
F00FE0
F007F0
F001F8
F000FC
F0007C
F0003E
F0001E
F0001E
F0001E
F0003E
F1807C
F1FFFC
F1FFF8
F1FFF0
F03FC0
ENDCHAR
STARTCHAR agrave
ENCODING 224
SWIDTH 600 0
DWIDTH 29 0
BBX 21 37 3 0
BITMAP
07C000
03E000
03E000
01F000
00F000
007800
003800
001C00
000000
000000
000000
01FE00
0FFFC0
3FFFE0
3FFFF0
1C01F0
0000F8
0000F8
000078
000078
000078
00FFF8
07FFF8
1FFFF8
3FC078
7C0078
F80078
F80078
F000F8
F000F8
F000F8
F801F8
7C03F8
7F3F78
3FFE78
1FFC38
07F038
ENDCHAR
STARTCHAR aacute
ENCODING 225
SWIDTH 600 0
DWIDTH 29 0
BBX 21 37 3 0
BITMAP
0007C0
000F80
000F80
001F00
001E00
003C00
003800
007000
000000
000000
000000
01FE00
0FFFC0
3FFFE0
3FFFF0
1C01F0
0000F8
0000F8
000078
000078
000078
00FFF8
07FFF8
1FFFF8
3FC078
7C0078
F80078
F80078
F000F8
F000F8
F000F8
F801F8
7C03F8
7F3F78
3FFE78
1FFC38
07F038
ENDCHAR
STARTCHAR acircumflex
ENCODING 226
SWIDTH 600 0
DWIDTH 29 0
BBX 21 37 3 0
BITMAP
007C00
00FE00
00FF00
01EF00
03E780
07C3C0
0781E0
0E00F0
000000
000000
000000
01FE00
0FFFC0
3FFFE0
3FFFF0
1C01F0
0000F8
0000F8
000078
000078
000078
00FFF8
07FFF8
1FFFF8
3FC078
7C0078
F80078
F80078
F000F8
F000F8
F000F8
F801F8
7C03F8
7F3F78
3FFE78
1FFC38
07F038
ENDCHAR
STARTCHAR atilde
ENCODING 227
SWIDTH 600 0
DWIDTH 29 0
BBX 21 36 3 0
BITMAP
03C070
07E070
0FF870
0FFFE0
1C3FE0
1C0FC0
1C0780
000000
000000
000000
01FE00
0FFFC0
3FFFE0
3FFFF0
1C01F0
0000F8
0000F8
000078
000078
000078
00FFF8
07FFF8
1FFFF8
3FC078
7C0078
F80078
F80078
F000F8
F000F8
F000F8
F801F8
7C03F8
7F3F78
3FFE78
1FFC38
07F038
ENDCHAR
STARTCHAR adieresis
ENCODING 228
SWIDTH 600 0
DWIDTH 29 0
BBX 21 35 3 0
BITMAP
038380
0783C0
07C7C0
0783C0
038380
000000
000000
000000
000000
01FE00
0FFFC0
3FFFE0
3FFFF0
1C01F0
0000F8
0000F8
000078
000078
000078
00FFF8
07FFF8
1FFFF8
3FC078
7C0078
F80078
F80078
F000F8
F000F8
F000F8
F801F8
7C03F8
7F3F78
3FFE78
1FFC38
07F038
ENDCHAR
STARTCHAR aring
ENCODING 229
SWIDTH 600 0
DWIDTH 29 0
BBX 21 39 3 0
BITMAP
007C00
01FF00
01EF00
038380
038380
038380
038380
01EF00
01FF00
007C00
000000
000000
000000
01FE00
0FFFC0
3FFFE0
3FFFF0
1C01F0
0000F8
0000F8
000078
000078
000078
00FFF8
07FFF8
1FFFF8
3FC078
7C0078
F80078
F80078
F000F8
F000F8
F000F8
F801F8
7C03F8
7F3F78
3FFE78
1FFC38
07F038
ENDCHAR
STARTCHAR ae
ENCODING 230
SWIDTH 600 0
DWIDTH 29 0
BBX 27 26 1 0
BITMAP
07E07C00
1FF0FF00
3FF9FF80
3FFFFF80
103F87C0
001F03C0
001F03C0
001F01E0
001E01E0
001E01E0
07FFFFE0
1FFFFFE0
3FFFFFE0
7E1FFFE0
7C1E0000
F81E0000
F01F0000
F01F0000
F01F0000
F03F0000
F83F8000
F87FC0C0
7FF3FFC0
7FE1FFC0
3FC0FFC0
0F803F00
ENDCHAR
STARTCHAR ccedilla
ENCODING 231
SWIDTH 600 0
DWIDTH 29 0
BBX 21 38 4 -12
BITMAP
007FC0
03FFF8
0FFFF8
1FFFF0
3F8030
3E0000
7C0000
7C0000
780000
F80000
F80000
F00000
F00000
F00000
F00000
F80000
F80000
F80000
7C0000
7C0000
3E0000
3F8018
1FFFF8
0FFFF8
03FFF8
007FC0
003800
003800
007000
007C00
007E00
000F00
000F00
000700
000F00
01FE00
01FE00
01F800
ENDCHAR
STARTCHAR egrave
ENCODING 232
SWIDTH 600 0
DWIDTH 29 0
BBX 23 37 3 0
BITMAP
03E000
01F000
01F000
00F800
007800
003C00
001C00
000E00
000000
000000
000000
00FF00
03FFC0
0FFFE0
1FFFF0
3F00F8
3C007C
7C003C
78003E
78003E
F8001E
FFFFFE
FFFFFE
FFFFFE
FFFFFE
F00000
F80000
F80000
780000
780000
7C0000
3E0000
3F801C
1FFFFC
07FFFC
03FFF8
007FC0
ENDCHAR
STARTCHAR eacute
ENCODING 233
SWIDTH 600 0
DWIDTH 29 0
BBX 23 37 3 0
BITMAP
0007C0
000F80
000F80
001F00
001E00
003C00
003800
007000
000000
000000
000000
00FF00
03FFC0
0FFFE0
1FFFF0
3F00F8
3C007C
7C003C
78003E
78003E
F8001E
FFFFFE
FFFFFE
FFFFFE
FFFFFE
F00000
F80000
F80000
780000
780000
7C0000
3E0000
3F801C
1FFFFC
07FFFC
03FFF8
007FC0
ENDCHAR
STARTCHAR ecircumflex
ENCODING 234
SWIDTH 600 0
DWIDTH 29 0
BBX 23 37 3 0
BITMAP
007C00
00FE00
00FF00
01EF00
03E780
07C3C0
0781E0
0E00F0
000000
000000
000000
00FF00
03FFC0
0FFFE0
1FFFF0
3F00F8
3C007C
7C003C
78003E
78003E
F8001E
FFFFFE
FFFFFE
FFFFFE
FFFFFE
F00000
F80000
F80000
780000
780000
7C0000
3E0000
3F801C
1FFFFC
07FFFC
03FFF8
007FC0
ENDCHAR
STARTCHAR edieresis
ENCODING 235
SWIDTH 600 0
DWIDTH 29 0
BBX 23 35 3 0
BITMAP
01C1C0
03C1E0
03E3E0
03C1E0
01C1C0
000000
000000
000000
000000
00FF00
03FFC0
0FFFE0
1FFFF0
3F00F8
3C007C
7C003C
78003E
78003E
F8001E
FFFFFE
FFFFFE
FFFFFE
FFFFFE
F00000
F80000
F80000
780000
780000
7C0000
3E0000
3F801C
1FFFFC
07FFFC
03FFF8
007FC0
ENDCHAR
STARTCHAR igrave
ENCODING 236
SWIDTH 600 0
DWIDTH 29 0
BBX 21 37 5 0
BITMAP
1F0000
0F8000
0F8000
07C000
03C000
01E000
00E000
007000
000000
000000
000000
3FF000
3FF000
3FF000
00F000
00F000
00F000
00F000
00F000
00F000
00F000
00F000
00F000
00F000
00F000
00F000
00F000
00F000
00F000
00F000
00F000
00F000
00F000
00F000
FFFFF8
FFFFF8
FFFFF8
ENDCHAR
STARTCHAR iacute
ENCODING 237
SWIDTH 600 0
DWIDTH 29 0
BBX 21 37 5 0
BITMAP
000F80
001F00
001F00
003E00
003C00
007800
007000
00E000
000000
000000
000000
3FF000
3FF000
3FF000
00F000
00F000
00F000
00F000
00F000
00F000
00F000
00F000
00F000
00F000
00F000
00F000
00F000
00F000
00F000
00F000
00F000
00F000
00F000
00F000
FFFFF8
FFFFF8
FFFFF8
ENDCHAR
STARTCHAR icircumflex
ENCODING 238
SWIDTH 600 0
DWIDTH 29 0
BBX 21 37 5 0
BITMAP
01F000
03F800
03FC00
07BC00
0F9E00
1F0F00
1E0780
3803C0
000000
000000
000000
3FF000
3FF000
3FF000
00F000
00F000
00F000
00F000
00F000
00F000
00F000
00F000
00F000
00F000
00F000
00F000
00F000
00F000
00F000
00F000
00F000
00F000
00F000
00F000
FFFFF8
FFFFF8
FFFFF8
ENDCHAR
STARTCHAR idieresis
ENCODING 239
SWIDTH 600 0
DWIDTH 29 0
BBX 21 35 5 0
BITMAP
0E0E00
1E0F00
1F1F00
1E0F00
0E0E00
000000
000000
000000
000000
3FF000
3FF000
3FF000
00F000
00F000
00F000
00F000
00F000
00F000
00F000
00F000
00F000
00F000
00F000
00F000
00F000
00F000
00F000
00F000
00F000
00F000
00F000
00F000
FFFFF8
FFFFF8
FFFFF8
ENDCHAR
STARTCHAR eth
ENCODING 240
SWIDTH 600 0
DWIDTH 29 0
BBX 23 36 3 0
BITMAP
018020
01C0E0
03F1F0
01FFE0
007F80
003F00
00FF80
03F7C0
07E3C0
0381E0
0201F0
0000F0
000078
000078
01FE3C
07FFBC
1FFFFC
3FFFFE
3E01FE
7C007E
78003E
F8003E
F8003E
F8001E
F0001E
F0003E
F0003E
F8003C
F8003C
78007C
7C0078
3E00F8
1FFFF0
0FFFE0
07FFC0
01FE00
ENDCHAR
STARTCHAR ntilde
ENCODING 241
SWIDTH 600 0
DWIDTH 29 0
BBX 21 36 4 0
BITMAP
0780E0
0FC0E0
1FF0E0
1FFFC0
387FC0
381F80
380F00
000000
000000
000000
F07F00
F1FFC0
F7FFE0
F7FFF0
FE01F0
FC00F8
FC00F8
F80078
F80078
F80078
F00078
F00078
F00078
F00078
F00078
F00078
F00078
F00078
F00078
F00078
F00078
F00078
F00078
F00078
F00078
F00078
ENDCHAR
STARTCHAR ograve
ENCODING 242
SWIDTH 600 0
DWIDTH 29 0
BBX 23 37 3 0
BITMAP
03E000
01F000
01F000
00F800
007800
003C00
001C00
000E00
000000
000000
000000
00FE00
03FF80
0FFFE0
1FFFF0
3F01F8
3C00F8
7C007C
78003C
F8003C
F8003E
F8003E
F0001E
F0001E
F0001E
F0001E
F8003E
F8003E
78003C
78003C
7C007C
3E00F8
3F01F8
1FFFF0
0FFFE0
03FF80
00FE00
ENDCHAR
STARTCHAR oacute
ENCODING 243
SWIDTH 600 0
DWIDTH 29 0
BBX 23 37 3 0
BITMAP
0007C0
000F80
000F80
001F00
001E00
003C00
003800
007000
000000
000000
000000
00FE00
03FF80
0FFFE0
1FFFF0
3F01F8
3C00F8
7C007C
78003C
F8003C
F8003E
F8003E
F0001E
F0001E
F0001E
F0001E
F8003E
F8003E
78003C
78003C
7C007C
3E00F8
3F01F8
1FFFF0
0FFFE0
03FF80
00FE00
ENDCHAR
STARTCHAR ocircumflex
ENCODING 244
SWIDTH 600 0
DWIDTH 29 0
BBX 23 37 3 0
BITMAP
007C00
00FE00
00FF00
01EF00
03E780
07C3C0
0781E0
0E00F0
000000
000000
000000
00FE00
03FF80
0FFFE0
1FFFF0
3F01F8
3C00F8
7C007C
78003C
F8003C
F8003E
F8003E
F0001E
F0001E
F0001E
F0001E
F8003E
F8003E
78003C
78003C
7C007C
3E00F8
3F01F8
1FFFF0
0FFFE0
03FF80
00FE00
ENDCHAR
STARTCHAR otilde
ENCODING 245
SWIDTH 600 0
DWIDTH 29 0
BBX 23 36 3 0
BITMAP
03C070
07E070
0FF870
0FFFE0
1C3FE0
1C0FC0
1C0780
000000
000000
000000
00FE00
03FF80
0FFFE0
1FFFF0
3F01F8
3C00F8
7C007C
78003C
F8003C
F8003E
F8003E
F0001E
F0001E
F0001E
F0001E
F8003E
F8003E
78003C
78003C
7C007C
3E00F8
3F01F8
1FFFF0
0FFFE0
03FF80
00FE00
ENDCHAR
STARTCHAR odieresis
ENCODING 246
SWIDTH 600 0
DWIDTH 29 0
BBX 23 35 3 0
BITMAP
038380
0783C0
07C7C0
0783C0
038380
000000
000000
000000
000000
00FE00
03FF80
0FFFE0
1FFFF0
3F01F8
3C00F8
7C007C
78003C
F8003C
F8003E
F8003E
F0001E
F0001E
F0001E
F0001E
F8003E
F8003E
78003C
78003C
7C007C
3E00F8
3F01F8
1FFFF0
0FFFE0
03FF80
00FE00
ENDCHAR
STARTCHAR divide
ENCODING 247
SWIDTH 600 0
DWIDTH 29 0
BBX 22 22 4 6
BITMAP
007000
00F800
00F800
00F800
00F800
007000
000000
000000
000000
FFFFFC
FFFFFC
FFFFFC
FFFFFC
000000
000000
000000
007000
00F800
00F800
00F800
00F800
007000
ENDCHAR
STARTCHAR oslash
ENCODING 248
SWIDTH 600 0
DWIDTH 29 0
BBX 23 28 3 -1
BITMAP
000030
00FE7C
07FFF8
0FFFF0
1FFFF0
3E01F8
3C03F8
7C03FC
7807BC
F80F3C
F80F3E
F81E3E
F03E1E
F03C1E
F0781E
F0781E
F8F03E
F9E03E
79E03C
7BC03C
7FC07C
3F8078
3F01F8
1FFFF0
1FFFE0
3FFF80
7CFE00
180000
ENDCHAR
STARTCHAR ugrave
ENCODING 249
SWIDTH 600 0
DWIDTH 29 0
BBX 21 37 4 0
BITMAP
0F8000
07C000
07C000
03E000
01E000
00F000
007000
003800
000000
000000
000000
F00078
F00078
F00078
F00078
F00078
F00078
F00078
F00078
F00078
F00078
F00078
F00078
F00078
F00078
F00078
F00078
F000F8
F000F8
F000F8
F800F8
F801F8
7C03F8
7FFF78
3FFF78
1FFC78
07F078
ENDCHAR
STARTCHAR uacute
ENCODING 250
SWIDTH 600 0
DWIDTH 29 0
BBX 21 37 4 0
BITMAP
000F80
001F00
001F00
003E00
003C00
007800
007000
00E000
000000
000000
000000
F00078
F00078
F00078
F00078
F00078
F00078
F00078
F00078
F00078
F00078
F00078
F00078
F00078
F00078
F00078
F00078
F000F8
F000F8
F000F8
F800F8
F801F8
7C03F8
7FFF78
3FFF78
1FFC78
07F078
ENDCHAR
STARTCHAR ucircumflex
ENCODING 251
SWIDTH 600 0
DWIDTH 29 0
BBX 21 37 4 0
BITMAP
00F800
01FC00
01FE00
03DE00
07CF00
0F8780
0F03C0
1C01E0
000000
000000
000000
F00078
F00078
F00078
F00078
F00078
F00078
F00078
F00078
F00078
F00078
F00078
F00078
F00078
F00078
F00078
F00078
F000F8
F000F8
F000F8
F800F8
F801F8
7C03F8
7FFF78
3FFF78
1FFC78
07F078
ENDCHAR
STARTCHAR udieresis
ENCODING 252
SWIDTH 600 0
DWIDTH 29 0
BBX 21 35 4 0
BITMAP
070700
0F0780
0F8F80
0F0780
070700
000000
000000
000000
000000
F00078
F00078
F00078
F00078
F00078
F00078
F00078
F00078
F00078
F00078
F00078
F00078
F00078
F00078
F00078
F00078
F000F8
F000F8
F000F8
F800F8
F801F8
7C03F8
7FFF78
3FFF78
1FFC78
07F078
ENDCHAR
STARTCHAR yacute
ENCODING 253
SWIDTH 600 0
DWIDTH 29 0
BBX 25 49 2 -12
BITMAP
0003E000
0007C000
0007C000
000F8000
000F0000
001E0000
001C0000
00380000
00000000
00000000
00000000
F8000F80
78000F00
78000F00
7C001F00
3C001E00
3E003E00
1E003E00
1E003C00
1F007C00
0F007800
0F807800
0780F800
0780F000
07C1F000
03C1E000
03E1E000
01E3E000
01E3C000
00F3C000
00F7C000
00F78000
00778000
007F0000
003F0000
003F0000
003E0000
003E0000
003C0000
003C0000
007C0000
00780000
00F80000
00F00000
01F00000
FFE00000
FFC00000
FF800000
FE000000
ENDCHAR
STARTCHAR thorn
ENCODING 254
SWIDTH 600 0
DWIDTH 29 0
BBX 22 48 4 -12
BITMAP
F00000
F00000
F00000
F00000
F00000
F00000
F00000
F00000
F00000
F00000
F07E00
F1FF80
F7FFC0
F7FFE0
FE01F0
FC00F8
F800F8
F80078
F8007C
F0007C
F0007C
F0003C
F0003C
F0003C
F0003C
F0007C
F8007C
F8007C
F80078
F800F8
FC00F8
FE01F0
FFFFE0
F7FFC0
F1FF80
F0FE00
F00000
F00000
F00000
F00000
F00000
F00000
F00000
F00000
F00000
F00000
F00000
F00000
ENDCHAR
STARTCHAR ydieresis
ENCODING 255
SWIDTH 600 0
DWIDTH 29 0
BBX 25 47 2 -12
BITMAP
01C1C000
03C1E000
03E3E000
03C1E000
01C1C000
00000000
00000000
00000000
00000000
F8000F80
78000F00
78000F00
7C001F00
3C001E00
3E003E00
1E003E00
1E003C00
1F007C00
0F007800
0F807800
0780F800
0780F000
07C1F000
03C1E000
03E1E000
01E3E000
01E3C000
00F3C000
00F7C000
00F78000
00778000
007F0000
003F0000
003F0000
003E0000
003E0000
003C0000
003C0000
007C0000
00780000
00F80000
00F00000
01F00000
FFE00000
FFC00000
FF800000
FE000000
ENDCHAR
STARTCHAR .notdef
ENCODING -1
SWIDTH 600 0
DWIDTH 29 0
BBX 19 34 5 0
BITMAP
FFFFE0
FFFFE0
C00060
C00060
C00060
C00060
C00060
C00060
C00060
C00060
C00060
C00060
C00060
C00060
C00060
C00060
C00060
C00060
C00060
C00060
C00060
C00060
C00060
C00060
C00060
C00060
C00060
C00060
C00060
C00060
C00060
C00060
FFFFE0
FFFFE0
ENDCHAR
STARTCHAR Amacron
ENCODING -1
SWIDTH 600 0
DWIDTH 29 0
BBX 27 41 1 0
BITMAP
01FFF000
01FFF000
01FFF000
01FFF000
00000000
00000000
00000000
001F0000
001F0000
003F8000
003F8000
003F8000
007BC000
007BC000
007BC000
00FBE000
00F1E000
00F1E000
01F1F000
01E0F000
01E0F000
03E0F800
03C07800
03C07800
07C07C00
07C03C00
07803C00
0FFFFE00
0FFFFE00
0FFFFE00
1FFFFF00
1F001F00
1E000F00
3E000F80
3E000F80
3C000780
7C0007C0
7C0007C0
780003C0
F80003E0
F80003E0
ENDCHAR
STARTCHAR amacron
ENCODING -1
SWIDTH 600 0
DWIDTH 29 0
BBX 21 33 3 0
BITMAP
07FFC0
07FFC0
07FFC0
07FFC0
000000
000000
000000
01FE00
0FFFC0
3FFFE0
3FFFF0
1C01F0
0000F8
0000F8
000078
000078
000078
00FFF8
07FFF8
1FFFF8
3FC078
7C0078
F80078
F80078
F000F8
F000F8
F000F8
F801F8
7C03F8
7F3F78
3FFE78
1FFC38
07F038
ENDCHAR
STARTCHAR Abreve
ENCODING -1
SWIDTH 600 0
DWIDTH 29 0
BBX 27 44 1 0
BITMAP
01C03800
01C03800
01C07800
00FFF000
00FFE000
007FC000
001F8000
00000000
00000000
00000000
001F0000
001F0000
003F8000
003F8000
003F8000
007BC000
007BC000
007BC000
00FBE000
00F1E000
00F1E000
01F1F000
01E0F000
01E0F000
03E0F800
03C07800
03C07800
07C07C00
07C03C00
07803C00
0FFFFE00
0FFFFE00
0FFFFE00
1FFFFF00
1F001F00
1E000F00
3E000F80
3E000F80
3C000780
7C0007C0
7C0007C0
780003C0
F80003E0
F80003E0
ENDCHAR
STARTCHAR abreve
ENCODING -1
SWIDTH 600 0
DWIDTH 29 0
BBX 21 36 3 0
BITMAP
0E01C0
0E01C0
0E03C0
07FF80
07FF00
03FE00
00FC00
000000
000000
000000
01FE00
0FFFC0
3FFFE0
3FFFF0
1C01F0
0000F8
0000F8
000078
000078
000078
00FFF8
07FFF8
1FFFF8
3FC078
7C0078
F80078
F80078
F000F8
F000F8
F000F8
F801F8
7C03F8
7F3F78
3FFE78
1FFC38
07F038
ENDCHAR
STARTCHAR Aogonek
ENCODING -1
SWIDTH 600 0
DWIDTH 29 0
BBX 28 45 1 -11
BITMAP
001F0000
001F0000
003F8000
003F8000
003F8000
007BC000
007BC000
007BC000
00FBE000
00F1E000
00F1E000
01F1F000
01E0F000
01E0F000
03E0F800
03C07800
03C07800
07C07C00
07C03C00
07803C00
0FFFFE00
0FFFFE00
0FFFFE00
1FFFFF00
1F001F00
1E000F00
3E000F80
3E000F80
3C000780
7C0007C0
7C0007C0
780003C0
F80003E0
F80003E0
000003C0
00000780
00000F00
00000E00
00001E00
00001C00
00001C00
00001E00
00000FF0
00000FF0
000003F0
ENDCHAR
STARTCHAR aogonek
ENCODING -1
SWIDTH 600 0
DWIDTH 29 0
BBX 23 37 3 -11
BITMAP
01FE00
0FFFC0
3FFFE0
3FFFF0
1C01F0
0000F8
0000F8
000078
000078
000078
00FFF8
07FFF8
1FFFF8
3FC078
7C0078
F80078
F80078
F000F8
F000F8
F000F8
F801F8
7C03F8
7F3F78
3FFE78
1FFC38
07F038
000078
0000F0
0001E0
0001C0
0003C0
000380
000380
0003C0
0001FE
0001FE
00007E
ENDCHAR
STARTCHAR Cacute
ENCODING -1
SWIDTH 600 0
DWIDTH 29 0
BBX 25 45 3 0
BITMAP
00007C00
0000F800
0000F800
0001F000
0001E000
0003C000
00038000
00070000
00000000
00000000
00000000
001FF800
00FFFF00
01FFFF80
07FFFF00
0FF00F00
1FC00000
1F800000
3F000000
3E000000
7C000000
7C000000
78000000
F8000000
F8000000
F8000000
F8000000
F8000000
F8000000
F8000000
F8000000
F8000000
F8000000
78000000
7C000000
7C000000
7E000000
3E000000
3F000000
1FC00000
0FF00700
07FFFF00
03FFFF00
00FFFF00
001FF800
ENDCHAR
STARTCHAR cacute
ENCODING -1
SWIDTH 600 0
DWIDTH 29 0
BBX 21 37 4 0
BITMAP
0003E0
0007C0
0007C0
000F80
000F00
001E00
001C00
003800
000000
000000
000000
007FC0
03FFF8
0FFFF8
1FFFF0
3F8030
3E0000
7C0000
7C0000
780000
F80000
F80000
F00000
F00000
F00000
F00000
F80000
F80000
F80000
7C0000
7C0000
3E0000
3F8018
1FFFF8
0FFFF8
03FFF8
007FC0
ENDCHAR
STARTCHAR Ccircumflex
ENCODING -1
SWIDTH 600 0
DWIDTH 29 0
BBX 25 45 3 0
BITMAP
0007C000
000FE000
000FF000
001EF000
003E7800
007C3C00
00781E00
00E00F00
00000000
00000000
00000000
001FF800
00FFFF00
01FFFF80
07FFFF00
0FF00F00
1FC00000
1F800000
3F000000
3E000000
7C000000
7C000000
78000000
F8000000
F8000000
F8000000
F8000000
F8000000
F8000000
F8000000
F8000000
F8000000
F8000000
78000000
7C000000
7C000000
7E000000
3E000000
3F000000
1FC00000
0FF00700
07FFFF00
03FFFF00
00FFFF00
001FF800
ENDCHAR
STARTCHAR ccircumflex
ENCODING -1
SWIDTH 600 0
DWIDTH 29 0
BBX 21 37 4 0
BITMAP
003E00
007F00
007F80
00F780
01F3C0
03E1E0
03C0F0
070078
000000
000000
000000
007FC0
03FFF8
0FFFF8
1FFFF0
3F8030
3E0000
7C0000
7C0000
780000
F80000
F80000
F00000
F00000
F00000
F00000
F80000
F80000
F80000
7C0000
7C0000
3E0000
3F8018
1FFFF8
0FFFF8
03FFF8
007FC0
ENDCHAR
STARTCHAR Cdotaccent
ENCODING -1
SWIDTH 600 0
DWIDTH 29 0
BBX 25 43 3 0
BITMAP
00038000
0003C000
0003C000
0003C000
00038000
00000000
00000000
00000000
00000000
001FF800
00FFFF00
01FFFF80
07FFFF00
0FF00F00
1FC00000
1F800000
3F000000
3E000000
7C000000
7C000000
78000000
F8000000
F8000000
F8000000
F8000000
F8000000
F8000000
F8000000
F8000000
F8000000
F8000000
78000000
7C000000
7C000000
7E000000
3E000000
3F000000
1FC00000
0FF00700
07FFFF00
03FFFF00
00FFFF00
001FF800
ENDCHAR
STARTCHAR cdotaccent
ENCODING -1
SWIDTH 600 0
DWIDTH 29 0
BBX 21 35 4 0
BITMAP
001C00
001E00
001E00
001E00
001C00
000000
000000
000000
000000
007FC0
03FFF8
0FFFF8
1FFFF0
3F8030
3E0000
7C0000
7C0000
780000
F80000
F80000
F00000
F00000
F00000
F00000
F80000
F80000
F80000
7C0000
7C0000
3E0000
3F8018
1FFFF8
0FFFF8
03FFF8
007FC0
ENDCHAR
STARTCHAR Ccaron
ENCODING -1
SWIDTH 600 0
DWIDTH 29 0
BBX 25 45 3 0
BITMAP
01C01E00
00F03C00
00F87800
007CF000
003DE000
001FE000
001FC000
000F8000
00000000
00000000
00000000
001FF800
00FFFF00
01FFFF80
07FFFF00
0FF00F00
1FC00000
1F800000
3F000000
3E000000
7C000000
7C000000
78000000
F8000000
F8000000
F8000000
F8000000
F8000000
F8000000
F8000000
F8000000
F8000000
F8000000
78000000
7C000000
7C000000
7E000000
3E000000
3F000000
1FC00000
0FF00700
07FFFF00
03FFFF00
00FFFF00
001FF800
ENDCHAR
STARTCHAR ccaron
ENCODING -1
SWIDTH 600 0
DWIDTH 29 0
BBX 21 37 4 0
BITMAP
070078
03C0F0
03E1E0
01F3C0
00F780
007F80
007F00
003E00
000000
000000
000000
007FC0
03FFF8
0FFFF8
1FFFF0
3F8030
3E0000
7C0000
7C0000
780000
F80000
F80000
F00000
F00000
F00000
F00000
F80000
F80000
F80000
7C0000
7C0000
3E0000
3F8018
1FFFF8
0FFFF8
03FFF8
007FC0
ENDCHAR
STARTCHAR Dcaron
ENCODING -1
SWIDTH 600 0
DWIDTH 29 0
BBX 24 45 3 0
BITMAP
1C01E0
0F03C0
0F8780
07CF00
03DE00
01FE00
01FC00
00F800
000000
000000
000000
FFF800
FFFF00
FFFFC0
FFFFE0
F007F0
F001F8
F000F8
F0007C
F0007E
F0003E
F0003E
F0001E
F0001F
F0001F
F0001F
F0001F
F0001F
F0001F
F0001F
F0001F
F0001F
F0001F
F0001E
F0003E
F0003E
F0007C
F0007C
F000F8
F003F8
F00FF0
FFFFE0
FFFF80
FFFE00
FFF000
ENDCHAR
STARTCHAR dcaron
ENCODING -1
SWIDTH 600 0
DWIDTH 29 0
BBX 29 36 2 0
BITMAP
00003CF8
00003CF8
00003CF0
00003CF0
00003CE0
00003DE0
00003DC0
00003DC0
00003C00
00003C00
01F83C00
07FE3C00
0FFFBC00
1FFFFC00
3E01FC00
7C00FC00
7C007C00
78007C00
F8007C00
F8007C00
F8003C00
F0003C00
F0003C00
F0003C00
F0003C00
F8003C00
F8003C00
F8007C00
78007C00
7C007C00
7C00FC00
3E01FC00
1FFFBC00
1FFFBC00
07FE3C00
01F83C00
ENDCHAR
STARTCHAR Dcroat
ENCODING -1
SWIDTH 600 0
DWIDTH 29 0
BBX 27 34 0 0
BITMAP
1FFF0000
1FFFE000
1FFFF800
1FFFFC00
1E00FE00
1E003F00
1E001F00
1E000F80
1E000FC0
1E0007C0
1E0007C0
1E0003C0
1E0003E0
1E0003E0
1E0003E0
FFFF03E0
FFFF03E0
FFFF03E0
FFFF03E0
1E0003E0
1E0003E0
1E0003E0
1E0003C0
1E0007C0
1E0007C0
1E000F80
1E000F80
1E001F00
1E007F00
1E01FE00
1FFFFC00
1FFFF000
1FFFC000
1FFE0000
ENDCHAR
STARTCHAR dcroat
ENCODING -1
SWIDTH 600 0
DWIDTH 29 0
BBX 26 36 3 0
BITMAP
00003C00
00003C00
00003C00
00003C00
007FFFC0
007FFFC0
007FFFC0
00003C00
00003C00
00003C00
00003C00
01FC3C00
07FE3C00
1FFFBC00
1FFFFC00
3E01FC00
7C00FC00
7C007C00
78007C00
F8007C00
F8003C00
F8003C00
F0003C00
F0003C00
F0003C00
F0003C00
F8003C00
F8007C00
78007C00
7C007C00
7C00FC00
3E01FC00
1FFFFC00
1FFFBC00
07FF3C00
01FC3C00
ENDCHAR
STARTCHAR Emacron
ENCODING -1
SWIDTH 600 0
DWIDTH 29 0
BBX 20 41 5 0
BITMAP
1FFF00
1FFF00
1FFF00
1FFF00
000000
000000
000000
FFFFF0
FFFFF0
FFFFF0
FFFFF0
F00000
F00000
F00000
F00000
F00000
F00000
F00000
F00000
F00000
F00000
FFFFE0
FFFFE0
FFFFE0
FFFFE0
F00000
F00000
F00000
F00000
F00000
F00000
F00000
F00000
F00000
F00000
F00000
F00000
FFFFF0
FFFFF0
FFFFF0
FFFFF0
ENDCHAR
STARTCHAR emacron
ENCODING -1
SWIDTH 600 0
DWIDTH 29 0
BBX 23 33 3 0
BITMAP
03FFE0
03FFE0
03FFE0
03FFE0
000000
000000
000000
00FF00
03FFC0
0FFFE0
1FFFF0
3F00F8
3C007C
7C003C
78003E
78003E
F8001E
FFFFFE
FFFFFE
FFFFFE
FFFFFE
F00000
F80000
F80000
780000
780000
7C0000
3E0000
3F801C
1FFFFC
07FFFC
03FFF8
007FC0
ENDCHAR
STARTCHAR Ebreve
ENCODING -1
SWIDTH 600 0
DWIDTH 29 0
BBX 20 44 5 0
BITMAP
1C0380
1C0380
1C0780
0FFF00
0FFE00
07FC00
01F800
000000
000000
000000
FFFFF0
FFFFF0
FFFFF0
FFFFF0
F00000
F00000
F00000
F00000
F00000
F00000
F00000
F00000
F00000
F00000
FFFFE0
FFFFE0
FFFFE0
FFFFE0
F00000
F00000
F00000
F00000
F00000
F00000
F00000
F00000
F00000
F00000
F00000
F00000
FFFFF0
FFFFF0
FFFFF0
FFFFF0
ENDCHAR
STARTCHAR ebreve
ENCODING -1
SWIDTH 600 0
DWIDTH 29 0
BBX 23 36 3 0
BITMAP
0700E0
0700E0
0701E0
03FFC0
03FF80
01FF00
007E00
000000
000000
000000
00FF00
03FFC0
0FFFE0
1FFFF0
3F00F8
3C007C
7C003C
78003E
78003E
F8001E
FFFFFE
FFFFFE
FFFFFE
FFFFFE
F00000
F80000
F80000
780000
780000
7C0000
3E0000
3F801C
1FFFFC
07FFFC
03FFF8
007FC0
ENDCHAR
STARTCHAR Edotaccent
ENCODING -1
SWIDTH 600 0
DWIDTH 29 0
BBX 20 42 5 0
BITMAP
007000
007800
007800
007800
007000
000000
000000
000000
FFFFF0
FFFFF0
FFFFF0
FFFFF0
F00000
F00000
F00000
F00000
F00000
F00000
F00000
F00000
F00000
F00000
FFFFE0
FFFFE0
FFFFE0
FFFFE0
F00000
F00000
F00000
F00000
F00000
F00000
F00000
F00000
F00000
F00000
F00000
F00000
FFFFF0
FFFFF0
FFFFF0
FFFFF0
ENDCHAR
STARTCHAR edotaccent
ENCODING -1
SWIDTH 600 0
DWIDTH 29 0
BBX 23 35 3 0
BITMAP
003800
003C00
003C00
003C00
003800
000000
000000
000000
000000
00FF00
03FFC0
0FFFE0
1FFFF0
3F00F8
3C007C
7C003C
78003E
78003E
F8001E
FFFFFE
FFFFFE
FFFFFE
FFFFFE
F00000
F80000
F80000
780000
780000
7C0000
3E0000
3F801C
1FFFFC
07FFFC
03FFF8
007FC0
ENDCHAR
STARTCHAR Eogonek
ENCODING -1
SWIDTH 600 0
DWIDTH 29 0
BBX 20 45 5 -11
BITMAP
FFFFF0
FFFFF0
FFFFF0
FFFFF0
F00000
F00000
F00000
F00000
F00000
F00000
F00000
F00000
F00000
F00000
FFFFE0
FFFFE0
FFFFE0
FFFFE0
F00000
F00000
F00000
F00000
F00000
F00000
F00000
F00000
F00000
F00000
F00000
F00000
FFFFF0
FFFFF0
FFFFF0
FFFFF0
000780
000F00
001E00
001C00
003C00
003800
003800
003C00
001FE0
001FE0
0007E0
ENDCHAR
STARTCHAR eogonek
ENCODING -1
SWIDTH 600 0
DWIDTH 29 0
BBX 23 36 3 -10
BITMAP
00FF00
03FFC0
0FFFE0
1FFFF0
3F00F8
3C007C
7C003C
78003E
78003E
F8001E
FFFFFE
FFFFFE
FFFFFE
FFFFFE
F00000
F80000
F80000
780000
780000
7C0000
3E0000
3F801C
1FFFFC
07FFFC
03FFF8
007FF0
0001E0
0003C0
000380
000780
000700
000700
000780
0003FC
0003FC
0000FC
ENDCHAR
STARTCHAR Ecaron
ENCODING -1
SWIDTH 600 0
DWIDTH 29 0
BBX 20 45 5 0
BITMAP
1C01E0
0F03C0
0F8780
07CF00
03DE00
01FE00
01FC00
00F800
000000
000000
000000
FFFFF0
FFFFF0
FFFFF0
FFFFF0
F00000
F00000
F00000
F00000
F00000
F00000
F00000
F00000
F00000
F00000
FFFFE0
FFFFE0
FFFFE0
FFFFE0
F00000
F00000
F00000
F00000
F00000
F00000
F00000
F00000
F00000
F00000
F00000
F00000
FFFFF0
FFFFF0
FFFFF0
FFFFF0
ENDCHAR
STARTCHAR ecaron
ENCODING -1
SWIDTH 600 0
DWIDTH 29 0
BBX 23 37 3 0
BITMAP
0E00F0
0781E0
07C3C0
03E780
01EF00
00FF00
00FE00
007C00
000000
000000
000000
00FF00
03FFC0
0FFFE0
1FFFF0
3F00F8
3C007C
7C003C
78003E
78003E
F8001E
FFFFFE
FFFFFE
FFFFFE
FFFFFE
F00000
F80000
F80000
780000
780000
7C0000
3E0000
3F801C
1FFFFC
07FFFC
03FFF8
007FC0
ENDCHAR
STARTCHAR Gcircumflex
ENCODING -1
SWIDTH 600 0
DWIDTH 29 0
BBX 23 45 3 0
BITMAP
001F00
003F80
003FC0
007BC0
00F9E0
01F0F0
01E078
03803C
000000
000000
000000
003FE0
00FFF8
03FFFC
07FFFC
0FE038
1F8008
3F0000
3E0000
7C0000
7C0000
7C0000
780000
F80000
F80000
F80000
F80000
F807FE
F807FE
F807FE
F807FE
F8001E
F8001E
F8001E
78001E
7C001E
7C001E
3E001E
3E001E
1F001E
1FC01E
0FFFFE
07FFFE
01FFFC
007FE0
ENDCHAR
STARTCHAR gcircumflex
ENCODING -1
SWIDTH 600 0
DWIDTH 29 0
BBX 25 49 2 -12
BITMAP
003E0000
007F0000
007F8000
00F78000
01F3C000
03E1E000
03C0F000
07007800
00000000
00000000
00000000
00FFFF80
03FFFF80
0FFFFF80
0F81F800
1F00F800
3E007C00
3C003C00
3C003C00
3C003C00
3C003C00
3C003C00
3E007C00
1E007800
1F81F800
0FFFF000
07FFC000
03FF0000
07800000
0E000000
1E000000
1E000000
1F000000
1FFFF000
0FFFFC00
0FFFFE00
3FFFFF00
7C000F80
78000780
F0000780
F0000780
F0000780
F0000F80
F8000F00
7C003F00
7F87FE00
3FFFFC00
1FFFF000
03FF8000
ENDCHAR
STARTCHAR Gbreve
ENCODING -1
SWIDTH 600 0
DWIDTH 29 0
BBX 23 44 3 0
BITMAP
01C038
01C038
01C078
00FFF0
00FFE0
007FC0
001F80
000000
000000
000000
003FE0
00FFF8
03FFFC
07FFFC
0FE038
1F8008
3F0000
3E0000
7C0000
7C0000
7C0000
780000
F80000
F80000
F80000
F80000
F807FE
F807FE
F807FE
F807FE
F8001E
F8001E
F8001E
78001E
7C001E
7C001E
3E001E
3E001E
1F001E
1FC01E
0FFFFE
07FFFE
01FFFC
007FE0
ENDCHAR
STARTCHAR gbreve
ENCODING -1
SWIDTH 600 0
DWIDTH 29 0
BBX 25 48 2 -12
BITMAP
0700E000
0700E000
0701E000
03FFC000
03FF8000
01FF0000
007E0000
00000000
00000000
00000000
00FFFF80
03FFFF80
0FFFFF80
0F81F800
1F00F800
3E007C00
3C003C00
3C003C00
3C003C00
3C003C00
3C003C00
3E007C00
1E007800
1F81F800
0FFFF000
07FFC000
03FF0000
07800000
0E000000
1E000000
1E000000
1F000000
1FFFF000
0FFFFC00
0FFFFE00
3FFFFF00
7C000F80
78000780
F0000780
F0000780
F0000780
F0000F80
F8000F00
7C003F00
7F87FE00
3FFFFC00
1FFFF000
03FF8000
ENDCHAR
STARTCHAR Gdotaccent
ENCODING -1
SWIDTH 600 0
DWIDTH 29 0
BBX 23 43 3 0
BITMAP
000700
000780
000780
000780
000700
000000
000000
000000
000000
003FE0
00FFF8
03FFFC
07FFFC
0FE038
1F8008
3F0000
3E0000
7C0000
7C0000
7C0000
780000
F80000
F80000
F80000
F80000
F807FE
F807FE
F807FE
F807FE
F8001E
F8001E
F8001E
78001E
7C001E
7C001E
3E001E
3E001E
1F001E
1FC01E
0FFFFE
07FFFE
01FFFC
007FE0
ENDCHAR
STARTCHAR gdotaccent
ENCODING -1
SWIDTH 600 0
DWIDTH 29 0
BBX 25 47 2 -12
BITMAP
001C0000
001E0000
001E0000
001E0000
001C0000
00000000
00000000
00000000
00000000
00FFFF80
03FFFF80
0FFFFF80
0F81F800
1F00F800
3E007C00
3C003C00
3C003C00
3C003C00
3C003C00
3C003C00
3E007C00
1E007800
1F81F800
0FFFF000
07FFC000
03FF0000
07800000
0E000000
1E000000
1E000000
1F000000
1FFFF000
0FFFFC00
0FFFFE00
3FFFFF00
7C000F80
78000780
F0000780
F0000780
F0000780
F0000F80
F8000F00
7C003F00
7F87FE00
3FFFFC00
1FFFF000
03FF8000
ENDCHAR
STARTCHAR uni0122
ENCODING -1
SWIDTH 600 0
DWIDTH 29 0
BBX 23 45 3 -11
BITMAP
003FE0
00FFF8
03FFFC
07FFFC
0FE038
1F8008
3F0000
3E0000
7C0000
7C0000
7C0000
780000
F80000
F80000
F80000
F80000
F807FE
F807FE
F807FE
F807FE
F8001E
F8001E
F8001E
78001E
7C001E
7C001E
3E001E
3E001E
1F001E
1FC01E
0FFFFE
07FFFE
01FFFC
007FE0
000000
000000
000000
000F00
000F00
001E00
001E00
001C00
001C00
003800
003800
ENDCHAR
STARTCHAR uni0123
ENCODING -1
SWIDTH 600 0
DWIDTH 29 0
BBX 25 49 2 -12
BITMAP
00038000
00038000
00070000
00070000
000F0000
000F0000
001E0000
001E0000
00000000
00000000
00000000
00FFFF80
03FFFF80
0FFFFF80
0F81F800
1F00F800
3E007C00
3C003C00
3C003C00
3C003C00
3C003C00
3C003C00
3E007C00
1E007800
1F81F800
0FFFF000
07FFC000
03FF0000
07800000
0E000000
1E000000
1E000000
1F000000
1FFFF000
0FFFFC00
0FFFFE00
3FFFFF00
7C000F80
78000780
F0000780
F0000780
F0000780
F0000F80
F8000F00
7C003F00
7F87FE00
3FFFFC00
1FFFF000
03FF8000
ENDCHAR
STARTCHAR Hcircumflex
ENCODING -1
SWIDTH 600 0
DWIDTH 29 0
BBX 23 45 3 0
BITMAP
007C00
00FE00
00FF00
01EF00
03E780
07C3C0
0781E0
0E00F0
000000
000000
000000
F0001E
F0001E
F0001E
F0001E
F0001E
F0001E
F0001E
F0001E
F0001E
F0001E
F0001E
F0001E
F0001E
F0001E
FFFFFE
FFFFFE
FFFFFE
FFFFFE
F0001E
F0001E
F0001E
F0001E
F0001E
F0001E
F0001E
F0001E
F0001E
F0001E
F0001E
F0001E
F0001E
F0001E
F0001E
F0001E
ENDCHAR
STARTCHAR hcircumflex
ENCODING -1
SWIDTH 600 0
DWIDTH 29 0
BBX 21 46 4 0
BITMAP
00F800
01FC00
01FE00
03DE00
07CF00
0F8780
0F03C0
1C01E0
000000
000000
F00000
F00000
F00000
F00000
F00000
F00000
F00000
F00000
F00000
F00000
F07F00
F1FFC0
F7FFE0
F7FFF0
FE01F0
FC00F8
FC00F8
F80078
F80078
F80078
F00078
F00078
F00078
F00078
F00078
F00078
F00078
F00078
F00078
F00078
F00078
F00078
F00078
F00078
F00078
F00078
ENDCHAR
STARTCHAR Hbar
ENCODING -1
SWIDTH 600 0
DWIDTH 29 0
BBX 29 34 0 0
BITMAP
1E0003C0
1E0003C0
1E0003C0
1E0003C0
1E0003C0
1E0003C0
FFFFFFF8
FFFFFFF8
FFFFFFF8
FFFFFFF8
1E0003C0
1E0003C0
1E0003C0
1E0003C0
1FFFFFC0
1FFFFFC0
1FFFFFC0
1FFFFFC0
1E0003C0
1E0003C0
1E0003C0
1E0003C0
1E0003C0
1E0003C0
1E0003C0
1E0003C0
1E0003C0
1E0003C0
1E0003C0
1E0003C0
1E0003C0
1E0003C0
1E0003C0
1E0003C0
ENDCHAR
STARTCHAR hbar
ENCODING -1
SWIDTH 600 0
DWIDTH 29 0
BBX 25 36 0 0
BITMAP
0F000000
0F000000
0F000000
0F000000
FFFFC000
FFFFC000
FFFFC000
0F000000
0F000000
0F000000
0F000000
0F07F000
0F1FFC00
0F7FFE00
0F7FFF00
0FE01F00
0FC00F80
0F800F80
0F800780
0F800780
0F000780
0F000780
0F000780
0F000780
0F000780
0F000780
0F000780
0F000780
0F000780
0F000780
0F000780
0F000780
0F000780
0F000780
0F000780
0F000780
ENDCHAR
STARTCHAR Itilde
ENCODING -1
SWIDTH 600 0
DWIDTH 29 0
BBX 18 44 5 0
BITMAP
0F01C0
1F81C0
3FE1C0
3FFF80
70FF80
703F00
701E00
000000
000000
000000
FFFFC0
FFFFC0
FFFFC0
01E000
01E000
01E000
01E000
01E000
01E000
01E000
01E000
01E000
01E000
01E000
01E000
01E000
01E000
01E000
01E000
01E000
01E000
01E000
01E000
01E000
01E000
01E000
01E000
01E000
01E000
01E000
01E000
FFFFC0
FFFFC0
FFFFC0
ENDCHAR
STARTCHAR itilde
ENCODING -1
SWIDTH 600 0
DWIDTH 29 0
BBX 21 36 5 0
BITMAP
0F01C0
1F81C0
3FE1C0
3FFF80
70FF80
703F00
701E00
000000
000000
000000
3FF000
3FF000
3FF000
00F000
00F000
00F000
00F000
00F000
00F000
00F000
00F000
00F000
00F000
00F000
00F000
00F000
00F000
00F000
00F000
00F000
00F000
00F000
00F000
FFFFF8
FFFFF8
FFFFF8
ENDCHAR
STARTCHAR Imacron
ENCODING -1
SWIDTH 600 0
DWIDTH 29 0
BBX 18 41 5 0
BITMAP
1FFF00
1FFF00
1FFF00
1FFF00
000000
000000
000000
FFFFC0
FFFFC0
FFFFC0
01E000
01E000
01E000
01E000
01E000
01E000
01E000
01E000
01E000
01E000
01E000
01E000
01E000
01E000
01E000
01E000
01E000
01E000
01E000
01E000
01E000
01E000
01E000
01E000
01E000
01E000
01E000
01E000
FFFFC0
FFFFC0
FFFFC0
ENDCHAR
STARTCHAR imacron
ENCODING -1
SWIDTH 600 0
DWIDTH 29 0
BBX 21 33 5 0
BITMAP
1FFF00
1FFF00
1FFF00
1FFF00
000000
000000
000000
3FF000
3FF000
3FF000
00F000
00F000
00F000
00F000
00F000
00F000
00F000
00F000
00F000
00F000
00F000
00F000
00F000
00F000
00F000
00F000
00F000
00F000
00F000
00F000
FFFFF8
FFFFF8
FFFFF8
ENDCHAR
STARTCHAR Ibreve
ENCODING -1
SWIDTH 600 0
DWIDTH 29 0
BBX 18 44 5 0
BITMAP
380700
380700
380F00
1FFE00
1FFC00
0FF800
03F000
000000
000000
000000
FFFFC0
FFFFC0
FFFFC0
01E000
01E000
01E000
01E000
01E000
01E000
01E000
01E000
01E000
01E000
01E000
01E000
01E000
01E000
01E000
01E000
01E000
01E000
01E000
01E000
01E000
01E000
01E000
01E000
01E000
01E000
01E000
01E000
FFFFC0
FFFFC0
FFFFC0
ENDCHAR
STARTCHAR ibreve
ENCODING -1
SWIDTH 600 0
DWIDTH 29 0
BBX 21 36 5 0
BITMAP
0700E0
0700E0
0701E0
03FFC0
03FF80
01FF00
007E00
000000
000000
000000
3FF000
3FF000
3FF000
00F000
00F000
00F000
00F000
00F000
00F000
00F000
00F000
00F000
00F000
00F000
00F000
00F000
00F000
00F000
00F000
00F000
00F000
00F000
00F000
FFFFF8
FFFFF8
FFFFF8
ENDCHAR
STARTCHAR Iogonek
ENCODING -1
SWIDTH 600 0
DWIDTH 29 0
BBX 18 45 5 -11
BITMAP
FFFFC0
FFFFC0
FFFFC0
01E000
01E000
01E000
01E000
01E000
01E000
01E000
01E000
01E000
01E000
01E000
01E000
01E000
01E000
01E000
01E000
01E000
01E000
01E000
01E000
01E000
01E000
01E000
01E000
01E000
01E000
01E000
01E000
FFFFC0
FFFFC0
FFFFC0
00F000
01E000
03C000
038000
078000
070000
070000
078000
03FC00
03FC00
00FC00
ENDCHAR
STARTCHAR iogonek
ENCODING -1
SWIDTH 600 0
DWIDTH 29 0
BBX 21 47 5 -11
BITMAP
00F000
00F800
00F800
00F000
00F000
000000
000000
000000
000000
000000
3FF000
3FF000
3FF000
00F000
00F000
00F000
00F000
00F000
00F000
00F000
00F000
00F000
00F000
00F000
00F000
00F000
00F000
00F000
00F000
00F000
00F000
00F000
00F000
FFFFF8
FFFFF8
FFFFF8
007800
00F000
01E000
01C000
03C000
038000
038000
03C000
01FE00
01FE00
007E00
ENDCHAR
STARTCHAR Idotaccent
ENCODING -1
SWIDTH 600 0
DWIDTH 29 0
BBX 18 43 5 0
BITMAP
00E000
00F000
00F000
00F000
00E000
000000
000000
000000
000000
FFFFC0
FFFFC0
FFFFC0
01E000
01E000
01E000
01E000
01E000
01E000
01E000
01E000
01E000
01E000
01E000
01E000
01E000
01E000
01E000
01E000
01E000
01E000
01E000
01E000
01E000
01E000
01E000
01E000
01E000
01E000
01E000
01E000
FFFFC0
FFFFC0
FFFFC0
ENDCHAR
STARTCHAR dotlessi
ENCODING -1
SWIDTH 600 0
DWIDTH 29 0
BBX 21 26 5 0
BITMAP
3FF000
3FF000
3FF000
00F000
00F000
00F000
00F000
00F000
00F000
00F000
00F000
00F000
00F000
00F000
00F000
00F000
00F000
00F000
00F000
00F000
00F000
00F000
00F000
FFFFF8
FFFFF8
FFFFF8
ENDCHAR
STARTCHAR IJ
ENCODING -1
SWIDTH 600 0
DWIDTH 29 0
BBX 21 34 4 0
BITMAP
F00078
F00078
F00078
F00078
F00078
F00078
F00078
F00078
F00078
F00078
F00078
F00078
F00078
F00078
F00078
F00078
F00078
F00078
F00078
F00078
F00078
F00078
F00078
F00078
F00078
F00078
F000F8
F000F8
F000F0
F081F0
F0FFE0
F0FFE0
F0FFC0
F07F00
ENDCHAR
STARTCHAR ij
ENCODING -1
SWIDTH 600 0
DWIDTH 29 0
BBX 20 48 5 -12
BITMAP
F000E0
F801F0
F801F0
F001F0
F000E0
000000
000000
000000
000000
000000
F03FF0
F03FF0
F03FF0
F000F0
F000F0
F000F0
F000F0
F000F0
F000F0
F000F0
F000F0
F000F0
F000F0
F000F0
F000F0
F000F0
F000F0
F000F0
F000F0
F000F0
F000F0
F000F0
F000F0
F000F0
F000F0
F000F0
0000F0
0000F0
0000F0
0000F0
0000F0
0001F0
0001F0
0003E0
01FFE0
01FFC0
01FF80
00FE00
ENDCHAR
STARTCHAR Jcircumflex
ENCODING -1
SWIDTH 600 0
DWIDTH 29 0
BBX 26 45 3 0
BITMAP
0001F000
0003F800
0003FC00
0007BC00
000F9E00
001F0F00
001E0780
003803C0
00000000
00000000
00000000
0000F000
0000F000
0000F000
0000F000
0000F000
0000F000
0000F000
0000F000
0000F000
0000F000
0000F000
0000F000
0000F000
0000F000
0000F000
0000F000
0000F000
0000F000
0000F000
0000F000
0000F000
0000F000
0000F000
0000F000
0000F000
0001F000
0001F000
0003E000
0007E000
E01FC000
FFFF8000
FFFF0000
FFFE0000
1FF00000
ENDCHAR
STARTCHAR jcircumflex
ENCODING -1
SWIDTH 600 0
DWIDTH 29 0
BBX 20 49 2 -12
BITMAP
007C00
00FE00
00FF00
01EF00
03E780
07C3C0
0781E0
0E00F0
000000
000000
000000
1FFF80
1FFF80
1FFF80
000780
000780
000780
000780
000780
000780
000780
000780
000780
000780
000780
000780
000780
000780
000780
000780
000780
000780
000780
000780
000780
000780
000780
000780
000780
000780
000780
000780
000F80
000F00
001F00
FFFE00
FFFE00
FFF800
7FE000
ENDCHAR
STARTCHAR uni0136
ENCODING -1
SWIDTH 600 0
DWIDTH 29 0
BBX 23 45 5 -11
BITMAP
F0003E
F0007C
F000F8
F001F0
F003E0
F003E0
F007C0
F00F80
F01F00
F03E00
F07C00
F07800
F0F800
F1F000
F3E000
F7E000
F7F000
FFF000
FEF800
FC7C00
F07C00
F03E00
F01F00
F01F00
F00F80
F007C0
F007C0
F003E0
F001F0
F001F0
F000F8
F0007C
F0007C
F0003E
000000
000000
000000
007800
007800
00F000
00F000
00E000
00E000
01C000
01C000
ENDCHAR
STARTCHAR uni0137
ENCODING -1
SWIDTH 600 0
DWIDTH 29 0
BBX 22 47 5 -11
BITMAP
F00000
F00000
F00000
F00000
F00000
F00000
F00000
F00000
F00000
F00000
F001F8
F003F0
F007E0
F00FC0
F00F80
F01F00
F03E00
F07C00
F0F800
F1F000
F3E000
F7C000
FFE000
FFF000
FEF000
F8F800
F07C00
F03E00
F01F00
F00F80
F00F80
F007C0
F003E0
F001F0
F000F8
F0007C
000000
000000
000000
007800
007800
00F000
00F000
00E000
00E000
01C000
01C000
ENDCHAR
STARTCHAR kgreenlandic
ENCODING -1
SWIDTH 600 0
DWIDTH 29 0
BBX 22 26 5 0
BITMAP
F000F8
F001F0
F003E0
F007C0
F00F80
F01F00
F03E00
F07C00
F0F800
F1F000
F1E000
F3C000
F7C000
FFE000
FFF000
FCF800
F87C00
F07E00
F03E00
F01F00
F00F80
F007C0
F003E0
F001F0
F000F8
F0007C
ENDCHAR
STARTCHAR Lacute
ENCODING -1
SWIDTH 600 0
DWIDTH 29 0
BBX 20 45 5 0
BITMAP
07C000
0F8000
0F8000
1F0000
1E0000
3C0000
380000
700000
000000
000000
000000
F00000
F00000
F00000
F00000
F00000
F00000
F00000
F00000
F00000
F00000
F00000
F00000
F00000
F00000
F00000
F00000
F00000
F00000
F00000
F00000
F00000
F00000
F00000
F00000
F00000
F00000
F00000
F00000
F00000
F00000
FFFFF0
FFFFF0
FFFFF0
FFFFF0
ENDCHAR
STARTCHAR lacute
ENCODING -1
SWIDTH 600 0
DWIDTH 29 0
BBX 21 46 5 0
BITMAP
000F80
001F00
001F00
003E00
003C00
007800
007000
00E000
000000
000000
3FF000
3FF000
3FF000
00F000
00F000
00F000
00F000
00F000
00F000
00F000
00F000
00F000
00F000
00F000
00F000
00F000
00F000
00F000
00F000
00F000
00F000
00F000
00F000
00F000
00F000
00F000
00F000
00F000
00F000
00F000
00F000
00F000
00F000
FFFFF8
FFFFF8
FFFFF8
ENDCHAR
STARTCHAR uni013B
ENCODING -1
SWIDTH 600 0
DWIDTH 29 0
BBX 20 45 5 -11
BITMAP
F00000
F00000
F00000
F00000
F00000
F00000
F00000
F00000
F00000
F00000
F00000
F00000
F00000
F00000
F00000
F00000
F00000
F00000
F00000
F00000
F00000
F00000
F00000
F00000
F00000
F00000
F00000
F00000
F00000
F00000
FFFFF0
FFFFF0
FFFFF0
FFFFF0
000000
000000
000000
007800
007800
00F000
00F000
00E000
00E000
01C000
01C000
ENDCHAR
STARTCHAR uni013C
ENCODING -1
SWIDTH 600 0
DWIDTH 29 0
BBX 21 47 5 -11
BITMAP
3FF000
3FF000
3FF000
00F000
00F000
00F000
00F000
00F000
00F000
00F000
00F000
00F000
00F000
00F000
00F000
00F000
00F000
00F000
00F000
00F000
00F000
00F000
00F000
00F000
00F000
00F000
00F000
00F000
00F000
00F000
00F000
00F000
00F000
FFFFF8
FFFFF8
FFFFF8
000000
000000
000000
007800
007800
00F000
00F000
00E000
00E000
01C000
01C000
ENDCHAR
STARTCHAR Lcaron
ENCODING -1
SWIDTH 600 0
DWIDTH 29 0
BBX 20 34 5 0
BITMAP
F003E0
F003E0
F003C0
F003C0
F00380
F00780
F00700
F00700
F00000
F00000
F00000
F00000
F00000
F00000
F00000
F00000
F00000
F00000
F00000
F00000
F00000
F00000
F00000
F00000
F00000
F00000
F00000
F00000
F00000
F00000
FFFFF0
FFFFF0
FFFFF0
FFFFF0
ENDCHAR
STARTCHAR lcaron
ENCODING -1
SWIDTH 600 0
DWIDTH 29 0
BBX 22 36 5 0
BITMAP
3FF07C
3FF07C
3FF078
00F078
00F070
00F0F0
00F0E0
00F0E0
00F000
00F000
00F000
00F000
00F000
00F000
00F000
00F000
00F000
00F000
00F000
00F000
00F000
00F000
00F000
00F000
00F000
00F000
00F000
00F000
00F000
00F000
00F000
00F000
00F000
FFFFF8
FFFFF8
FFFFF8
ENDCHAR
STARTCHAR Ldot
ENCODING -1
SWIDTH 600 0
DWIDTH 29 0
BBX 20 34 5 0
BITMAP
F00000
F00000
F00000
F00000
F00000
F00000
F00000
F00000
F00000
F00000
F00000
F00000
F00000
F00000
F00700
F00780
F00780
F00780
F00700
F00000
F00000
F00000
F00000
F00000
F00000
F00000
F00000
F00000
F00000
F00000
FFFFF0
FFFFF0
FFFFF0
FFFFF0
ENDCHAR
STARTCHAR ldot
ENCODING -1
SWIDTH 600 0
DWIDTH 29 0
BBX 21 36 5 0
BITMAP
3FF000
3FF000
3FF000
00F000
00F000
00F000
00F000
00F000
00F000
00F000
00F000
00F000
00F000
00F000
00F000
00F000
00F000
00F000
00F070
00F078
00F078
00F078
00F070
00F000
00F000
00F000
00F000
00F000
00F000
00F000
00F000
00F000
00F000
FFFFF8
FFFFF8
FFFFF8
ENDCHAR
STARTCHAR Lslash
ENCODING -1
SWIDTH 600 0
DWIDTH 29 0
BBX 25 34 1 0
BITMAP
07800000
07800000
07800000
07800000
07800000
07800000
07800000
07800000
07800000
07800000
07800000
07808000
0783C000
0787E000
079FC000
07FF0000
07FE0000
07F80000
0FE00000
1FC00000
7F800000
FF800000
77800000
27800000
07800000
07800000
07800000
07800000
07800000
07800000
07FFFF80
07FFFF80
07FFFF80
07FFFF80
ENDCHAR
STARTCHAR lslash
ENCODING -1
SWIDTH 600 0
DWIDTH 29 0
BBX 21 36 5 0
BITMAP
3FF000
3FF000
3FF000
00F000
00F000
00F000
00F000
00F000
00F000
00F000
00F000
00F000
00F000
00F180
00F380
00FFC0
00FF80
00FE00
01FC00
03F000
0FF000
1FF000
0EF000
0CF000
00F000
00F000
00F000
00F000
00F000
00F000
00F000
00F000
00F000
FFFFF8
FFFFF8
FFFFF8
ENDCHAR
STARTCHAR Nacute
ENCODING -1
SWIDTH 600 0
DWIDTH 29 0
BBX 23 45 3 0
BITMAP
0003E0
0007C0
0007C0
000F80
000F00
001E00
001C00
003800
000000
000000
000000
F8001E
FC001E
FC001E
FE001E
FE001E
FF001E
FF001E
F7801E
F7801E
F3C01E
F3C01E
F1E01E
F1E01E
F0F01E
F0F01E
F0781E
F0781E
F03C1E
F03C1E
F01E1E
F01E1E
F00F1E
F00F1E
F0079E
F0079E
F003DE
F003DE
F001FE
F001FE
F000FE
F000FE
F0007E
F0007E
F0003E
ENDCHAR
STARTCHAR nacute
ENCODING -1
SWIDTH 600 0
DWIDTH 29 0
BBX 21 37 4 0
BITMAP
0007C0
000F80
000F80
001F00
001E00
003C00
003800
007000
000000
000000
000000
F07F00
F1FFC0
F7FFE0
F7FFF0
FE01F0
FC00F8
FC00F8
F80078
F80078
F80078
F00078
F00078
F00078
F00078
F00078
F00078
F00078
F00078
F00078
F00078
F00078
F00078
F00078
F00078
F00078
F00078
ENDCHAR
STARTCHAR uni0145
ENCODING -1
SWIDTH 600 0
DWIDTH 29 0
BBX 23 45 3 -11
BITMAP
F8001E
FC001E
FC001E
FE001E
FE001E
FF001E
FF001E
F7801E
F7801E
F3C01E
F3C01E
F1E01E
F1E01E
F0F01E
F0F01E
F0781E
F0781E
F03C1E
F03C1E
F01E1E
F01E1E
F00F1E
F00F1E
F0079E
F0079E
F003DE
F003DE
F001FE
F001FE
F000FE
F000FE
F0007E
F0007E
F0003E
000000
000000
000000
003C00
003C00
007800
007800
007000
007000
00E000
00E000
ENDCHAR
STARTCHAR uni0146
ENCODING -1
SWIDTH 600 0
DWIDTH 29 0
BBX 21 37 4 -11
BITMAP
F07F00
F1FFC0
F7FFE0
F7FFF0
FE01F0
FC00F8
FC00F8
F80078
F80078
F80078
F00078
F00078
F00078
F00078
F00078
F00078
F00078
F00078
F00078
F00078
F00078
F00078
F00078
F00078
F00078
F00078
000000
000000
000000
007800
007800
00F000
00F000
00E000
00E000
01C000
01C000
ENDCHAR
STARTCHAR Ncaron
ENCODING -1
SWIDTH 600 0
DWIDTH 29 0
BBX 23 45 3 0
BITMAP
0E00F0
0781E0
07C3C0
03E780
01EF00
00FF00
00FE00
007C00
000000
000000
000000
F8001E
FC001E
FC001E
FE001E
FE001E
FF001E
FF001E
F7801E
F7801E
F3C01E
F3C01E
F1E01E
F1E01E
F0F01E
F0F01E
F0781E
F0781E
F03C1E
F03C1E
F01E1E
F01E1E
F00F1E
F00F1E
F0079E
F0079E
F003DE
F003DE
F001FE
F001FE
F000FE
F000FE
F0007E
F0007E
F0003E
ENDCHAR
STARTCHAR ncaron
ENCODING -1
SWIDTH 600 0
DWIDTH 29 0
BBX 21 37 4 0
BITMAP
1C01E0
0F03C0
0F8780
07CF00
03DE00
01FE00
01FC00
00F800
000000
000000
000000
F07F00
F1FFC0
F7FFE0
F7FFF0
FE01F0
FC00F8
FC00F8
F80078
F80078
F80078
F00078
F00078
F00078
F00078
F00078
F00078
F00078
F00078
F00078
F00078
F00078
F00078
F00078
F00078
F00078
F00078
ENDCHAR
STARTCHAR napostrophe
ENCODING -1
SWIDTH 600 0
DWIDTH 29 0
BBX 27 34 0 0
BITMAP
3E000000
3E000000
3C000000
7C000000
7C000000
7C000000
78000000
78000000
7BC1FC00
F3C7FF00
F3DFFF80
E3DFFFC0
03F807C0
03F003E0
03F003E0
03E001E0
03E001E0
03E001E0
03C001E0
03C001E0
03C001E0
03C001E0
03C001E0
03C001E0
03C001E0
03C001E0
03C001E0
03C001E0
03C001E0
03C001E0
03C001E0
03C001E0
03C001E0
03C001E0
ENDCHAR
STARTCHAR Eng
ENCODING -1
SWIDTH 600 0
DWIDTH 29 0
BBX 23 43 3 -9
BITMAP
F8001E
FC001E
FC001E
FE001E
FE001E
FF001E
FF001E
F7801E
F7C01E
F3C01E
F3E01E
F1E01E
F1F01E
F0F01E
F0F81E
F0781E
F03C1E
F03C1E
F01E1E
F01F1E
F00F1E
F00F9E
F0079E
F007DE
F003DE
F003FE
F001FE
F001FE
F000FE
F0007E
F0007E
F0003E
F0003E
F0001E
00001E
00001E
00001E
00003C
00007C
003FF8
003FF8
003FF0
003F80
ENDCHAR
STARTCHAR eng
ENCODING -1
SWIDTH 600 0
DWIDTH 29 0
BBX 21 38 4 -12
BITMAP
F07F00
F1FFC0
F7FFE0
F7FFF0
FE01F0
FC00F0
FC00F8
F800F8
F80078
F80078
F00078
F00078
F00078
F00078
F00078
F00078
F00078
F00078
F00078
F00078
F00078
F00078
F00078
F00078
F00078
F00078
000078
000078
000078
000078
000078
000078
0000F8
0000F8
001FF0
001FF0
001FE0
001F80
ENDCHAR
STARTCHAR Omacron
ENCODING -1
SWIDTH 600 0
DWIDTH 29 0
BBX 25 41 2 0
BITMAP
03FFE000
03FFE000
03FFE000
03FFE000
00000000
00000000
00000000
007F0000
03FFE000
07FFF000
0FFFF800
1F80FC00
3F007C00
3E003E00
7C001E00
7C001F00
7C001F00
78000F00
F8000F80
F8000F80
F8000F80
F8000F80
F8000F80
F8000F80
F8000F80
F8000F80
F8000F80
F8000F80
F8000F80
F8000F80
78000F00
7C001F00
7C001F00
7C001E00
3E003E00
3F007C00
1F80FC00
0FFFF800
07FFF000
03FFE000
007F0000
ENDCHAR
STARTCHAR omacron
ENCODING -1
SWIDTH 600 0
DWIDTH 29 0
BBX 23 33 3 0
BITMAP
07FFC0
07FFC0
07FFC0
07FFC0
000000
000000
000000
00FE00
03FF80
0FFFE0
1FFFF0
3F01F8
3C00F8
7C007C
78003C
F8003C
F8003E
F8003E
F0001E
F0001E
F0001E
F0001E
F8003E
F8003E
78003C
78003C
7C007C
3E00F8
3F01F8
1FFFF0
0FFFE0
03FF80
00FE00
ENDCHAR
STARTCHAR Obreve
ENCODING -1
SWIDTH 600 0
DWIDTH 29 0
BBX 25 44 2 0
BITMAP
03807000
03807000
0380F000
01FFE000
01FFC000
00FF8000
003F0000
00000000
00000000
00000000
007F0000
03FFE000
07FFF000
0FFFF800
1F80FC00
3F007C00
3E003E00
7C001E00
7C001F00
7C001F00
78000F00
F8000F80
F8000F80
F8000F80
F8000F80
F8000F80
F8000F80
F8000F80
F8000F80
F8000F80
F8000F80
F8000F80
F8000F80
78000F00
7C001F00
7C001F00
7C001E00
3E003E00
3F007C00
1F80FC00
0FFFF800
07FFF000
03FFE000
007F0000
ENDCHAR
STARTCHAR obreve
ENCODING -1
SWIDTH 600 0
DWIDTH 29 0
BBX 23 36 3 0
BITMAP
0700E0
0700E0
0701E0
03FFC0
03FF80
01FF00
007E00
000000
000000
000000
00FE00
03FF80
0FFFE0
1FFFF0
3F01F8
3C00F8
7C007C
78003C
F8003C
F8003E
F8003E
F0001E
F0001E
F0001E
F0001E
F8003E
F8003E
78003C
78003C
7C007C
3E00F8
3F01F8
1FFFF0
0FFFE0
03FF80
00FE00
ENDCHAR
STARTCHAR Ohungarumlaut
ENCODING -1
SWIDTH 600 0
DWIDTH 29 0
BBX 25 45 2 0
BITMAP
003E1F00
007C3E00
007C3E00
00F87C00
00F07800
01E0F000
01C0E000
0381C000
00000000
00000000
00000000
007F0000
03FFE000
07FFF000
0FFFF800
1F80FC00
3F007C00
3E003E00
7C001E00
7C001F00
7C001F00
78000F00
F8000F80
F8000F80
F8000F80
F8000F80
F8000F80
F8000F80
F8000F80
F8000F80
F8000F80
F8000F80
F8000F80
F8000F80
78000F00
7C001F00
7C001F00
7C001E00
3E003E00
3F007C00
1F80FC00
0FFFF800
07FFF000
03FFE000
007F0000
ENDCHAR
STARTCHAR ohungarumlaut
ENCODING -1
SWIDTH 600 0
DWIDTH 29 0
BBX 23 37 3 0
BITMAP
007C3E
00F87C
00F87C
01F0F8
01E0F0
03C1E0
0381C0
070380
000000
000000
000000
00FE00
03FF80
0FFFE0
1FFFF0
3F01F8
3C00F8
7C007C
78003C
F8003C
F8003E
F8003E
F0001E
F0001E
F0001E
F0001E
F8003E
F8003E
78003C
78003C
7C007C
3E00F8
3F01F8
1FFFF0
0FFFE0
03FF80
00FE00
ENDCHAR
STARTCHAR OE
ENCODING -1
SWIDTH 600 0
DWIDTH 29 0
BBX 28 34 0 0
BITMAP
00FFFFF0
03FFFFF0
0FFFFFF0
0FFFFFF0
1F81E000
3E01E000
3E01E000
7C01E000
7C01E000
7801E000
7801E000
F801E000
F801E000
F801E000
F001FFE0
F001FFE0
F001FFE0
F001FFE0
F001E000
F001E000
F001E000
F801E000
F801E000
7801E000
7801E000
7C01E000
7C01E000
3E01E000
3E01E000
1F81E000
1FFFFFF0
0FFFFFF0
03FFFFF0
00FFFFF0
ENDCHAR
STARTCHAR oe
ENCODING -1
SWIDTH 600 0
DWIDTH 29 0
BBX 27 26 1 0
BITMAP
07C03C00
0FF0FF00
1FF9FF80
3FF9FF80
7C3FC3C0
781F83C0
781F83E0
781F81E0
F80F01E0
F00F01E0
F00FFFE0
F00FFFE0
F00FFFE0
F00FFFE0
F00F0000
F00F0000
F00F0000
F80F8000
780F8000
781F8000
781FC000
3C3FE0C0
3FF9FFC0
1FF8FFC0
0FF0FFC0
07C03F00
ENDCHAR
STARTCHAR Racute
ENCODING -1
SWIDTH 600 0
DWIDTH 29 0
BBX 24 45 4 0
BITMAP
001F00
003E00
003E00
007C00
007800
00F000
00E000
01C000
000000
000000
000000
FFFC00
FFFF00
FFFFC0
FFFFE0
F007F0
F001F0
F000F8
F000F8
F000F8
F000F8
F000F8
F000F8
F000F8
F001F0
F003F0
F00FE0
FFFFC0
FFFF00
FFFC00
FFFE00
F03E00
F01F00
F00F80
F00F80
F007C0
F003E0
F003E0
F001F0
F000F8
F000F8
F0007C
F0007E
F0003E
F0001F
ENDCHAR
STARTCHAR racute
ENCODING -1
SWIDTH 600 0
DWIDTH 29 0
BBX 19 37 6 0
BITMAP
003E00
007C00
007C00
00F800
00F000
01E000
01C000
038000
000000
000000
000000
F03F80
F0FFE0
F3FFE0
F7FFC0
F70040
FE0000
FC0000
F80000
F80000
F80000
F00000
F00000
F00000
F00000
F00000
F00000
F00000
F00000
F00000
F00000
F00000
F00000
F00000
F00000
F00000
F00000
ENDCHAR
STARTCHAR uni0156
ENCODING -1
SWIDTH 600 0
DWIDTH 29 0
BBX 24 45 4 -11
BITMAP
FFFC00
FFFF00
FFFFC0
FFFFE0
F007F0
F001F0
F000F8
F000F8
F000F8
F000F8
F000F8
F000F8
F000F8
F001F0
F003F0
F00FE0
FFFFC0
FFFF00
FFFC00
FFFE00
F03E00
F01F00
F00F80
F00F80
F007C0
F003E0
F003E0
F001F0
F000F8
F000F8
F0007C
F0007E
F0003E
F0001F
000000
000000
000000
003C00
003C00
007800
007800
007000
007000
00E000
00E000
ENDCHAR
STARTCHAR uni0157
ENCODING -1
SWIDTH 600 0
DWIDTH 29 0
BBX 20 37 5 -11
BITMAP
781FC0
787FF0
79FFF0
7BFFE0
7B8020
7F0000
7E0000
7C0000
7C0000
7C0000
780000
780000
780000
780000
780000
780000
780000
780000
780000
780000
780000
780000
780000
780000
780000
780000
000000
000000
000000
3C0000
3C0000
780000
780000
700000
700000
E00000
E00000
ENDCHAR
STARTCHAR Rcaron
ENCODING -1
SWIDTH 600 0
DWIDTH 29 0
BBX 24 45 4 0
BITMAP
3803C0
1E0780
1F0F00
0F9E00
07BC00
03FC00
03F800
01F000
000000
000000
000000
FFFC00
FFFF00
FFFFC0
FFFFE0
F007F0
F001F0
F000F8
F000F8
F000F8
F000F8
F000F8
F000F8
F000F8
F001F0
F003F0
F00FE0
FFFFC0
FFFF00
FFFC00
FFFE00
F03E00
F01F00
F00F80
F00F80
F007C0
F003E0
F003E0
F001F0
F000F8
F000F8
F0007C
F0007E
F0003E
F0001F
ENDCHAR
STARTCHAR rcaron
ENCODING -1
SWIDTH 600 0
DWIDTH 29 0
BBX 19 37 6 0
BITMAP
700780
3C0F00
3E1E00
1F3C00
0F7800
07F800
07F000
03E000
000000
000000
000000
F03F80
F0FFE0
F3FFE0
F7FFC0
F70040
FE0000
FC0000
F80000
F80000
F80000
F00000
F00000
F00000
F00000
F00000
F00000
F00000
F00000
F00000
F00000
F00000
F00000
F00000
F00000
F00000
F00000
ENDCHAR
STARTCHAR Sacute
ENCODING -1
SWIDTH 600 0
DWIDTH 29 0
BBX 22 45 4 0
BITMAP
0007C0
000F80
000F80
001F00
001E00
003C00
003800
007000
000000
000000
000000
01FF80
0FFFF0
1FFFF8
3FFFF0
7E00F0
F80010
F80000
F00000
F00000
F00000
F80000
F80000
7C0000
7F0000
3FC000
1FF800
07FF00
01FFC0
003FE0
000FF0
0001F8
0000F8
00007C
00007C
00003C
00003C
00007C
00007C
8000F8
F001F8
FFFFF0
FFFFE0
FFFF80
0FFC00
ENDCHAR
STARTCHAR sacute
ENCODING -1
SWIDTH 600 0
DWIDTH 29 0
BBX 19 37 5 0
BITMAP
001F00
003E00
003E00
007C00
007800
00F000
00E000
01C000
000000
000000
000000
03FE00
1FFFC0
3FFFE0
7FFFC0
F801C0
F00000
F00000
F00000
F80000
7E0000
7F8000
3FF000
0FFC00
03FF00
007F80
000FC0
0007E0
0003E0
0001E0
0001E0
0003E0
E007C0
FFFFC0
FFFF80
FFFF00
1FF800
ENDCHAR
STARTCHAR Scircumflex
ENCODING -1
SWIDTH 600 0
DWIDTH 29 0
BBX 22 45 4 0
BITMAP
00F800
01FC00
01FE00
03DE00
07CF00
0F8780
0F03C0
1C01E0
000000
000000
000000
01FF80
0FFFF0
1FFFF8
3FFFF0
7E00F0
F80010
F80000
F00000
F00000
F00000
F80000
F80000
7C0000
7F0000
3FC000
1FF800
07FF00
01FFC0
003FE0
000FF0
0001F8
0000F8
00007C
00007C
00003C
00003C
00007C
00007C
8000F8
F001F8
FFFFF0
FFFFE0
FFFF80
0FFC00
ENDCHAR
STARTCHAR scircumflex
ENCODING -1
SWIDTH 600 0
DWIDTH 29 0
BBX 19 37 5 0
BITMAP
01F000
03F800
03FC00
07BC00
0F9E00
1F0F00
1E0780
3803C0
000000
000000
000000
03FE00
1FFFC0
3FFFE0
7FFFC0
F801C0
F00000
F00000
F00000
F80000
7E0000
7F8000
3FF000
0FFC00
03FF00
007F80
000FC0
0007E0
0003E0
0001E0
0001E0
0003E0
E007C0
FFFFC0
FFFF80
FFFF00
1FF800
ENDCHAR
STARTCHAR Scedilla
ENCODING -1
SWIDTH 600 0
DWIDTH 29 0
BBX 22 46 4 -12
BITMAP
01FF80
0FFFF0
1FFFF8
3FFFF0
7E00F0
F80010
F80000
F00000
F00000
F00000
F80000
F80000
7C0000
7F0000
3FC000
1FF800
07FF00
01FFC0
003FE0
000FF0
0001F8
0000F8
00007C
00007C
00003C
00003C
00007C
00007C
8000F8
F001F8
FFFFF0
FFFFE0
FFFF80
0FFC00
007000
007000
00E000
00F800
00FC00
001E00
001E00
000E00
001E00
03FC00
03FC00
03F000
ENDCHAR
STARTCHAR scedilla
ENCODING -1
SWIDTH 600 0
DWIDTH 29 0
BBX 19 38 5 -12
BITMAP
03FE00
1FFFC0
3FFFE0
7FFFC0
F801C0
F00000
F00000
F00000
F80000
7E0000
7F8000
3FF000
0FFC00
03FF00
007F80
000FC0
0007E0
0003E0
0001E0
0001E0
0003E0
E007C0
FFFFC0
FFFF80
FFFF00
1FF800
00E000
00E000
01C000
01F000
01F800
003C00
003C00
001C00
003C00
07F800
07F800
07E000
ENDCHAR
STARTCHAR Scaron
ENCODING -1
SWIDTH 600 0
DWIDTH 29 0
BBX 22 45 4 0
BITMAP
0E00F0
0781E0
07C3C0
03E780
01EF00
00FF00
00FE00
007C00
000000
000000
000000
01FF80
0FFFF0
1FFFF8
3FFFF0
7E00F0
F80010
F80000
F00000
F00000
F00000
F80000
F80000
7C0000
7F0000
3FC000
1FF800
07FF00
01FFC0
003FE0
000FF0
0001F8
0000F8
00007C
00007C
00003C
00003C
00007C
00007C
8000F8
F001F8
FFFFF0
FFFFE0
FFFF80
0FFC00
ENDCHAR
STARTCHAR scaron
ENCODING -1
SWIDTH 600 0
DWIDTH 29 0
BBX 19 37 5 0
BITMAP
3803C0
1E0780
1F0F00
0F9E00
07BC00
03FC00
03F800
01F000
000000
000000
000000
03FE00
1FFFC0
3FFFE0
7FFFC0
F801C0
F00000
F00000
F00000
F80000
7E0000
7F8000
3FF000
0FFC00
03FF00
007F80
000FC0
0007E0
0003E0
0001E0
0001E0
0003E0
E007C0
FFFFC0
FFFF80
FFFF00
1FF800
ENDCHAR
STARTCHAR uni021A
ENCODING -1
SWIDTH 600 0
DWIDTH 29 0
BBX 24 45 2 -11
BITMAP
FFFFFF
FFFFFF
FFFFFF
FFFFFF
003C00
003C00
003C00
003C00
003C00
003C00
003C00
003C00
003C00
003C00
003C00
003C00
003C00
003C00
003C00
003C00
003C00
003C00
003C00
003C00
003C00
003C00
003C00
003C00
003C00
003C00
003C00
003C00
003C00
003C00
000000
000000
000000
003C00
003C00
007800
007800
007000
007000
00E000
00E000
ENDCHAR
STARTCHAR uni021B
ENCODING -1
SWIDTH 600 0
DWIDTH 29 0
BBX 20 44 4 -11
BITMAP
00C000
01C000
01C000
01C000
01C000
03C000
03C000
1FFFF0
FFFFF0
FFFFF0
03C000
03C000
03C000
03C000
03C000
03C000
03C000
03C000
03C000
03C000
03C000
03C000
03C000
03C000
03C000
03C000
03C000
03E000
03F000
01FFF0
00FFF0
007FF0
001FE0
000000
000000
000000
003C00
003C00
007800
007800
007000
007000
00E000
00E000
ENDCHAR
STARTCHAR Tcaron
ENCODING -1
SWIDTH 600 0
DWIDTH 29 0
BBX 24 45 2 0
BITMAP
0E00F0
0781E0
07C3C0
03E780
01EF00
00FF00
00FE00
007C00
000000
000000
000000
FFFFFF
FFFFFF
FFFFFF
FFFFFF
003C00
003C00
003C00
003C00
003C00
003C00
003C00
003C00
003C00
003C00
003C00
003C00
003C00
003C00
003C00
003C00
003C00
003C00
003C00
003C00
003C00
003C00
003C00
003C00
003C00
003C00
003C00
003C00
003C00
003C00
ENDCHAR
STARTCHAR tcaron
ENCODING -1
SWIDTH 600 0
DWIDTH 29 0
BBX 21 36 4 0
BITMAP
0000F8
0000F8
0000F0
00C0F0
01C0E0
01C1E0
01C1C0
01C1C0
03C000
03C000
1FFFF0
FFFFF0
FFFFF0
03C000
03C000
03C000
03C000
03C000
03C000
03C000
03C000
03C000
03C000
03C000
03C000
03C000
03C000
03C000
03C000
03C000
03E000
03F000
01FFF0
00FFF0
007FF0
001FE0
ENDCHAR
STARTCHAR Tbar
ENCODING -1
SWIDTH 600 0
DWIDTH 29 0
BBX 24 34 2 0
BITMAP
FFFFFF
FFFFFF
FFFFFF
FFFFFF
003C00
003C00
003C00
003C00
003C00
003C00
003C00
003C00
003C00
003C00
003C00
1FFFF8
1FFFF8
1FFFF8
1FFFF8
003C00
003C00
003C00
003C00
003C00
003C00
003C00
003C00
003C00
003C00
003C00
003C00
003C00
003C00
003C00
ENDCHAR
STARTCHAR tbar
ENCODING -1
SWIDTH 600 0
DWIDTH 29 0
BBX 20 33 4 0
BITMAP
00C000
01C000
01C000
01C000
01C000
03C000
03C000
1FFFF0
FFFFF0
FFFFF0
03C000
03C000
03C000
03C000
03C000
03C000
3FFF80
3FFF80
3FFF80
03C000
03C000
03C000
03C000
03C000
03C000
03C000
03C000
03E000
03F000
01FFF0
00FFF0
007FF0
001FE0
ENDCHAR
STARTCHAR Utilde
ENCODING -1
SWIDTH 600 0
DWIDTH 29 0
BBX 23 44 3 0
BITMAP
03C070
07E070
0FF870
0FFFE0
1C3FE0
1C0FC0
1C0780
000000
000000
000000
F0001E
F0001E
F0001E
F0001E
F0001E
F0001E
F0001E
F0001E
F0001E
F0001E
F0001E
F0001E
F0001E
F0001E
F0001E
F0001E
F0001E
F0001E
F0001E
F0001E
F0001E
F0001E
F0001E
F0003E
F8003E
F8003E
78003C
7C007C
7E00FC
3F01F8
3FFFF0
1FFFE0
07FFC0
01FF00
ENDCHAR
STARTCHAR utilde
ENCODING -1
SWIDTH 600 0
DWIDTH 29 0
BBX 21 36 4 0
BITMAP
0780E0
0FC0E0
1FF0E0
1FFFC0
387FC0
381F80
380F00
000000
000000
000000
F00078
F00078
F00078
F00078
F00078
F00078
F00078
F00078
F00078
F00078
F00078
F00078
F00078
F00078
F00078
F00078
F000F8
F000F8
F000F8
F800F8
F801F8
7C03F8
7FFF78
3FFF78
1FFC78
07F078
ENDCHAR
STARTCHAR Umacron
ENCODING -1
SWIDTH 600 0
DWIDTH 29 0
BBX 23 41 3 0
BITMAP
07FFC0
07FFC0
07FFC0
07FFC0
000000
000000
000000
F0001E
F0001E
F0001E
F0001E
F0001E
F0001E
F0001E
F0001E
F0001E
F0001E
F0001E
F0001E
F0001E
F0001E
F0001E
F0001E
F0001E
F0001E
F0001E
F0001E
F0001E
F0001E
F0001E
F0003E
F8003E
F8003E
78003C
7C007C
7E00FC
3F01F8
3FFFF0
1FFFE0
07FFC0
01FF00
ENDCHAR
STARTCHAR umacron
ENCODING -1
SWIDTH 600 0
DWIDTH 29 0
BBX 21 33 4 0
BITMAP
0FFF80
0FFF80
0FFF80
0FFF80
000000
000000
000000
F00078
F00078
F00078
F00078
F00078
F00078
F00078
F00078
F00078
F00078
F00078
F00078
F00078
F00078
F00078
F00078
F000F8
F000F8
F000F8
F800F8
F801F8
7C03F8
7FFF78
3FFF78
1FFC78
07F078
ENDCHAR
STARTCHAR Ubreve
ENCODING -1
SWIDTH 600 0
DWIDTH 29 0
BBX 23 44 3 0
BITMAP
0700E0
0700E0
0701E0
03FFC0
03FF80
01FF00
007E00
000000
000000
000000
F0001E
F0001E
F0001E
F0001E
F0001E
F0001E
F0001E
F0001E
F0001E
F0001E
F0001E
F0001E
F0001E
F0001E
F0001E
F0001E
F0001E
F0001E
F0001E
F0001E
F0001E
F0001E
F0001E
F0003E
F8003E
F8003E
78003C
7C007C
7E00FC
3F01F8
3FFFF0
1FFFE0
07FFC0
01FF00
ENDCHAR
STARTCHAR ubreve
ENCODING -1
SWIDTH 600 0
DWIDTH 29 0
BBX 21 36 4 0
BITMAP
0E01C0
0E01C0
0E03C0
07FF80
07FF00
03FE00
00FC00
000000
000000
000000
F00078
F00078
F00078
F00078
F00078
F00078
F00078
F00078
F00078
F00078
F00078
F00078
F00078
F00078
F00078
F00078
F000F8
F000F8
F000F8
F800F8
F801F8
7C03F8
7FFF78
3FFF78
1FFC78
07F078
ENDCHAR
STARTCHAR Uring
ENCODING -1
SWIDTH 600 0
DWIDTH 29 0
BBX 23 47 3 0
BITMAP
007C00
01FF00
01EF00
038380
038380
038380
038380
01EF00
01FF00
007C00
000000
000000
000000
F0001E
F0001E
F0001E
F0001E
F0001E
F0001E
F0001E
F0001E
F0001E
F0001E
F0001E
F0001E
F0001E
F0001E
F0001E
F0001E
F0001E
F0001E
F0001E
F0001E
F0001E
F0001E
F0001E
F0003E
F8003E
F8003E
78003C
7C007C
7E00FC
3F01F8
3FFFF0
1FFFE0
07FFC0
01FF00
ENDCHAR
STARTCHAR uring
ENCODING -1
SWIDTH 600 0
DWIDTH 29 0
BBX 21 39 4 0
BITMAP
00F800
03FE00
03DE00
070700
070700
070700
070700
03DE00
03FE00
00F800
000000
000000
000000
F00078
F00078
F00078
F00078
F00078
F00078
F00078
F00078
F00078
F00078
F00078
F00078
F00078
F00078
F00078
F00078
F000F8
F000F8
F000F8
F800F8
F801F8
7C03F8
7FFF78
3FFF78
1FFC78
07F078
ENDCHAR
STARTCHAR Uhungarumlaut
ENCODING -1
SWIDTH 600 0
DWIDTH 29 0
BBX 23 45 3 0
BITMAP
007C3E
00F87C
00F87C
01F0F8
01E0F0
03C1E0
0381C0
070380
000000
000000
000000
F0001E
F0001E
F0001E
F0001E
F0001E
F0001E
F0001E
F0001E
F0001E
F0001E
F0001E
F0001E
F0001E
F0001E
F0001E
F0001E
F0001E
F0001E
F0001E
F0001E
F0001E
F0001E
F0001E
F0003E
F8003E
F8003E
78003C
7C007C
7E00FC
3F01F8
3FFFF0
1FFFE0
07FFC0
01FF00
ENDCHAR
STARTCHAR uhungarumlaut
ENCODING -1
SWIDTH 600 0
DWIDTH 29 0
BBX 22 37 4 0
BITMAP
00F87C
01F0F8
01F0F8
03E1F0
03C1E0
0783C0
070380
0E0700
000000
000000
000000
F00078
F00078
F00078
F00078
F00078
F00078
F00078
F00078
F00078
F00078
F00078
F00078
F00078
F00078
F00078
F00078
F000F8
F000F8
F000F8
F800F8
F801F8
7C03F8
7FFF78
3FFF78
1FFC78
07F078
ENDCHAR
STARTCHAR Uogonek
ENCODING -1
SWIDTH 600 0
DWIDTH 29 0
BBX 23 45 3 -11
BITMAP
F0001E
F0001E
F0001E
F0001E
F0001E
F0001E
F0001E
F0001E
F0001E
F0001E
F0001E
F0001E
F0001E
F0001E
F0001E
F0001E
F0001E
F0001E
F0001E
F0001E
F0001E
F0001E
F0001E
F0003E
F8003E
F8003E
78003C
7C007C
7E00FC
3F01F8
3FFFF0
1FFFE0
07FFC0
01FF00
001E00
003C00
007800
007000
00F000
00E000
00E000
00F000
007F80
007F80
001F80
ENDCHAR
STARTCHAR uogonek
ENCODING -1
SWIDTH 600 0
DWIDTH 29 0
BBX 23 37 4 -11
BITMAP
F00078
F00078
F00078
F00078
F00078
F00078
F00078
F00078
F00078
F00078
F00078
F00078
F00078
F00078
F00078
F00078
F000F8
F000F8
F000F8
F800F8
F801F8
7C03F8
7FFF78
3FFF78
1FFC78
07F078
000078
0000F0
0001E0
0001C0
0003C0
000380
000380
0003C0
0001FE
0001FE
00007E
ENDCHAR
STARTCHAR Wcircumflex
ENCODING -1
SWIDTH 600 0
DWIDTH 29 0
BBX 29 45 0 0
BITMAP
000F8000
001FC000
001FE000
003DE000
007CF000
00F87800
00F03C00
01C01E00
00000000
00000000
00000000
F0000078
F0000078
F0000078
F0000078
78000070
780000F0
780000F0
780000F0
780000F0
780000F0
780000F0
3C0F80F0
3C0F80E0
3C0F80E0
3C1DC0E0
3C1DC1E0
3C1DC1E0
1C1DE1E0
1C3DE1E0
1E38E1E0
1E38E1C0
1E78F1C0
1E7871C0
1E7071C0
0E707BC0
0EF03BC0
0EE03BC0
0EE03BC0
0EE01F80
0EE01F80
0FC01F80
07C00F80
07C00F80
07800F80
ENDCHAR
STARTCHAR wcircumflex
ENCODING -1
SWIDTH 600 0
DWIDTH 29 0
BBX 29 37 0 0
BITMAP
000F8000
001FC000
001FE000
003DE000
007CF000
00F87800
00F03C00
01C01E00
00000000
00000000
00000000
F00F8078
F00F8078
700F8070
701FC070
781DC0F0
781DC0F0
781DC0F0
381DC0E0
383DE0E0
3C38E0E0
3C38E1E0
3C38E1E0
1C78F1C0
1C78F1C0
1C7071C0
1E7073C0
1E7073C0
0EF07B80
0EE03B80
0EE03B80
0EE03B80
0EE03B80
07E03F00
07C01F00
07C01F00
07C01F00
ENDCHAR
STARTCHAR Ycircumflex
ENCODING -1
SWIDTH 600 0
DWIDTH 29 0
BBX 27 45 1 0
BITMAP
001F0000
003F8000
003FC000
007BC000
00F9E000
01F0F000
01E07800
03803C00
00000000
00000000
00000000
F80003E0
780007C0
7C0007C0
3C000F80
3E000F80
1E001F00
1F001E00
0F003E00
0F803C00
07807C00
07C07800
03C0F800
01E0F000
01E1F000
00F1E000
00F3C000
007BC000
007F8000
003F8000
003F0000
001F0000
001E0000
001E0000
001E0000
001E0000
001E0000
001E0000
001E0000
001E0000
001E0000
001E0000
001E0000
001E0000
001E0000
ENDCHAR
STARTCHAR ycircumflex
ENCODING -1
SWIDTH 600 0
DWIDTH 29 0
BBX 25 49 2 -12
BITMAP
003E0000
007F0000
007F8000
00F78000
01F3C000
03E1E000
03C0F000
07007800
00000000
00000000
00000000
F8000F80
78000F00
78000F00
7C001F00
3C001E00
3E003E00
1E003E00
1E003C00
1F007C00
0F007800
0F807800
0780F800
0780F000
07C1F000
03C1E000
03E1E000
01E3E000
01E3C000
00F3C000
00F7C000
00F78000
00778000
007F0000
003F0000
003F0000
003E0000
003E0000
003C0000
003C0000
007C0000
00780000
00F80000
00F00000
01F00000
FFE00000
FFC00000
FF800000
FE000000
ENDCHAR
STARTCHAR Ydieresis
ENCODING -1
SWIDTH 600 0
DWIDTH 29 0
BBX 27 43 1 0
BITMAP
00E0E000
01E0F000
01F1F000
01E0F000
00E0E000
00000000
00000000
00000000
00000000
F80003E0
780007C0
7C0007C0
3C000F80
3E000F80
1E001F00
1F001E00
0F003E00
0F803C00
07807C00
07C07800
03C0F800
01E0F000
01E1F000
00F1E000
00F3C000
007BC000
007F8000
003F8000
003F0000
001F0000
001E0000
001E0000
001E0000
001E0000
001E0000
001E0000
001E0000
001E0000
001E0000
001E0000
001E0000
001E0000
001E0000
ENDCHAR
STARTCHAR Zacute
ENCODING -1
SWIDTH 600 0
DWIDTH 29 0
BBX 25 45 2 0
BITMAP
0003E000
0007C000
0007C000
000F8000
000F0000
001E0000
001C0000
00380000
00000000
00000000
00000000
7FFFFF80
7FFFFF80
7FFFFF80
7FFFFF80
00000F00
00001E00
00003E00
00007C00
00007800
0000F000
0001F000
0003E000
0003C000
00078000
000F8000
001F0000
001E0000
003C0000
007C0000
00F80000
00F00000
01E00000
03E00000
07C00000
07800000
0F000000
1F000000
3E000000
3C000000
78000000
FFFFFF80
FFFFFF80
FFFFFF80
FFFFFF80
ENDCHAR
STARTCHAR zacute
ENCODING -1
SWIDTH 600 0
DWIDTH 29 0
BBX 21 37 4 0
BITMAP
000F80
001F00
001F00
003E00
003C00
007800
007000
00E000
000000
000000
000000
7FFFF8
7FFFF8
7FFFF8
000078
0000F0
0001E0
0003E0
0007C0
000F80
001F00
001E00
003C00
007800
00F000
01F000
03E000
07C000
078000
0F0000
1E0000
3C0000
7C0000
F80000
FFFFF8
FFFFF8
FFFFF8
ENDCHAR
STARTCHAR Zdotaccent
ENCODING -1
SWIDTH 600 0
DWIDTH 29 0
BBX 25 43 2 0
BITMAP
001C0000
001E0000
001E0000
001E0000
001C0000
00000000
00000000
00000000
00000000
7FFFFF80
7FFFFF80
7FFFFF80
7FFFFF80
00000F00
00001E00
00003E00
00007C00
00007800
0000F000
0001F000
0003E000
0003C000
00078000
000F8000
001F0000
001E0000
003C0000
007C0000
00F80000
00F00000
01E00000
03E00000
07C00000
07800000
0F000000
1F000000
3E000000
3C000000
78000000
FFFFFF80
FFFFFF80
FFFFFF80
FFFFFF80
ENDCHAR
STARTCHAR zdotaccent
ENCODING -1
SWIDTH 600 0
DWIDTH 29 0
BBX 21 35 4 0
BITMAP
007000
007800
007800
007800
007000
000000
000000
000000
000000
7FFFF8
7FFFF8
7FFFF8
000078
0000F0
0001E0
0003E0
0007C0
000F80
001F00
001E00
003C00
007800
00F000
01F000
03E000
07C000
078000
0F0000
1E0000
3C0000
7C0000
F80000
FFFFF8
FFFFF8
FFFFF8
ENDCHAR
STARTCHAR Zcaron
ENCODING -1
SWIDTH 600 0
DWIDTH 29 0
BBX 25 45 2 0
BITMAP
07007800
03C0F000
03E1E000
01F3C000
00F78000
007F8000
007F0000
003E0000
00000000
00000000
00000000
7FFFFF80
7FFFFF80
7FFFFF80
7FFFFF80
00000F00
00001E00
00003E00
00007C00
00007800
0000F000
0001F000
0003E000
0003C000
00078000
000F8000
001F0000
001E0000
003C0000
007C0000
00F80000
00F00000
01E00000
03E00000
07C00000
07800000
0F000000
1F000000
3E000000
3C000000
78000000
FFFFFF80
FFFFFF80
FFFFFF80
FFFFFF80
ENDCHAR
STARTCHAR zcaron
ENCODING -1
SWIDTH 600 0
DWIDTH 29 0
BBX 21 37 4 0
BITMAP
1C01E0
0F03C0
0F8780
07CF00
03DE00
01FE00
01FC00
00F800
000000
000000
000000
7FFFF8
7FFFF8
7FFFF8
000078
0000F0
0001E0
0003E0
0007C0
000F80
001F00
001E00
003C00
007800
00F000
01F000
03E000
07C000
078000
0F0000
1E0000
3C0000
7C0000
F80000
FFFFF8
FFFFF8
FFFFF8
ENDCHAR
STARTCHAR longs
ENCODING -1
SWIDTH 600 0
DWIDTH 29 0
BBX 16 36 8 0
BITMAP
07FC
1FFF
3FFF
7FFE
7C00
F800
F000
F000
F000
F000
F000
F000
F000
F000
F000
F000
F000
F000
F000
F000
F000
F000
F000
F000
F000
F000
F000
F000
F000
F000
F000
F000
F000
F000
F000
F000
ENDCHAR
STARTCHAR florin
ENCODING -1
SWIDTH 600 0
DWIDTH 29 0
BBX 19 46 5 -12
BITMAP
001FC0
007FE0
00FFC0
01FFC0
01E000
03E000
03E000
03C000
03C000
03C000
03C000
03C000
0FFF00
3FFF00
3FFF00
03C000
03C000
03C000
03C000
03C000
03C000
03C000
03C000
03C000
03C000
03C000
03C000
03C000
03C000
03C000
03C000
03C000
03C000
03C000
03C000
03C000
03C000
03C000
03C000
03C000
03C000
07C000
FFC000
FF8000
FF0000
FC0000
ENDCHAR
STARTCHAR Aringacute
ENCODING -1
SWIDTH 600 0
DWIDTH 29 0
BBX 27 51 1 0
BITMAP
0003E000
0007C000
0007C000
000F8000
000F0000
001E0000
001C0000
00380000
00000000
001F0000
007FC000
007BC000
00E0E000
00E0E000
00E0E000
00E0E000
007BC000
007FC000
001F0000
003F8000
003F8000
003F8000
007BC000
007BC000
007BC000
00FBE000
00F1E000
00F1E000
01F1F000
01E0F000
01E0F000
03E0F800
03C07800
03C07800
07C07C00
07C03C00
07803C00
0FFFFE00
0FFFFE00
0FFFFE00
1FFFFF00
1F001F00
1E000F00
3E000F80
3E000F80
3C000780
7C0007C0
7C0007C0
780003C0
F80003E0
F80003E0
ENDCHAR
STARTCHAR aringacute
ENCODING -1
SWIDTH 600 0
DWIDTH 29 0
BBX 21 48 3 0
BITMAP
000F80
001F00
001F00
003E00
003C00
007800
007000
00E000
000000
007C00
01FF00
01EF00
038380
038380
038380
038380
01EF00
01FF00
007C00
000000
000000
000000
01FE00
0FFFC0
3FFFE0
3FFFF0
1C01F0
0000F8
0000F8
000078
000078
000078
00FFF8
07FFF8
1FFFF8
3FC078
7C0078
F80078
F80078
F000F8
F000F8
F000F8
F801F8
7C03F8
7F3F78
3FFE78
1FFC38
07F038
ENDCHAR
STARTCHAR AEacute
ENCODING -1
SWIDTH 600 0
DWIDTH 29 0
BBX 28 45 0 0
BITMAP
00001F00
00003E00
00003E00
00007C00
00007800
0000F000
0000E000
0001C000
00000000
00000000
00000000
00FFFFF0
00FFFFF0
01FFFFF0
01FFFFF0
01E78000
01C78000
03C78000
03C78000
03C78000
03878000
03878000
07878000
07878000
07878000
0707FFE0
0F07FFE0
0F07FFE0
0F07FFE0
0F078000
1E078000
1FFF8000
1FFF8000
1FFF8000
3FFF8000
3C078000
3C078000
3C078000
3C078000
78078000
78078000
7807FFF0
7807FFF0
F007FFF0
F007FFF0
ENDCHAR
STARTCHAR aeacute
ENCODING -1
SWIDTH 600 0
DWIDTH 29 0
BBX 27 37 1 0
BITMAP
0000F800
0001F000
0001F000
0003E000
0003C000
00078000
00070000
000E0000
00000000
00000000
00000000
07E07C00
1FF0FF00
3FF9FF80
3FFFFF80
103F87C0
001F03C0
001F03C0
001F01E0
001E01E0
001E01E0
07FFFFE0
1FFFFFE0
3FFFFFE0
7E1FFFE0
7C1E0000
F81E0000
F01F0000
F01F0000
F01F0000
F03F0000
F83F8000
F87FC0C0
7FF3FFC0
7FE1FFC0
3FC0FFC0
0F803F00
ENDCHAR
STARTCHAR Oslashacute
ENCODING -1
SWIDTH 600 0
DWIDTH 29 0
BBX 25 46 2 -1
BITMAP
0003E000
0007C000
0007C000
000F8000
000F0000
001E0000
001C0000
00380000
00000000
00000000
00000200
007F0780
03FFEF80
07FFFF00
0FFFFE00
1F80FE00
3F007C00
3E007E00
7C007E00
7C00FF00
7C01FF00
7801EF00
F803CF80
F807CF80
F8078F80
F80F0F80
F81F0F80
F81E0F80
F83C0F80
F87C0F80
F8780F80
F8F80F80
F8F00F80
F9E00F80
7BE00F00
7BC01F00
7F801F00
7F801E00
3F003E00
3F007C00
3F80FC00
3FFFF800
7FFFF000
7BFFE000
F07F0000
30000000
ENDCHAR
STARTCHAR oslashacute
ENCODING -1
SWIDTH 600 0
DWIDTH 29 0
BBX 23 38 3 -1
BITMAP
0007C0
000F80
000F80
001F00
001E00
003C00
003800
007000
000000
000000
000030
00FE7C
07FFF8
0FFFF0
1FFFF0
3E01F8
3C03F8
7C03FC
7807BC
F80F3C
F80F3E
F81E3E
F03E1E
F03C1E
F0781E
F0781E
F8F03E
F9E03E
79E03C
7BC03C
7FC07C
3F8078
3F01F8
1FFFF0
1FFFE0
3FFF80
7CFE00
180000
ENDCHAR
STARTCHAR uni0218
ENCODING -1
SWIDTH 600 0
DWIDTH 29 0
BBX 22 45 4 -11
BITMAP
01FF80
0FFFF0
1FFFF8
3FFFF0
7E00F0
F80010
F80000
F00000
F00000
F00000
F80000
F80000
7C0000
7F0000
3FC000
1FF800
07FF00
01FFC0
003FE0
000FF0
0001F8
0000F8
00007C
00007C
00003C
00003C
00007C
00007C
8000F8
F001F8
FFFFF0
FFFFE0
FFFF80
0FFC00
000000
000000
000000
003C00
003C00
007800
007800
007000
007000
00E000
00E000
ENDCHAR
STARTCHAR uni0219
ENCODING -1
SWIDTH 600 0
DWIDTH 29 0
BBX 19 37 5 -11
BITMAP
03FE00
1FFFC0
3FFFE0
7FFFC0
F801C0
F00000
F00000
F00000
F80000
7E0000
7F8000
3FF000
0FFC00
03FF00
007F80
000FC0
0007E0
0003E0
0001E0
0001E0
0003E0
E007C0
FFFFC0
FFFF80
FFFF00
1FF800
000000
000000
000000
00F000
00F000
01E000
01E000
01C000
01C000
038000
038000
ENDCHAR
STARTCHAR circumflex
ENCODING -1
SWIDTH 600 0
DWIDTH 29 0
BBX 16 8 6 29
BITMAP
07C0
0FE0
0FF0
1EF0
3E78
7C3C
781E
E00F
ENDCHAR
STARTCHAR caron
ENCODING -1
SWIDTH 600 0
DWIDTH 29 0
BBX 16 8 6 29
BITMAP
E00F
781E
7C3C
3E78
1EF0
0FF0
0FE0
07C0
ENDCHAR
STARTCHAR uni02C9
ENCODING -1
SWIDTH 600 0
DWIDTH 29 0
BBX 13 4 8 29
BITMAP
FFF8
FFF8
FFF8
FFF8
ENDCHAR
STARTCHAR breve
ENCODING -1
SWIDTH 600 0
DWIDTH 29 0
BBX 14 7 8 29
BITMAP
E01C
E01C
E03C
7FF8
7FF0
3FE0
0FC0
ENDCHAR
STARTCHAR dotaccent
ENCODING -1
SWIDTH 600 0
DWIDTH 29 0
BBX 4 5 13 30
BITMAP
E0
F0
F0
F0
E0
ENDCHAR
STARTCHAR ring
ENCODING -1
SWIDTH 600 0
DWIDTH 29 0
BBX 11 10 9 29
BITMAP
1F00
7FC0
7BC0
E0E0
E0E0
E0E0
E0E0
7BC0
7FC0
1F00
ENDCHAR
STARTCHAR ogonek
ENCODING -1
SWIDTH 600 0
DWIDTH 29 0
BBX 9 11 10 -11
BITMAP
1E00
3C00
7800
7000
F000
E000
E000
F000
7F80
7F80
1F80
ENDCHAR
STARTCHAR tilde
ENCODING -1
SWIDTH 600 0
DWIDTH 29 0
BBX 17 7 6 29
BITMAP
1E0380
3F0380
7FC380
7FFF00
E1FF00
E07E00
E03C00
ENDCHAR
STARTCHAR hungarumlaut
ENCODING -1
SWIDTH 600 0
DWIDTH 29 0
BBX 18 8 5 29
BITMAP
0F87C0
1F0F80
1F0F80
3E1F00
3C1E00
783C00
703800
E07000
ENDCHAR
STARTCHAR tonos
ENCODING -1
SWIDTH 600 0
DWIDTH 29 0
BBX 6 8 12 29
BITMAP
7C
7C
78
78
70
F0
E0
E0
ENDCHAR
STARTCHAR dieresistonos
ENCODING -1
SWIDTH 600 0
DWIDTH 29 0
BBX 15 10 7 30
BITMAP
00F8
00F0
01F0
01E0
01E0
71DC
F39E
FB3E
F01E
701C
ENDCHAR
STARTCHAR Alphatonos
ENCODING -1
SWIDTH 600 0
DWIDTH 29 0
BBX 27 34 1 0
BITMAP
7C1F0000
7C1F0000
783F8000
783F8000
703F8000
F07BC000
E07BC000
E07BC000
00FBE000
00F1E000
00F1E000
01F1F000
01E0F000
01E0F000
03E0F800
03C07800
03C07800
07C07C00
07C03C00
07803C00
0FFFFE00
0FFFFE00
0FFFFE00
1FFFFF00
1F001F00
1E000F00
3E000F80
3E000F80
3C000780
7C0007C0
7C0007C0
780003C0
F80003E0
F80003E0
ENDCHAR
STARTCHAR anoteleia
ENCODING -1
SWIDTH 600 0
DWIDTH 29 0
BBX 6 7 11 14
BITMAP
78
FC
FC
FC
FC
FC
78
ENDCHAR
STARTCHAR Epsilontonos
ENCODING -1
SWIDTH 600 0
DWIDTH 29 0
BBX 27 34 -2 0
BITMAP
7DFFFFE0
7DFFFFE0
79FFFFE0
79FFFFE0
71E00000
F1E00000
E1E00000
E1E00000
01E00000
01E00000
01E00000
01E00000
01E00000
01E00000
01FFFFC0
01FFFFC0
01FFFFC0
01FFFFC0
01E00000
01E00000
01E00000
01E00000
01E00000
01E00000
01E00000
01E00000
01E00000
01E00000
01E00000
01E00000
01FFFFE0
01FFFFE0
01FFFFE0
01FFFFE0
ENDCHAR
STARTCHAR Etatonos
ENCODING -1
SWIDTH 600 0
DWIDTH 29 0
BBX 29 34 -3 0
BITMAP
7FC00078
7FC00078
7BC00078
7BC00078
73C00078
F3C00078
E3C00078
E3C00078
03C00078
03C00078
03C00078
03C00078
03C00078
03C00078
03FFFFF8
03FFFFF8
03FFFFF8
03FFFFF8
03C00078
03C00078
03C00078
03C00078
03C00078
03C00078
03C00078
03C00078
03C00078
03C00078
03C00078
03C00078
03C00078
03C00078
03C00078
03C00078
ENDCHAR
STARTCHAR Iotatonos
ENCODING -1
SWIDTH 600 0
DWIDTH 29 0
BBX 25 34 -2 0
BITMAP
7DFFFF80
7DFFFF80
79FFFF80
7803C000
7003C000
F003C000
E003C000
E003C000
0003C000
0003C000
0003C000
0003C000
0003C000
0003C000
0003C000
0003C000
0003C000
0003C000
0003C000
0003C000
0003C000
0003C000
0003C000
0003C000
0003C000
0003C000
0003C000
0003C000
0003C000
0003C000
0003C000
01FFFF80
01FFFF80
01FFFF80
ENDCHAR
STARTCHAR Omicrontonos
ENCODING -1
SWIDTH 600 0
DWIDTH 29 0
BBX 30 34 -3 0
BITMAP
7C03F800
7C1FFF00
783FFF80
787FFFC0
70FC07E0
F1F803E0
E1F001F0
E3E000F0
03E000F8
03E000F8
03C00078
07C0007C
07C0007C
07C0007C
07C0007C
07C0007C
07C0007C
07C0007C
07C0007C
07C0007C
07C0007C
07C0007C
07C0007C
03C00078
03E000F8
03E000F8
03E000F0
01F001F0
01F803E0
00FC07E0
007FFFC0
003FFF80
001FFF00
0003F800
ENDCHAR
STARTCHAR Upsilontonos
ENCODING -1
SWIDTH 600 0
DWIDTH 29 0
BBX 33 34 -5 0
BITMAP
7FE0000F80
7DE0001F00
79F0001F00
78F0003E00
70F8003E00
F078007C00
E07C007800
E03C00F800
003E00F000
001E01F000
001F01E000
000F03E000
000783C000
000787C000
0003C78000
0003CF0000
0001EF0000
0001FE0000
0000FE0000
0000FC0000
00007C0000
0000780000
0000780000
0000780000
0000780000
0000780000
0000780000
0000780000
0000780000
0000780000
0000780000
0000780000
0000780000
0000780000
ENDCHAR
STARTCHAR Omegatonos
ENCODING -1
SWIDTH 600 0
DWIDTH 29 0
BBX 30 34 -3 0
BITMAP
7C03F800
7C1FFF00
783FFF80
787FFFC0
70FC07E0
F1F803F0
E1F001F0
E3E000F8
03E000F8
03C00078
07C0007C
07C0007C
07C0007C
07C0007C
07C0007C
07C0007C
07C0007C
07C0007C
07C0007C
07C0007C
03C0007C
03C00078
03E000F8
03E000F8
01E000F0
01F001F0
00F001E0
007803E0
003C03C0
001E0780
07FF0FFC
07FF0FFC
07FF0FFC
07FF0FFC
ENDCHAR
STARTCHAR iotadieresistonos
ENCODING -1
SWIDTH 600 0
DWIDTH 29 0
BBX 18 40 6 0
BITMAP
00F800
00F000
01F000
01E000
01E000
71DC00
F39E00
FB3E00
F01E00
701C00
000000
000000
000000
000000
0F0000
0F0000
0F0000
0F0000
0F0000
0F0000
0F0000
0F0000
0F0000
0F0000
0F0000
0F0000
0F0000
0F0000
0F0000
0F0000
0F0000
0F0000
0F0000
0F0000
0F8000
07C000
07FFC0
03FFC0
01FFC0
007F80
ENDCHAR
STARTCHAR Alpha
ENCODING -1
SWIDTH 600 0
DWIDTH 29 0
BBX 27 34 1 0
BITMAP
001F0000
001F0000
003F8000
003F8000
003F8000
007BC000
007BC000
007BC000
00FBE000
00F1E000
00F1E000
01F1F000
01E0F000
01E0F000
03E0F800
03C07800
03C07800
07C07C00
07C03C00
07803C00
0FFFFE00
0FFFFE00
0FFFFE00
1FFFFF00
1F001F00
1E000F00
3E000F80
3E000F80
3C000780
7C0007C0
7C0007C0
780003C0
F80003E0
F80003E0
ENDCHAR
STARTCHAR Beta
ENCODING -1
SWIDTH 600 0
DWIDTH 29 0
BBX 24 34 3 0
BITMAP
FFFF00
FFFFE0
FFFFF8
FFFFFC
F000FC
F0007E
F0003E
F0003E
F0003E
F0003E
F0003E
F0003C
F0007C
F001F8
FFFFE0
FFFF00
FFFFE0
FFFFF8
F000FC
F0003E
F0001E
F0001F
F0001F
F0001F
F0001F
F0001F
F0001F
F0003E
F0003E
F000FC
FFFFFC
FFFFF8
FFFFE0
FFFF80
ENDCHAR
STARTCHAR Gamma
ENCODING -1
SWIDTH 600 0
DWIDTH 29 0
BBX 19 34 6 0
BITMAP
FFFFE0
FFFFE0
FFFFE0
FFFFE0
F00000
F00000
F00000
F00000
F00000
F00000
F00000
F00000
F00000
F00000
F00000
F00000
F00000
F00000
F00000
F00000
F00000
F00000
F00000
F00000
F00000
F00000
F00000
F00000
F00000
F00000
F00000
F00000
F00000
F00000
ENDCHAR
STARTCHAR uni0394
ENCODING -1
SWIDTH 600 0
DWIDTH 29 0
BBX 25 34 2 0
BITMAP
003E0000
003E0000
007F0000
007F0000
007F0000
00F78000
00F78000
00F78000
01F7C000
01E3C000
01E3C000
03E3E000
03E1E000
03C1E000
07C1F000
07C1F000
0780F000
0F80F800
0F80F800
0F007800
1F007C00
1F007C00
1E003C00
3E003C00
3E003E00
3C001E00
7C001E00
7C001F00
78000F00
F8000F00
FFFFFF80
FFFFFF80
FFFFFF80
FFFFFF80
ENDCHAR
STARTCHAR Epsilon
ENCODING -1
SWIDTH 600 0
DWIDTH 29 0
BBX 20 34 5 0
BITMAP
FFFFF0
FFFFF0
FFFFF0
FFFFF0
F00000
F00000
F00000
F00000
F00000
F00000
F00000
F00000
F00000
F00000
FFFFE0
FFFFE0
FFFFE0
FFFFE0
F00000
F00000
F00000
F00000
F00000
F00000
F00000
F00000
F00000
F00000
F00000
F00000
FFFFF0
FFFFF0
FFFFF0
FFFFF0
ENDCHAR
STARTCHAR Zeta
ENCODING -1
SWIDTH 600 0
DWIDTH 29 0
BBX 25 34 2 0
BITMAP
7FFFFF80
7FFFFF80
7FFFFF80
7FFFFF80
00000F00
00001E00
00003E00
00007C00
00007800
0000F000
0001F000
0003E000
0003C000
00078000
000F8000
001F0000
001E0000
003C0000
007C0000
00F80000
00F00000
01E00000
03E00000
07C00000
07800000
0F000000
1F000000
3E000000
3C000000
78000000
FFFFFF80
FFFFFF80
FFFFFF80
FFFFFF80
ENDCHAR
STARTCHAR Eta
ENCODING -1
SWIDTH 600 0
DWIDTH 29 0
BBX 23 34 3 0
BITMAP
F0001E
F0001E
F0001E
F0001E
F0001E
F0001E
F0001E
F0001E
F0001E
F0001E
F0001E
F0001E
F0001E
F0001E
FFFFFE
FFFFFE
FFFFFE
FFFFFE
F0001E
F0001E
F0001E
F0001E
F0001E
F0001E
F0001E
F0001E
F0001E
F0001E
F0001E
F0001E
F0001E
F0001E
F0001E
F0001E
ENDCHAR
STARTCHAR Theta
ENCODING -1
SWIDTH 600 0
DWIDTH 29 0
BBX 25 34 2 0
BITMAP
007F0000
03FFE000
07FFF000
0FFFF800
1F80FC00
3F007C00
3E003E00
7C001E00
7C001F00
7C001F00
78000F00
F8000F80
F8000F80
F8000F80
F8000F80
F8FF8F80
F8FF8F80
F8FF8F80
F8FF8F80
F8000F80
F8000F80
F8000F80
F8000F80
78000F00
7C001F00
7C001F00
7C001E00
3E003E00
3F007C00
1F80FC00
0FFFF800
07FFF000
03FFE000
007F0000
ENDCHAR
STARTCHAR Iota
ENCODING -1
SWIDTH 600 0
DWIDTH 29 0
BBX 18 34 5 0
BITMAP
FFFFC0
FFFFC0
FFFFC0
01E000
01E000
01E000
01E000
01E000
01E000
01E000
01E000
01E000
01E000
01E000
01E000
01E000
01E000
01E000
01E000
01E000
01E000
01E000
01E000
01E000
01E000
01E000
01E000
01E000
01E000
01E000
01E000
FFFFC0
FFFFC0
FFFFC0
ENDCHAR
STARTCHAR Kappa
ENCODING -1
SWIDTH 600 0
DWIDTH 29 0
BBX 23 34 5 0
BITMAP
F0003E
F0007C
F000F8
F001F0
F003E0
F003E0
F007C0
F00F80
F01F00
F03E00
F07C00
F07800
F0F800
F1F000
F3E000
F7E000
F7F000
FFF000
FEF800
FC7C00
F07C00
F03E00
F01F00
F01F00
F00F80
F007C0
F007C0
F003E0
F001F0
F001F0
F000F8
F0007C
F0007C
F0003E
ENDCHAR
STARTCHAR Lambda
ENCODING -1
SWIDTH 600 0
DWIDTH 29 0
BBX 27 34 1 0
BITMAP
001F0000
001F0000
003F8000
003F8000
003F8000
007BC000
007BC000
007BC000
00FBE000
00F1E000
00F1E000
01F1F000
01E0F000
01E0F000
03E0F800
03C07800
03C07800
07C07C00
07C07C00
07803C00
0F803E00
0F803E00
0F001E00
1F001F00
1F001F00
1E000F00
3E000F80
3E000F80
3C000780
7C0007C0
7C0007C0
780003C0
F80003E0
F80003E0
ENDCHAR
STARTCHAR Mu
ENCODING -1
SWIDTH 600 0
DWIDTH 29 0
BBX 23 34 3 0
BITMAP
FC007E
FC007E
FC007E
FC00FE
FE00EE
EE00EE
EE00EE
EE00EE
EE01EE
EF01CE
E701DE
F701DE
F701DE
F703DE
F7839E
F3839E
F3839E
F3839E
F3871E
F1C71E
F1C71E
F1C71E
F1C71E
F1CE1E
F0EE1E
F0EE1E
F0EE1E
F0EE1E
F0FC1E
F07C1E
F07C1E
F07C1E
F0781E
F0381E
ENDCHAR
STARTCHAR Nu
ENCODING -1
SWIDTH 600 0
DWIDTH 29 0
BBX 23 34 3 0
BITMAP
F8001E
FC001E
FC001E
FE001E
FE001E
FF001E
FF001E
F7801E
F7801E
F3C01E
F3C01E
F1E01E
F1E01E
F0F01E
F0F01E
F0781E
F0781E
F03C1E
F03C1E
F01E1E
F01E1E
F00F1E
F00F1E
F0079E
F0079E
F003DE
F003DE
F001FE
F001FE
F000FE
F000FE
F0007E
F0007E
F0003E
ENDCHAR
STARTCHAR Xi
ENCODING -1
SWIDTH 600 0
DWIDTH 29 0
BBX 23 34 3 0
BITMAP
7FFFFC
7FFFFC
7FFFFC
7FFFFC
000000
000000
000000
000000
000000
000000
000000
000000
000000
000000
1FFFF0
1FFFF0
1FFFF0
1FFFF0
000000
000000
000000
000000
000000
000000
000000
000000
000000
000000
000000
000000
FFFFFE
FFFFFE
FFFFFE
FFFFFE
ENDCHAR
STARTCHAR Omicron
ENCODING -1
SWIDTH 600 0
DWIDTH 29 0
BBX 25 34 2 0
BITMAP
007F0000
03FFE000
07FFF000
0FFFF800
1F80FC00
3F007C00
3E003E00
7C001E00
7C001F00
7C001F00
78000F00
F8000F80
F8000F80
F8000F80
F8000F80
F8000F80
F8000F80
F8000F80
F8000F80
F8000F80
F8000F80
F8000F80
F8000F80
78000F00
7C001F00
7C001F00
7C001E00
3E003E00
3F007C00
1F80FC00
0FFFF800
07FFF000
03FFE000
007F0000
ENDCHAR
STARTCHAR Pi
ENCODING -1
SWIDTH 600 0
DWIDTH 29 0
BBX 23 34 3 0
BITMAP
FFFFFE
FFFFFE
FFFFFE
FFFFFE
F0001E
F0001E
F0001E
F0001E
F0001E
F0001E
F0001E
F0001E
F0001E
F0001E
F0001E
F0001E
F0001E
F0001E
F0001E
F0001E
F0001E
F0001E
F0001E
F0001E
F0001E
F0001E
F0001E
F0001E
F0001E
F0001E
F0001E
F0001E
F0001E
F0001E
ENDCHAR
STARTCHAR Rho
ENCODING -1
SWIDTH 600 0
DWIDTH 29 0
BBX 22 34 4 0
BITMAP
FFFC00
FFFF80
FFFFE0
FFFFF0
F003F8
F001F8
F000FC
F0007C
F0007C
F0007C
F0007C
F0007C
F0007C
F0007C
F000F8
F001F8
F007F0
FFFFE0
FFFFC0
FFFF00
FFF800
F00000
F00000
F00000
F00000
F00000
F00000
F00000
F00000
F00000
F00000
F00000
F00000
F00000
ENDCHAR
STARTCHAR Sigma
ENCODING -1
SWIDTH 600 0
DWIDTH 29 0
BBX 23 34 3 0
BITMAP
FFFFFC
FFFFFC
FFFFFC
FFFFFC
7C0000
3E0000
1E0000
1F0000
0F8000
07C000
03C000
03E000
01F000
00F800
007C00
003C00
003C00
007C00
00F800
00F000
01F000
03E000
07C000
078000
0F8000
1F0000
1E0000
3E0000
7C0000
780000
FFFFFE
FFFFFE
FFFFFE
FFFFFE
ENDCHAR
STARTCHAR Tau
ENCODING -1
SWIDTH 600 0
DWIDTH 29 0
BBX 24 34 2 0
BITMAP
FFFFFF
FFFFFF
FFFFFF
FFFFFF
003C00
003C00
003C00
003C00
003C00
003C00
003C00
003C00
003C00
003C00
003C00
003C00
003C00
003C00
003C00
003C00
003C00
003C00
003C00
003C00
003C00
003C00
003C00
003C00
003C00
003C00
003C00
003C00
003C00
003C00
ENDCHAR
STARTCHAR Upsilon
ENCODING -1
SWIDTH 600 0
DWIDTH 29 0
BBX 27 34 1 0
BITMAP
F80003E0
780007C0
7C0007C0
3C000F80
3E000F80
1E001F00
1F001E00
0F003E00
0F803C00
07807C00
07C07800
03C0F800
01E0F000
01E1F000
00F1E000
00F3C000
007BC000
007F8000
003F8000
003F0000
001F0000
001E0000
001E0000
001E0000
001E0000
001E0000
001E0000
001E0000
001E0000
001E0000
001E0000
001E0000
001E0000
001E0000
ENDCHAR
STARTCHAR Phi
ENCODING -1
SWIDTH 600 0
DWIDTH 29 0
BBX 27 34 1 0
BITMAP
000F0000
000F0000
000F0000
000F0000
01FFF000
07FFFC00
0FFFFF00
1FFFFF00
3F0F0F80
3E0F07C0
7C0F07C0
780F03C0
F80F03E0
F80F03E0
F00F01E0
F00F01E0
F00F01E0
F00F01E0
F80F03E0
F80F03E0
F80F03E0
780F03C0
7C0F07C0
3E0F0780
3F0F1F80
1FFFFF00
0FFFFE00
07FFFC00
00FFF000
000F0000
000F0000
000F0000
000F0000
000F0000
ENDCHAR
STARTCHAR Chi
ENCODING -1
SWIDTH 600 0
DWIDTH 29 0
BBX 27 34 1 0
BITMAP
7C0007C0
3E000780
1E000F00
1F001F00
0F001E00
0F803E00
07C07C00
03C07800
03E0F800
01E0F000
00F1E000
00FBE000
007BC000
007F8000
003F8000
001F0000
001F0000
003F8000
003FC000
007BC000
00FBE000
00F1E000
01E1F000
03E0F800
03C07800
07C07C00
07803C00
0F003E00
1F001F00
1E001F00
3E000F80
3C000780
780007C0
F80003E0
ENDCHAR
STARTCHAR Psi
ENCODING -1
SWIDTH 600 0
DWIDTH 29 0
BBX 27 34 1 0
BITMAP
F01E01E0
F01E01E0
F01E01E0
F01E01E0
F01E01E0
F01E01E0
F01E01E0
F01E01E0
F01E01E0
F01E01E0
F01E01E0
F01E01E0
F01E01E0
F01E01E0
F81E03E0
F81E03E0
F81E03C0
781E03C0
7C1E07C0
3E1E0F80
3FFFFF80
1FFFFF00
0FFFFC00
01FFF000
001E0000
001E0000
001E0000
001E0000
001E0000
001E0000
001E0000
001E0000
001E0000
001E0000
ENDCHAR
STARTCHAR uni03A9
ENCODING -1
SWIDTH 600 0
DWIDTH 29 0
BBX 25 34 2 0
BITMAP
007F0000
03FFE000
07FFF000
0FFFF800
1F80FC00
3F007E00
3E003E00
7C001F00
7C001F00
78000F00
F8000F80
F8000F80
F8000F80
F8000F80
F8000F80
F8000F80
F8000F80
F8000F80
F8000F80
F8000F80
78000F80
78000F00
7C001F00
7C001F00
3C001E00
3E003E00
1E003C00
0F007C00
07807800
03C0F000
FFE1FF80
FFE1FF80
FFE1FF80
FFE1FF80
ENDCHAR
STARTCHAR Iotadieresis
ENCODING -1
SWIDTH 600 0
DWIDTH 29 0
BBX 18 43 5 0
BITMAP
0E0E00
1E0F00
1F1F00
1E0F00
0E0E00
000000
000000
000000
000000
FFFFC0
FFFFC0
FFFFC0
01E000
01E000
01E000
01E000
01E000
01E000
01E000
01E000
01E000
01E000
01E000
01E000
01E000
01E000
01E000
01E000
01E000
01E000
01E000
01E000
01E000
01E000
01E000
01E000
01E000
01E000
01E000
01E000
FFFFC0
FFFFC0
FFFFC0
ENDCHAR
STARTCHAR Upsilondieresis
ENCODING -1
SWIDTH 600 0
DWIDTH 29 0
BBX 27 43 1 0
BITMAP
00E0E000
01E0F000
01F1F000
01E0F000
00E0E000
00000000
00000000
00000000
00000000
F80003E0
780007C0
7C0007C0
3C000F80
3E000F80
1E001F00
1F001E00
0F003E00
0F803C00
07807C00
07C07800
03C0F800
01E0F000
01E1F000
00F1E000
00F3C000
007BC000
007F8000
003F8000
003F0000
001F0000
001E0000
001E0000
001E0000
001E0000
001E0000
001E0000
001E0000
001E0000
001E0000
001E0000
001E0000
001E0000
001E0000
ENDCHAR
STARTCHAR alphatonos
ENCODING -1
SWIDTH 600 0
DWIDTH 29 0
BBX 24 37 3 0
BITMAP
003E00
003E00
003C00
003C00
003800
007800
007000
007000
000000
000000
000000
01F81C
07FE3C
1FFF3C
1FFFF8
3E03F8
7C01F8
7C00F8
7800F8
F800F8
F800F8
F80078
F00078
F00078
F00078
F00078
F80078
F800F8
F800F8
7800F8
7C00F8
7C01F8
3E03F8
3FFF7F
1FFF7F
0FFE3F
03F81F
ENDCHAR
STARTCHAR epsilontonos
ENCODING -1
SWIDTH 600 0
DWIDTH 29 0
BBX 19 37 5 0
BITMAP
003E00
003E00
003C00
003C00
003800
007800
007000
007000
000000
000000
000000
03FE00
0FFFC0
1FFFE0
3FFFC0
7E00C0
7C0000
780000
780000
7C0000
3C0000
3F0000
1FFE00
07FE00
0FFE00
3FFE00
7C0000
F80000
F00000
F00000
F00000
F80000
FC0060
7FFFE0
3FFFE0
1FFFC0
03FF00
ENDCHAR
STARTCHAR etatonos
ENCODING -1
SWIDTH 600 0
DWIDTH 29 0
BBX 21 49 4 -12
BITMAP
001F00
001F00
001E00
001E00
001C00
003C00
003800
003800
000000
000000
000000
F07F00
F1FFC0
F7FFE0
F7FFF0
FE01F0
FC00F0
FC00F8
F800F8
F80078
F80078
F00078
F00078
F00078
F00078
F00078
F00078
F00078
F00078
F00078
F00078
F00078
F00078
F00078
F00078
F00078
F00078
000078
000078
000078
000078
000078
000078
000078
000078
000078
000078
000078
000078
ENDCHAR
STARTCHAR iotatonos
ENCODING -1
SWIDTH 600 0
DWIDTH 29 0
BBX 14 37 10 0
BITMAP
3E00
3E00
3C00
3C00
3800
7800
7000
7000
0000
0000
0000
F000
F000
F000
F000
F000
F000
F000
F000
F000
F000
F000
F000
F000
F000
F000
F000
F000
F000
F000
F000
F800
7C00
7FFC
3FFC
1FFC
07F8
ENDCHAR
STARTCHAR upsilondieresistonos
ENCODING -1
SWIDTH 600 0
DWIDTH 29 0
BBX 22 40 4 0
BITMAP
001F00
001E00
003E00
003C00
003C00
0E3B80
1E73C0
1F67C0
1E03C0
0E0380
000000
000000
000000
000000
F000F0
F00078
F00078
F00078
F00078
F0007C
F0007C
F0003C
F0003C
F0003C
F0003C
F0003C
F0003C
F0003C
F0003C
F0007C
F0007C
F80078
F80078
7800F8
7C00F0
3E03F0
3FFFE0
1FFFC0
0FFF80
01FE00
ENDCHAR
STARTCHAR alpha
ENCODING -1
SWIDTH 600 0
DWIDTH 29 0
BBX 24 26 3 0
BITMAP
01F81C
07FE3C
1FFF3C
1FFFF8
3E03F8
7C01F8
7C00F8
7800F8
F800F8
F800F8
F80078
F00078
F00078
F00078
F00078
F80078
F800F8
F800F8
7800F8
7C00F8
7C01F8
3E03F8
3FFF7F
1FFF7F
0FFE3F
03F81F
ENDCHAR
STARTCHAR beta
ENCODING -1
SWIDTH 600 0
DWIDTH 29 0
BBX 22 48 4 -12
BITMAP
01FC00
0FFF00
1FFF80
3FFFC0
7E07E0
7C01E0
7801F0
F801F0
F000F0
F000F0
F001F0
F001F0
F001E0
F003C0
F00F80
F1FF00
F1F800
F1FF00
F1FFC0
F003F0
F001F0
F000F8
F00078
F0007C
F0003C
F0003C
F0003C
F0003C
F0007C
F0007C
F000F8
FC01F8
FFFFF0
FFFFE0
FFFFC0
F1FE00
F00000
F00000
F00000
F00000
F00000
F00000
F00000
F00000
F00000
F00000
F00000
F00000
ENDCHAR
STARTCHAR gamma
ENCODING -1
SWIDTH 600 0
DWIDTH 29 0
BBX 25 38 2 -12
BITMAP
F8000F80
78000F00
78000F00
7C001F00
3C001E00
3E003E00
1E003C00
1E003C00
1F007C00
0F007800
0F807800
0780F000
0780F000
07C1F000
03C1E000
03E1E000
01E3E000
01E3C000
01F3C000
00F78000
00F78000
00778000
007F0000
003F0000
003E0000
003E0000
003E0000
003C0000
003C0000
007C0000
00780000
00780000
00780000
00780000
00F80000
00F80000
00F80000
00F80000
ENDCHAR
STARTCHAR delta
ENCODING -1
SWIDTH 600 0
DWIDTH 29 0
BBX 23 36 3 0
BITMAP
007F00
03FFF0
07FFFC
07FFF8
0F8078
0F0010
0F0000
0F0000
0F8000
07C000
07E000
03F800
01FC00
007F00
007FC0
01FFE0
07F3F0
0FC1F8
1F00F8
3E007C
7C003C
78003E
F8003E
F8001E
F0001E
F0001E
F0003E
F8003E
F8003C
78007C
7C007C
3E01F8
3FFFF0
1FFFE0
07FFC0
01FE00
ENDCHAR
STARTCHAR epsilon
ENCODING -1
SWIDTH 600 0
DWIDTH 29 0
BBX 19 26 5 0
BITMAP
03FE00
0FFFC0
1FFFE0
3FFFC0
7E00C0
7C0000
780000
780000
7C0000
3C0000
3F0000
1FFE00
07FE00
0FFE00
3FFE00
7C0000
F80000
F00000
F00000
F00000
F80000
FC0060
7FFFE0
3FFFE0
1FFFC0
03FF00
ENDCHAR
STARTCHAR zeta
ENCODING -1
SWIDTH 600 0
DWIDTH 29 0
BBX 21 45 4 -9
BITMAP
7FFFF8
7FFFF8
7FFFF8
7F80F8
0003E0
0007C0
000F80
003E00
007C00
00F800
01F000
03E000
07C000
0F8000
1F0000
1E0000
3E0000
3C0000
7C0000
780000
780000
F80000
F80000
F00000
F00000
F00000
F80000
F80000
F80000
7C0000
7E0000
3FC000
1FFE00
0FFFC0
03FFF0
003FF8
0003F8
0000F8
000078
000078
000078
0000F0
0000F0
0001E0
0001E0
ENDCHAR
STARTCHAR eta
ENCODING -1
SWIDTH 600 0
DWIDTH 29 0
BBX 21 38 4 -12
BITMAP
F07F00
F1FFC0
F7FFE0
F7FFF0
FE01F0
FC00F0
FC00F8
F800F8
F80078
F80078
F00078
F00078
F00078
F00078
F00078
F00078
F00078
F00078
F00078
F00078
F00078
F00078
F00078
F00078
F00078
F00078
000078
000078
000078
000078
000078
000078
000078
000078
000078
000078
000078
000078
ENDCHAR
STARTCHAR theta
ENCODING -1
SWIDTH 600 0
DWIDTH 29 0
BBX 23 34 3 0
BITMAP
00FE00
03FF80
0FFFC0
1FFFE0
1F01F0
3E00F8
3C0078
7C007C
78003C
78003C
F8003C
F8003E
F0003E
F0001E
F0001E
FFFFFE
FFFFFE
FFFFFE
F0001E
F0001E
F0003E
F8003E
F8003E
78003C
78003C
78003C
7C007C
3C0078
3E00F8
1F01F0
1FFFF0
0FFFE0
03FF80
00FE00
ENDCHAR
STARTCHAR iota
ENCODING -1
SWIDTH 600 0
DWIDTH 29 0
BBX 14 26 10 0
BITMAP
F000
F000
F000
F000
F000
F000
F000
F000
F000
F000
F000
F000
F000
F000
F000
F000
F000
F000
F000
F000
F800
7C00
7FFC
3FFC
1FFC
07F8
ENDCHAR
STARTCHAR kappa
ENCODING -1
SWIDTH 600 0
DWIDTH 29 0
BBX 22 26 5 0
BITMAP
F000F8
F001F0
F003E0
F007C0
F00F80
F01F00
F03E00
F07C00
F0F800
F1F000
F1E000
F3C000
F7C000
FFE000
FFF000
FCF800
F87C00
F07E00
F03E00
F01F00
F00F80
F007C0
F003E0
F001F0
F000F8
F0007C
ENDCHAR
STARTCHAR lambda
ENCODING -1
SWIDTH 600 0
DWIDTH 29 0
BBX 27 36 1 0
BITMAP
0FC00000
0FF00000
0FF80000
0FF80000
007C0000
003C0000
003E0000
001E0000
001E0000
000F0000
000F0000
000F8000
001F8000
001F8000
003FC000
003FC000
007BC000
0079E000
00F9E000
00F1E000
01F1F000
01E0F000
01E0F000
03C07800
03C07800
07C07800
07803C00
0F803C00
0F003E00
1F001E00
1E001E00
3E001F00
3C000FE0
7C000FE0
780007E0
F80003E0
ENDCHAR
STARTCHAR uni03BC
ENCODING -1
SWIDTH 600 0
DWIDTH 29 0
BBX 21 38 4 -12
BITMAP
F00078
F00078
F00078
F00078
F00078
F00078
F00078
F00078
F00078
F00078
F00078
F00078
F00078
F00078
F00078
F00078
F000F8
F000F8
F000F8
F800F8
F801F8
FC03F8
FFFF78
FFFF78
F7FE78
F3F878
F00000
F00000
F00000
F00000
F00000
F00000
F00000
F00000
F00000
F00000
F00000
F00000
ENDCHAR
STARTCHAR nu
ENCODING -1
SWIDTH 600 0
DWIDTH 29 0
BBX 25 26 1 0
BITMAP
F0000780
F8000780
78000780
7C000780
3C000780
3C000F80
3E000F80
1E000F00
1E000F00
1F000F00
0F000F00
0F801F00
07801E00
07801E00
07C03C00
03C03C00
03E07800
01E07800
01E0F000
01F1F000
00F3E000
00F3C000
007F8000
007F8000
007F0000
003E0000
ENDCHAR
STARTCHAR xi
ENCODING -1
SWIDTH 600 0
DWIDTH 29 0
BBX 21 45 4 -9
BITMAP
3FFFE0
3FFFE0
3FFFE0
347FE0
03E000
0F8000
1F0000
1E0000
3C0000
3C0000
3C0000
3C0000
3E0000
1F0000
1FC000
07FFE0
01FFE0
07FFE0
0FE000
3F0000
3C0000
7C0000
780000
F80000
F00000
F00000
F00000
F80000
F80000
7C0000
7E0000
3FC000
1FFE00
0FFFC0
03FFF0
007FF8
0003F8
0000F8
000078
000078
000078
0000F0
0000F0
0001E0
0003C0
ENDCHAR
STARTCHAR omicron
ENCODING -1
SWIDTH 600 0
DWIDTH 29 0
BBX 23 26 3 0
BITMAP
00FE00
03FF80
0FFFE0
1FFFF0
3F01F8
3C00F8
7C007C
78003C
F8003C
F8003E
F8003E
F0001E
F0001E
F0001E
F0001E
F8003E
F8003E
78003C
78003C
7C007C
3E00F8
3F01F8
1FFFF0
0FFFE0
03FF80
00FE00
ENDCHAR
STARTCHAR pi
ENCODING -1
SWIDTH 600 0
DWIDTH 29 0
BBX 28 26 1 0
BITMAP
3FFFFFF0
FFFFFFF0
FFFFFFF0
FFFFFFF0
07801E00
07801E00
07801E00
07801E00
07801E00
07801E00
07801E00
07801E00
07801E00
07801E00
07801E00
07801E00
07801E00
07801E00
07801E00
07801E00
07801E00
07801E00
07801FE0
07801FE0
07800FE0
078007E0
ENDCHAR
STARTCHAR rho
ENCODING -1
SWIDTH 600 0
DWIDTH 29 0
BBX 22 38 4 -12
BITMAP
00FE00
07FF80
0FFFC0
1FFFE0
3E01F0
3C00F0
7800F8
780078
780078
F0007C
F0007C
F0003C
F0003C
F0003C
F0003C
F0007C
F0007C
F0007C
F00078
F000F8
F800F0
FC01F0
FFFFE0
FFFFC0
F7FF80
F1FE00
F00000
F00000
F00000
F00000
F00000
F00000
F00000
F00000
F00000
F00000
F00000
F00000
ENDCHAR
STARTCHAR sigma1
ENCODING -1
SWIDTH 600 0
DWIDTH 29 0
BBX 21 35 4 -9
BITMAP
007FC0
03FFF8
0FFFF0
1FFFF0
3F8030
3E0000
7C0000
7C0000
780000
F80000
F80000
F80000
F00000
F00000
F00000
F00000
F80000
F80000
780000
7C0000
3E0000
3FC000
1FFE00
0FFFC0
03FFE0
003FF0
0003F8
0000F8
000078
000078
000078
0000F0
0000F0
0001E0
0003C0
ENDCHAR
STARTCHAR sigma
ENCODING -1
SWIDTH 600 0
DWIDTH 29 0
BBX 25 26 3 0
BITMAP
007FFF80
03FFFF80
0FFFFF80
1FFFFF80
3F00F000
3E00F000
7C007800
78007C00
78003C00
F8003C00
F8003E00
F0003E00
F0001E00
F0001E00
F0001E00
F8003E00
F8003E00
F8003E00
78003C00
7C007C00
7E007800
3F01F800
1FFFF000
0FFFE000
07FFC000
00FE0000
ENDCHAR
STARTCHAR tau
ENCODING -1
SWIDTH 600 0
DWIDTH 29 0
BBX 23 26 3 0
BITMAP
3FFFFE
FFFFFE
FFFFFE
FFFFFE
01E000
01E000
01E000
01E000
01E000
01E000
01E000
01E000
01E000
01E000
01E000
01E000
01E000
01E000
01E000
01F000
01F000
00F800
00FFF8
007FF8
003FF8
000FF0
ENDCHAR
STARTCHAR upsilon
ENCODING -1
SWIDTH 600 0
DWIDTH 29 0
BBX 22 26 4 0
BITMAP
F000F0
F00078
F00078
F00078
F00078
F0007C
F0007C
F0003C
F0003C
F0003C
F0003C
F0003C
F0003C
F0003C
F0003C
F0007C
F0007C
F80078
F80078
7800F8
7C00F0
3E03F0
3FFFE0
1FFFC0
0FFF80
01FE00
ENDCHAR
STARTCHAR phi
ENCODING -1
SWIDTH 600 0
DWIDTH 29 0
BBX 25 38 2 -12
BITMAP
0803E000
1C0FF800
1E1FFC00
3C1FFE00
3C3E1E00
783C0F00
783C0F00
703C0F00
F03C0780
F03C0780
F03C0780
F03C0780
F03C0780
F03C0780
F03C0780
F03C0780
F03C0F80
F03C0F00
783C0F00
783C1F00
7C3C3E00
3E3C7E00
1FFFFC00
1FFFF800
07FFE000
01FF8000
003C0000
003C0000
003C0000
003C0000
003C0000
003C0000
003C0000
003C0000
003C0000
003C0000
003C0000
003C0000
ENDCHAR
STARTCHAR chi
ENCODING -1
SWIDTH 600 0
DWIDTH 29 0
BBX 27 38 1 -12
BITMAP
3E0003C0
3F800780
3F800F80
3FC00F00
07C01E00
03E01E00
01E03C00
01F07C00
00F07800
00F0F800
00F8F000
0079F000
007DE000
003FC000
003FC000
003F8000
001F8000
001F0000
001F0000
001F0000
003F8000
007F8000
007FC000
00FBC000
00F3C000
01F3E000
01E1E000
03C1F000
07C0F000
0780F000
0F80F800
0F007800
1F007C00
1E003E00
3E003FE0
7C001FE0
78000FE0
F80007E0
ENDCHAR
STARTCHAR psi
ENCODING -1
SWIDTH 600 0
DWIDTH 29 0
BBX 25 48 2 -12
BITMAP
003C0000
003C0000
003C0000
003C0000
003C0000
003C0000
003C0000
003C0000
003C0000
003C0000
F03C0F00
F03C0F00
F03C0F00
F03C0F00
F03C0F00
F03C0F80
F03C0F80
F03C0780
F03C0780
F03C0780
F03C0780
F03C0780
F03C0780
F03C0780
F03C0780
F03C0780
F83C0F80
F83C0F00
783C0F00
7C3C1F00
7C3C3E00
3E3C7E00
3FFFFC00
1FFFF800
0FFFE000
01FF8000
003C0000
003C0000
003C0000
003C0000
003C0000
003C0000
003C0000
003C0000
003C0000
003C0000
003C0000
003C0000
ENDCHAR
STARTCHAR omega
ENCODING -1
SWIDTH 600 0
DWIDTH 29 0
BBX 25 26 2 0
BITMAP
3C001E00
3C001E00
38000E00
78000F00
78000F00
70000F00
70000700
F0000780
F0000780
F01E0780
F01E0780
F01E0780
F01E0780
F01E0780
F01E0780
F01E0780
F01E0780
F01E0780
F01E0780
701E0700
783E0F00
787F0F00
3FF7FE00
3FF3FE00
1FE3FC00
07C0F800
ENDCHAR
STARTCHAR iotadieresis
ENCODING -1
SWIDTH 600 0
DWIDTH 29 0
BBX 18 35 6 0
BITMAP
707000
F07800
F8F800
F07800
707000
000000
000000
000000
000000
0F0000
0F0000
0F0000
0F0000
0F0000
0F0000
0F0000
0F0000
0F0000
0F0000
0F0000
0F0000
0F0000
0F0000
0F0000
0F0000
0F0000
0F0000
0F0000
0F0000
0F8000
07C000
07FFC0
03FFC0
01FFC0
007F80
ENDCHAR
STARTCHAR upsilondieresis
ENCODING -1
SWIDTH 600 0
DWIDTH 29 0
BBX 22 35 4 0
BITMAP
038380
0783C0
07C7C0
0783C0
038380
000000
000000
000000
000000
F000F0
F00078
F00078
F00078
F00078
F0007C
F0007C
F0003C
F0003C
F0003C
F0003C
F0003C
F0003C
F0003C
F0003C
F0007C
F0007C
F80078
F80078
7800F8
7C00F0
3E03F0
3FFFE0
1FFFC0
0FFF80
01FE00
ENDCHAR
STARTCHAR omicrontonos
ENCODING -1
SWIDTH 600 0
DWIDTH 29 0
BBX 23 37 3 0
BITMAP
001F00
001F00
001E00
001E00
001C00
003C00
003800
003800
000000
000000
000000
00FE00
03FF80
0FFFE0
1FFFF0
3F01F8
3C00F8
7C007C
78003C
F8003C
F8003E
F8003E
F0001E
F0001E
F0001E
F0001E
F8003E
F8003E
78003C
78003C
7C007C
3E00F8
3F01F8
1FFFF0
0FFFE0
03FF80
00FE00
ENDCHAR
STARTCHAR upsilontonos
ENCODING -1
SWIDTH 600 0
DWIDTH 29 0
BBX 22 37 4 0
BITMAP
003E00
003E00
003C00
003C00
003800
007800
007000
007000
000000
000000
000000
F000F0
F00078
F00078
F00078
F00078
F0007C
F0007C
F0003C
F0003C
F0003C
F0003C
F0003C
F0003C
F0003C
F0003C
F0007C
F0007C
F80078
F80078
7800F8
7C00F0
3E03F0
3FFFE0
1FFFC0
0FFF80
01FE00
ENDCHAR
STARTCHAR omegatonos
ENCODING -1
SWIDTH 600 0
DWIDTH 29 0
BBX 25 37 2 0
BITMAP
000F8000
000F8000
000F0000
000F0000
000E0000
001E0000
001C0000
001C0000
00000000
00000000
00000000
3C001E00
3C001E00
38000E00
78000F00
78000F00
70000F00
70000700
F0000780
F0000780
F01E0780
F01E0780
F01E0780
F01E0780
F01E0780
F01E0780
F01E0780
F01E0780
F01E0780
F01E0780
701E0700
783E0F00
787F0F00
3FF7FE00
3FF3FE00
1FE3FC00
07C0F800
ENDCHAR
STARTCHAR uni0401
ENCODING -1
SWIDTH 600 0
DWIDTH 29 0
BBX 20 43 5 0
BITMAP
070700
0F0780
0F8F80
0F0780
070700
000000
000000
000000
000000
FFFFF0
FFFFF0
FFFFF0
FFFFF0
F00000
F00000
F00000
F00000
F00000
F00000
F00000
F00000
F00000
F00000
FFFFE0
FFFFE0
FFFFE0
FFFFE0
F00000
F00000
F00000
F00000
F00000
F00000
F00000
F00000
F00000
F00000
F00000
F00000
FFFFF0
FFFFF0
FFFFF0
FFFFF0
ENDCHAR
STARTCHAR uni0402
ENCODING -1
SWIDTH 600 0
DWIDTH 29 0
BBX 27 34 0 0
BITMAP
FFFFF000
FFFFF000
FFFFF000
FFFFF000
01E00000
01E00000
01E00000
01E00000
01E00000
01E00000
01E00000
01E00000
01E00000
01FFF800
01FFFF00
01FFFF80
01FFFFC0
01E00FC0
01E003E0
01E003E0
01E003E0
01E001E0
01E001E0
01E001E0
01E001E0
01E001E0
01E001E0
01E003E0
01E003C0
01E007C0
01E1FFC0
01E1FF80
01E1FF00
01E1FC00
ENDCHAR
STARTCHAR uni0403
ENCODING -1
SWIDTH 600 0
DWIDTH 29 0
BBX 19 45 6 0
BITMAP
001F00
003E00
003E00
007C00
007800
00F000
00E000
01C000
000000
000000
000000
FFFFE0
FFFFE0
FFFFE0
FFFFE0
F00000
F00000
F00000
F00000
F00000
F00000
F00000
F00000
F00000
F00000
F00000
F00000
F00000
F00000
F00000
F00000
F00000
F00000
F00000
F00000
F00000
F00000
F00000
F00000
F00000
F00000
F00000
F00000
F00000
F00000
ENDCHAR
STARTCHAR uni0404
ENCODING -1
SWIDTH 600 0
DWIDTH 29 0
BBX 25 34 3 0
BITMAP
001FF800
00FFFF00
01FFFF80
07FFFF00
0FF00F00
1FC00000
1F000000
3E000000
3E000000
7C000000
7C000000
78000000
F8000000
F8000000
FFFFF000
FFFFF000
FFFFF000
FFFFF000
F8000000
F8000000
F8000000
F8000000
78000000
7C000000
7C000000
7E000000
3E000000
3F000000
1F800000
0FF00700
07FFFF00
03FFFF00
00FFFF00
001FF800
ENDCHAR
STARTCHAR uni0405
ENCODING -1
SWIDTH 600 0
DWIDTH 29 0
BBX 22 34 4 0
BITMAP
01FF80
0FFFF0
1FFFF8
3FFFF0
7E00F0
F80010
F80000
F00000
F00000
F00000
F80000
F80000
7C0000
7F0000
3FC000
1FF800
07FF00
01FFC0
003FE0
000FF0
0001F8
0000F8
00007C
00007C
00003C
00003C
00007C
00007C
8000F8
F001F8
FFFFF0
FFFFE0
FFFF80
0FFC00
ENDCHAR
STARTCHAR uni0406
ENCODING -1
SWIDTH 600 0
DWIDTH 29 0
BBX 18 34 5 0
BITMAP
FFFFC0
FFFFC0
FFFFC0
01E000
01E000
01E000
01E000
01E000
01E000
01E000
01E000
01E000
01E000
01E000
01E000
01E000
01E000
01E000
01E000
01E000
01E000
01E000
01E000
01E000
01E000
01E000
01E000
01E000
01E000
01E000
01E000
FFFFC0
FFFFC0
FFFFC0
ENDCHAR
STARTCHAR uni0407
ENCODING -1
SWIDTH 600 0
DWIDTH 29 0
BBX 18 43 5 0
BITMAP
0E0E00
1E0F00
1F1F00
1E0F00
0E0E00
000000
000000
000000
000000
FFFFC0
FFFFC0
FFFFC0
01E000
01E000
01E000
01E000
01E000
01E000
01E000
01E000
01E000
01E000
01E000
01E000
01E000
01E000
01E000
01E000
01E000
01E000
01E000
01E000
01E000
01E000
01E000
01E000
01E000
01E000
01E000
01E000
FFFFC0
FFFFC0
FFFFC0
ENDCHAR
STARTCHAR uni0408
ENCODING -1
SWIDTH 600 0
DWIDTH 29 0
BBX 20 34 3 0
BITMAP
0000F0
0000F0
0000F0
0000F0
0000F0
0000F0
0000F0
0000F0
0000F0
0000F0
0000F0
0000F0
0000F0
0000F0
0000F0
0000F0
0000F0
0000F0
0000F0
0000F0
0000F0
0000F0
0000F0
0000F0
0000F0
0001F0
0001F0
0003E0
0007E0
E01FC0
FFFF80
FFFF00
FFFE00
1FF000
ENDCHAR
STARTCHAR uni0409
ENCODING -1
SWIDTH 600 0
DWIDTH 29 0
BBX 28 34 0 0
BITMAP
07FF8000
07FF8000
07FF8000
07FF8000
07878000
07878000
07078000
07078000
07078000
07078000
07078000
07078000
07078000
0F078000
0F07FC00
0F07FF00
0F07FFC0
0F07FFC0
0F0787E0
0F0781E0
0F0781F0
0F0780F0
0F0780F0
0F0780F0
0F0780F0
0F0780F0
0E0780F0
0E0781F0
1E0781E0
1E0783E0
BE07FFC0
FC07FF80
FC07FF00
F007FC00
ENDCHAR
STARTCHAR uni040A
ENCODING -1
SWIDTH 600 0
DWIDTH 29 0
BBX 26 34 2 0
BITMAP
F01E0000
F01E0000
F01E0000
F01E0000
F01E0000
F01E0000
F01E0000
F01E0000
F01E0000
F01E0000
F01E0000
F01E0000
F01E0000
F01E0000
FFFFF000
FFFFFC00
FFFFFE00
FFFFFF00
F01E1F80
F01E0780
F01E07C0
F01E03C0
F01E03C0
F01E03C0
F01E03C0
F01E03C0
F01E03C0
F01E07C0
F01E0780
F01E0F80
F01FFF00
F01FFE00
F01FFC00
F01FF000
ENDCHAR
STARTCHAR uni040B
ENCODING -1
SWIDTH 600 0
DWIDTH 29 0
BBX 27 34 0 0
BITMAP
FFFFF000
FFFFF000
FFFFF000
FFFFF000
01E00000
01E00000
01E00000
01E00000
01E00000
01E00000
01E00000
01E00000
01E00000
01FFF800
01FFFF00
01FFFF80
01FFFFC0
01E00FC0
01E003E0
01E003E0
01E003E0
01E001E0
01E001E0
01E001E0
01E001E0
01E001E0
01E001E0
01E001E0
01E001E0
01E001E0
01E001E0
01E001E0
01E001E0
01E001E0
ENDCHAR
STARTCHAR uni040C
ENCODING -1
SWIDTH 600 0
DWIDTH 29 0
BBX 23 45 5 0
BITMAP
0007C0
000F80
000F80
001F00
001E00
003C00
003800
007000
000000
000000
000000
F0003E
F0007C
F000F8
F001F0
F001E0
F003E0
F007C0
F00F80
F01F00
F03E00
F07C00
F07800
F0F800
F1F000
F3E000
F7C000
FF8000
F7C000
F3E000
F1F000
F1F800
F0F800
F07C00
F03E00
F01F00
F01F80
F00F80
F007C0
F003E0
F001F0
F001F0
F000F8
F0007C
F0003E
ENDCHAR
STARTCHAR uni040E
ENCODING -1
SWIDTH 600 0
DWIDTH 29 0
BBX 27 45 1 0
BITMAP
07801E00
07801E00
07803E00
03C03C00
03E0FC00
01FFF800
00FFF000
003FC000
00000000
00000000
00000000
F80003E0
780003C0
7C0007C0
3C0007C0
3E000780
1E000F80
1F000F00
0F000F00
0F801F00
07801E00
07C03E00
03C03C00
03E03C00
01E07C00
01F07800
00F0F800
00F8F000
0078F000
007DE000
003DE000
003DE000
001FC000
001FC000
000F8000
000F8000
000F8000
000F0000
001F0000
003E0000
207C0000
3FFC0000
3FF80000
3FF00000
3F800000
ENDCHAR
STARTCHAR uni040F
ENCODING -1
SWIDTH 600 0
DWIDTH 29 0
BBX 23 43 3 -9
BITMAP
F0001E
F0001E
F0001E
F0001E
F0001E
F0001E
F0001E
F0001E
F0001E
F0001E
F0001E
F0001E
F0001E
F0001E
F0001E
F0001E
F0001E
F0001E
F0001E
F0001E
F0001E
F0001E
F0001E
F0001E
F0001E
F0001E
F0001E
F0001E
F0001E
F0001E
FFFFFE
FFFFFE
FFFFFE
FFFFFE
007800
007800
007800
007800
007800
007800
007800
007800
007800
ENDCHAR
STARTCHAR uni0410
ENCODING -1
SWIDTH 600 0
DWIDTH 29 0
BBX 27 34 1 0
BITMAP
001F0000
001F0000
003F8000
003F8000
003F8000
007BC000
007BC000
007BC000
00FBE000
00F1E000
00F1E000
01F1F000
01E0F000
01E0F000
03E0F800
03C07800
03C07800
07C07C00
07C03C00
07803C00
0FFFFE00
0FFFFE00
0FFFFE00
1FFFFF00
1F001F00
1E000F00
3E000F80
3E000F80
3C000780
7C0007C0
7C0007C0
780003C0
F80003E0
F80003E0
ENDCHAR
STARTCHAR uni0411
ENCODING -1
SWIDTH 600 0
DWIDTH 29 0
BBX 24 34 3 0
BITMAP
FFFFFC
FFFFFC
FFFFFC
FFFFFC
F00000
F00000
F00000
F00000
F00000
F00000
F00000
F00000
F00000
F00000
FFFF00
FFFFE0
FFFFF8
FFFFFC
F000FE
F0003E
F0003F
F0001F
F0001F
F0001F
F0001F
F0001F
F0001F
F0003E
F0003E
F000FE
FFFFFC
FFFFF8
FFFFE0
FFFF80
ENDCHAR
STARTCHAR uni0412
ENCODING -1
SWIDTH 600 0
DWIDTH 29 0
BBX 24 34 3 0
BITMAP
FFFF00
FFFFE0
FFFFF8
FFFFFC
F000FC
F0007E
F0003E
F0003E
F0003E
F0003E
F0003E
F0003C
F0007C
F001F8
FFFFE0
FFFF00
FFFFE0
FFFFF8
F000FC
F0003E
F0001E
F0001F
F0001F
F0001F
F0001F
F0001F
F0001F
F0003E
F0003E
F000FC
FFFFFC
FFFFF8
FFFFE0
FFFF80
ENDCHAR
STARTCHAR uni0413
ENCODING -1
SWIDTH 600 0
DWIDTH 29 0
BBX 19 34 6 0
BITMAP
FFFFE0
FFFFE0
FFFFE0
FFFFE0
F00000
F00000
F00000
F00000
F00000
F00000
F00000
F00000
F00000
F00000
F00000
F00000
F00000
F00000
F00000
F00000
F00000
F00000
F00000
F00000
F00000
F00000
F00000
F00000
F00000
F00000
F00000
F00000
F00000
F00000
ENDCHAR
STARTCHAR uni0414
ENCODING -1
SWIDTH 600 0
DWIDTH 29 0
BBX 29 43 0 -9
BITMAP
003FFF00
003FFF00
003FFF00
003FFF00
003C0F00
003C0F00
007C0F00
007C0F00
007C0F00
007C0F00
007C0F00
00780F00
00780F00
00F80F00
00F80F00
00F80F00
00F00F00
00F00F00
01F00F00
01F00F00
01E00F00
03E00F00
03E00F00
03C00F00
07C00F00
07C00F00
07800F00
0F800F00
0F000F00
1F000F00
FFFFFFF8
FFFFFFF8
FFFFFFF8
FFFFFFF8
F0000078
F0000078
F0000078
F0000078
F0000078
F0000078
F0000078
F0000078
F0000078
ENDCHAR
STARTCHAR uni0415
ENCODING -1
SWIDTH 600 0
DWIDTH 29 0
BBX 20 34 5 0
BITMAP
FFFFF0
FFFFF0
FFFFF0
FFFFF0
F00000
F00000
F00000
F00000
F00000
F00000
F00000
F00000
F00000
F00000
FFFFE0
FFFFE0
FFFFE0
FFFFE0
F00000
F00000
F00000
F00000
F00000
F00000
F00000
F00000
F00000
F00000
F00000
F00000
FFFFF0
FFFFF0
FFFFF0
FFFFF0
ENDCHAR
STARTCHAR uni0416
ENCODING -1
SWIDTH 600 0
DWIDTH 29 0
BBX 29 34 0 0
BITMAP
F0078078
780780F8
780780F0
3C0781F0
3C0781E0
1E0783E0
1F0783C0
0F0783C0
07878780
07878780
03C78F00
03C78F00
01E79E00
01E79E00
00F7BC00
0077BC00
007FF800
007FBC00
00F7BC00
01F79E00
01E79E00
03E79F00
03C78F00
07878F00
07878780
0F078780
0F0783C0
1E0783C0
1E0783E0
3C0781E0
3C0781F0
780780F0
780780F8
F0078078
ENDCHAR
STARTCHAR uni0417
ENCODING -1
SWIDTH 600 0
DWIDTH 29 0
BBX 22 34 3 0
BITMAP
03FE00
1FFF80
3FFFC0
FFFFE0
7C03F0
3001F8
0000F8
0000F8
0000F8
0000F8
0000F8
0000F0
0001F0
0003E0
000FC0
0FFF80
0FF800
0FFF80
0FFFE0
0003F0
0000F8
000078
00007C
00007C
00007C
00007C
00007C
00007C
8000F8
F003F0
FFFFF0
FFFFE0
7FFF80
0FFC00
ENDCHAR
STARTCHAR uni0418
ENCODING -1
SWIDTH 600 0
DWIDTH 29 0
BBX 23 34 3 0
BITMAP
F0003E
F0007E
F0007E
F000FE
F000FE
F001FE
F001FE
F003DE
F003DE
F0079E
F0079E
F00F1E
F00F1E
F01E1E
F01E1E
F03C1E
F03C1E
F0781E
F0781E
F0F01E
F0F01E
F1E01E
F1E01E
F3C01E
F3C01E
F7801E
F7801E
FF001E
FF001E
FE001E
FE001E
FC001E
FC001E
F8001E
ENDCHAR
STARTCHAR uni0419
ENCODING -1
SWIDTH 600 0
DWIDTH 29 0
BBX 23 45 3 0
BITMAP
1E0078
1E0078
1E00F8
0F00F0
0F83F0
07FFE0
03FFC0
00FF00
000000
000000
000000
F0003E
F0007E
F0007E
F000FE
F000FE
F001FE
F001FE
F003DE
F003DE
F0079E
F0079E
F00F1E
F00F1E
F01E1E
F01E1E
F03C1E
F03C1E
F0781E
F0781E
F0F01E
F0F01E
F1E01E
F1E01E
F3C01E
F3C01E
F7801E
F7801E
FF001E
FF001E
FE001E
FE001E
FC001E
FC001E
F8001E
ENDCHAR
STARTCHAR uni041A
ENCODING -1
SWIDTH 600 0
DWIDTH 29 0
BBX 23 34 5 0
BITMAP
F0003E
F0007C
F000F8
F001F0
F001E0
F003E0
F007C0
F00F80
F01F00
F03E00
F07C00
F07800
F0F800
F1F000
F3E000
F7C000
FF8000
F7C000
F3E000
F1F000
F1F800
F0F800
F07C00
F03E00
F01F00
F01F80
F00F80
F007C0
F003E0
F001F0
F001F0
F000F8
F0007C
F0003E
ENDCHAR
STARTCHAR uni041B
ENCODING -1
SWIDTH 600 0
DWIDTH 29 0
BBX 26 34 0 0
BITMAP
001FFFC0
001FFFC0
001FFFC0
003FFFC0
003E03C0
003E03C0
003E03C0
003E03C0
003E03C0
003E03C0
007C03C0
007C03C0
007C03C0
007C03C0
007C03C0
007C03C0
00F803C0
00F803C0
00F803C0
00F803C0
00F803C0
00F803C0
01F003C0
01F003C0
01F003C0
01F003C0
03E003C0
03E003C0
07E003C0
07C003C0
FFC003C0
FF8003C0
FF0003C0
FC0003C0
ENDCHAR
STARTCHAR uni041C
ENCODING -1
SWIDTH 600 0
DWIDTH 29 0
BBX 23 34 3 0
BITMAP
FC007E
FC007E
FC007E
FC00FE
FE00EE
EE00EE
EE00EE
EE00EE
EE01EE
EF01CE
E701DE
F701DE
F701DE
F703DE
F7839E
F3839E
F3839E
F3839E
F3871E
F1C71E
F1C71E
F1C71E
F1C71E
F1CE1E
F0EE1E
F0EE1E
F0EE1E
F0EE1E
F0FC1E
F07C1E
F07C1E
F07C1E
F0781E
F0381E
ENDCHAR
STARTCHAR uni041D
ENCODING -1
SWIDTH 600 0
DWIDTH 29 0
BBX 23 34 3 0
BITMAP
F0001E
F0001E
F0001E
F0001E
F0001E
F0001E
F0001E
F0001E
F0001E
F0001E
F0001E
F0001E
F0001E
F0001E
FFFFFE
FFFFFE
FFFFFE
FFFFFE
F0001E
F0001E
F0001E
F0001E
F0001E
F0001E
F0001E
F0001E
F0001E
F0001E
F0001E
F0001E
F0001E
F0001E
F0001E
F0001E
ENDCHAR
STARTCHAR uni041E
ENCODING -1
SWIDTH 600 0
DWIDTH 29 0
BBX 25 34 2 0
BITMAP
007F0000
03FFE000
07FFF000
0FFFF800
1F80FC00
3F007C00
3E003E00
7C001E00
7C001F00
7C001F00
78000F00
F8000F80
F8000F80
F8000F80
F8000F80
F8000F80
F8000F80
F8000F80
F8000F80
F8000F80
F8000F80
F8000F80
F8000F80
78000F00
7C001F00
7C001F00
7C001E00
3E003E00
3F007C00
1F80FC00
0FFFF800
07FFF000
03FFE000
007F0000
ENDCHAR
STARTCHAR uni041F
ENCODING -1
SWIDTH 600 0
DWIDTH 29 0
BBX 23 34 3 0
BITMAP
FFFFFE
FFFFFE
FFFFFE
FFFFFE
F0001E
F0001E
F0001E
F0001E
F0001E
F0001E
F0001E
F0001E
F0001E
F0001E
F0001E
F0001E
F0001E
F0001E
F0001E
F0001E
F0001E
F0001E
F0001E
F0001E
F0001E
F0001E
F0001E
F0001E
F0001E
F0001E
F0001E
F0001E
F0001E
F0001E
ENDCHAR
STARTCHAR uni0420
ENCODING -1
SWIDTH 600 0
DWIDTH 29 0
BBX 22 34 4 0
BITMAP
FFFC00
FFFF80
FFFFE0
FFFFF0
F003F8
F001F8
F000FC
F0007C
F0007C
F0007C
F0007C
F0007C
F0007C
F0007C
F000F8
F001F8
F007F0
FFFFE0
FFFFC0
FFFF00
FFF800
F00000
F00000
F00000
F00000
F00000
F00000
F00000
F00000
F00000
F00000
F00000
F00000
F00000
ENDCHAR
STARTCHAR uni0421
ENCODING -1
SWIDTH 600 0
DWIDTH 29 0
BBX 25 34 3 0
BITMAP
001FF800
00FFFF00
01FFFF80
07FFFF00
0FF00F00
1FC00000
1F800000
3F000000
3E000000
7C000000
7C000000
78000000
F8000000
F8000000
F8000000
F8000000
F8000000
F8000000
F8000000
F8000000
F8000000
F8000000
78000000
7C000000
7C000000
7E000000
3E000000
3F000000
1FC00000
0FF00700
07FFFF00
03FFFF00
00FFFF00
001FF800
ENDCHAR
STARTCHAR uni0422
ENCODING -1
SWIDTH 600 0
DWIDTH 29 0
BBX 24 34 2 0
BITMAP
FFFFFF
FFFFFF
FFFFFF
FFFFFF
003C00
003C00
003C00
003C00
003C00
003C00
003C00
003C00
003C00
003C00
003C00
003C00
003C00
003C00
003C00
003C00
003C00
003C00
003C00
003C00
003C00
003C00
003C00
003C00
003C00
003C00
003C00
003C00
003C00
003C00
ENDCHAR
STARTCHAR uni0423
ENCODING -1
SWIDTH 600 0
DWIDTH 29 0
BBX 27 34 1 0
BITMAP
F80003E0
780003C0
7C0007C0
3C0007C0
3E000780
1E000F80
1F000F00
0F000F00
0F801F00
07801E00
07C03E00
03C03C00
03E03C00
01E07C00
01F07800
00F0F800
00F8F000
0078F000
007DE000
003DE000
003DE000
001FC000
001FC000
000F8000
000F8000
000F8000
000F0000
001F0000
003E0000
207C0000
3FFC0000
3FF80000
3FF00000
3F800000
ENDCHAR
STARTCHAR uni0424
ENCODING -1
SWIDTH 600 0
DWIDTH 29 0
BBX 27 34 1 0
BITMAP
000F0000
000F0000
000F0000
000F0000
01FFF000
07FFFC00
0FFFFF00
1FFFFF00
3F0F0F80
3E0F07C0
7C0F07C0
780F03C0
F80F03E0
F80F03E0
F00F01E0
F00F01E0
F00F01E0
F00F01E0
F80F03E0
F80F03E0
F80F03E0
780F03C0
7C0F07C0
3E0F0780
3F0F1F80
1FFFFF00
0FFFFE00
07FFFC00
00FFF000
000F0000
000F0000
000F0000
000F0000
000F0000
ENDCHAR
STARTCHAR uni0425
ENCODING -1
SWIDTH 600 0
DWIDTH 29 0
BBX 27 34 1 0
BITMAP
7C0007C0
3E000780
1E000F00
1F001F00
0F001E00
0F803E00
07C07C00
03C07800
03E0F800
01E0F000
00F1E000
00FBE000
007BC000
007F8000
003F8000
001F0000
001F0000
003F8000
003FC000
007BC000
00FBE000
00F1E000
01E1F000
03E0F800
03C07800
07C07C00
07803C00
0F003E00
1F001F00
1E001F00
3E000F80
3C000780
780007C0
F80003E0
ENDCHAR
STARTCHAR uni0426
ENCODING -1
SWIDTH 600 0
DWIDTH 29 0
BBX 25 43 3 -9
BITMAP
F0007800
F0007800
F0007800
F0007800
F0007800
F0007800
F0007800
F0007800
F0007800
F0007800
F0007800
F0007800
F0007800
F0007800
F0007800
F0007800
F0007800
F0007800
F0007800
F0007800
F0007800
F0007800
F0007800
F0007800
F0007800
F0007800
F0007800
F0007800
F0007800
F0007800
FFFFFF80
FFFFFF80
FFFFFF80
FFFFFF80
00000780
00000780
00000780
00000780
00000780
00000780
00000780
00000780
00000780
ENDCHAR
STARTCHAR uni0427
ENCODING -1
SWIDTH 600 0
DWIDTH 29 0
BBX 23 34 3 0
BITMAP
F0001E
F0001E
F0001E
F0001E
F0001E
F0001E
F0001E
F0001E
F0001E
F0001E
F0001E
F0001E
F0001E
F0001E
F0001E
F8001E
F8003E
7C01FE
7FFFFE
3FFFFE
1FFF9E
07F81E
00001E
00001E
00001E
00001E
00001E
00001E
00001E
00001E
00001E
00001E
00001E
00001E
ENDCHAR
STARTCHAR uni0428
ENCODING -1
SWIDTH 600 0
DWIDTH 29 0
BBX 23 34 3 0
BITMAP
F0781E
F0781E
F0781E
F0781E
F0781E
F0781E
F0781E
F0781E
F0781E
F0781E
F0781E
F0781E
F0781E
F0781E
F0781E
F0781E
F0781E
F0781E
F0781E
F0781E
F0781E
F0781E
F0781E
F0781E
F0781E
F0781E
F0781E
F0781E
F0781E
F0781E
FFFFFE
FFFFFE
FFFFFE
FFFFFE
ENDCHAR
STARTCHAR uni0429
ENCODING -1
SWIDTH 600 0
DWIDTH 29 0
BBX 28 43 1 -9
BITMAP
F03C0F00
F03C0F00
F03C0F00
F03C0F00
F03C0F00
F03C0F00
F03C0F00
F03C0F00
F03C0F00
F03C0F00
F03C0F00
F03C0F00
F03C0F00
F03C0F00
F03C0F00
F03C0F00
F03C0F00
F03C0F00
F03C0F00
F03C0F00
F03C0F00
F03C0F00
F03C0F00
F03C0F00
F03C0F00
F03C0F00
F03C0F00
F03C0F00
F03C0F00
F03C0F00
FFFFFFF0
FFFFFFF0
FFFFFFF0
FFFFFFF0
000000F0
000000F0
000000F0
000000F0
000000F0
000000F0
000000F0
000000F0
000000F0
ENDCHAR
STARTCHAR uni042A
ENCODING -1
SWIDTH 600 0
DWIDTH 29 0
BBX 26 34 1 0
BITMAP
FFE00000
FFE00000
FFE00000
FFE00000
01E00000
01E00000
01E00000
01E00000
01E00000
01E00000
01E00000
01E00000
01E00000
01E00000
01FFC000
01FFF800
01FFFE00
01FFFF00
01E03F00
01E00F80
01E00F80
01E007C0
01E007C0
01E007C0
01E007C0
01E007C0
01E007C0
01E00F80
01E00F80
01E03F00
01FFFF00
01FFFE00
01FFF800
01FFC000
ENDCHAR
STARTCHAR uni042B
ENCODING -1
SWIDTH 600 0
DWIDTH 29 0
BBX 25 34 2 0
BITMAP
F0000780
F0000780
F0000780
F0000780
F0000780
F0000780
F0000780
F0000780
F0000780
F0000780
F0000780
F0000780
F0000780
F0000780
FFC00780
FFF80780
FFFE0780
FFFF0780
F03F8780
F00F8780
F007C780
F003C780
F003C780
F003C780
F003C780
F003C780
F003C780
F0078780
F00F8780
F01F8780
FFFF0780
FFFE0780
FFF80780
FFC00780
ENDCHAR
STARTCHAR uni042C
ENCODING -1
SWIDTH 600 0
DWIDTH 29 0
BBX 22 34 4 0
BITMAP
F00000
F00000
F00000
F00000
F00000
F00000
F00000
F00000
F00000
F00000
F00000
F00000
F00000
F00000
FFFC00
FFFF80
FFFFE0
FFFFF0
F003F8
F000F8
F000FC
F0007C
F0007C
F0007C
F0007C
F0007C
F0007C
F000F8
F000F8
F003F8
FFFFF0
FFFFE0
FFFF80
FFFE00
ENDCHAR
STARTCHAR uni042D
ENCODING -1
SWIDTH 600 0
DWIDTH 29 0
BBX 24 34 2 0
BITMAP
0FF800
7FFF00
FFFFC0
FFFFE0
7007F0
4001F8
0000FC
00007C
00003E
00003E
00001E
00001E
00001F
00001F
0FFFFF
0FFFFF
0FFFFF
0FFFFF
00001F
00001F
00001F
00001F
00001E
00003E
00003E
00007C
00007C
0000F8
0001F8
E00FF0
FFFFE0
FFFFC0
FFFF00
1FF800
ENDCHAR
STARTCHAR uni042E
ENCODING -1
SWIDTH 600 0
DWIDTH 29 0
BBX 25 34 2 0
BITMAP
F007E000
F01FF800
F03FFC00
F07FFE00
F07C3E00
F0F81E00
F0F00F00
F0F00F00
F0F00F00
F0E00700
F1E00780
F1E00780
F1E00780
F1E00780
FFE00780
FFE00780
FFE00780
FFE00780
F1E00780
F1E00780
F1E00780
F1E00780
F1E00780
F1E00780
F0E00700
F0F00F00
F0F00F00
F0F00F00
F0F81E00
F07C3E00
F07FFE00
F03FFC00
F01FF800
F007E000
ENDCHAR
STARTCHAR uni042F
ENCODING -1
SWIDTH 600 0
DWIDTH 29 0
BBX 24 34 1 0
BITMAP
003FFF
01FFFF
03FFFF
07FFFF
0FE00F
0F800F
1F000F
1F000F
1F000F
1F000F
1F000F
1F000F
1F000F
0F800F
0FC00F
07F00F
03FFFF
01FFFF
007FFF
007FFF
00F80F
00F80F
01F00F
03E00F
03E00F
07C00F
0FC00F
0F800F
1F000F
1F000F
3E000F
7C000F
7C000F
F8000F
ENDCHAR
STARTCHAR uni0430
ENCODING -1
SWIDTH 600 0
DWIDTH 29 0
BBX 21 26 3 0
BITMAP
01FE00
0FFFC0
3FFFE0
3FFFF0
1C01F0
0000F8
0000F8
000078
000078
000078
00FFF8
07FFF8
1FFFF8
3FC078
7C0078
F80078
F80078
F000F8
F000F8
F000F8
F801F8
7C03F8
7F3F78
3FFE78
1FFC38
07F038
ENDCHAR
STARTCHAR uni0431
ENCODING -1
SWIDTH 600 0
DWIDTH 29 0
BBX 23 36 3 0
BITMAP
00001C
0003FC
007FFC
01FFFE
07FFC0
0FF000
1F8000
1F0000
3E0000
3C0000
7C0000
780000
783F80
79FFE0
FBFFF0
FFFFF8
FF80F8
FE007C
FC003C
F8003E
F0003E
F0003E
F0001E
F8001E
F8001E
F8003E
78003E
78003E
7C003C
3C007C
3E0078
1F00F8
1FFFF0
0FFFE0
03FFC0
00FE00
ENDCHAR
STARTCHAR uni0432
ENCODING -1
SWIDTH 600 0
DWIDTH 29 0
BBX 22 26 4 0
BITMAP
FFFF00
FFFFC0
FFFFF0
FFFFF0
F000F8
F000F8
F00078
F00078
F00078
F000F0
F001F0
FFFFE0
FFFF00
FFFFE0
FFFFF0
F000F8
F0007C
F0003C
F0003C
F0003C
F0007C
F000F8
FFFFF8
FFFFF0
FFFFE0
FFFF00
ENDCHAR
STARTCHAR uni0433
ENCODING -1
SWIDTH 600 0
DWIDTH 29 0
BBX 18 26 7 0
BITMAP
FFFFC0
FFFFC0
FFFFC0
FFFFC0
F00000
F00000
F00000
F00000
F00000
F00000
F00000
F00000
F00000
F00000
F00000
F00000
F00000
F00000
F00000
F00000
F00000
F00000
F00000
F00000
F00000
F00000
ENDCHAR
STARTCHAR uni0434
ENCODING -1
SWIDTH 600 0
DWIDTH 29 0
BBX 26 35 1 -9
BITMAP
00FFFC00
00FFFC00
00FFFC00
00F03C00
00F03C00
00F03C00
00E03C00
01E03C00
01E03C00
01E03C00
01E03C00
01E03C00
03C03C00
03C03C00
03C03C00
07C03C00
07803C00
07803C00
0F003C00
0F003C00
1F003C00
1E003C00
FFFFFFC0
FFFFFFC0
FFFFFFC0
FFFFFFC0
F00003C0
F00003C0
F00003C0
F00003C0
F00003C0
F00003C0
F00003C0
F00003C0
F00003C0
ENDCHAR
STARTCHAR uni0435
ENCODING -1
SWIDTH 600 0
DWIDTH 29 0
BBX 23 26 3 0
BITMAP
00FF00
03FFC0
0FFFE0
1FFFF0
3F00F8
3C007C
7C003C
78003E
78003E
F8001E
FFFFFE
FFFFFE
FFFFFE
FFFFFE
F00000
F80000
F80000
780000
780000
7C0000
3E0000
3F801C
1FFFFC
07FFFC
03FFF8
007FC0
ENDCHAR
STARTCHAR uni0436
ENCODING -1
SWIDTH 600 0
DWIDTH 29 0
BBX 29 26 0 0
BITMAP
F0078078
780780F0
3C0781F0
3E0781E0
1E0783C0
0F0783C0
07878780
07878F00
03C78F00
01E79E00
00F79E00
00F7BC00
007FF800
00FFBC00
00F7BC00
01E79E00
03E79F00
03C78F00
07878F80
0F878780
0F0783C0
1E0783E0
3E0781E0
7C0781F0
780780F0
F80780F8
ENDCHAR
STARTCHAR uni0437
ENCODING -1
SWIDTH 600 0
DWIDTH 29 0
BBX 19 26 5 0
BITMAP
0FF800
7FFE00
FFFF00
7FFF80
600FC0
0007C0
0003C0
0003C0
0003C0
000780
001F80
0FFF00
0FFC00
0FFF00
0FFF80
0007C0
0003E0
0001E0
0001E0
0001E0
0003E0
E007C0
FFFFC0
FFFF80
FFFF00
1FF800
ENDCHAR
STARTCHAR uni0438
ENCODING -1
SWIDTH 600 0
DWIDTH 29 0
BBX 21 26 4 0
BITMAP
F001F8
F001F8
F003F8
F003F8
F007F8
F00F78
F00F78
F01E78
F01E78
F03C78
F03C78
F07878
F07878
F0F078
F0F078
F1E078
F1E078
F3C078
F3C078
F78078
F78078
FF0078
FE0078
FE0078
FC0078
FC0078
ENDCHAR
STARTCHAR uni0439
ENCODING -1
SWIDTH 600 0
DWIDTH 29 0
BBX 21 37 4 0
BITMAP
1E0078
1E0078
1E00F8
0F00F0
0F83F0
07FFE0
03FFC0
00FF00
000000
000000
000000
F001F8
F001F8
F003F8
F003F8
F007F8
F00F78
F00F78
F01E78
F01E78
F03C78
F03C78
F07878
F07878
F0F078
F0F078
F1E078
F1E078
F3C078
F3C078
F78078
F78078
FF0078
FE0078
FE0078
FC0078
FC0078
ENDCHAR
STARTCHAR uni043A
ENCODING -1
SWIDTH 600 0
DWIDTH 29 0
BBX 23 26 5 0
BITMAP
F000F8
F001F0
F003E0
F007C0
F00F80
F01F00
F03E00
F07C00
F0F800
F1F000
F3E000
F7C000
FF8000
F7C000
F3E000
F1F000
F0F800
F07C00
F03E00
F01F00
F00F80
F007C0
F003E0
F001F0
F000F8
F0007E
ENDCHAR
STARTCHAR uni043B
ENCODING -1
SWIDTH 600 0
DWIDTH 29 0
BBX 24 26 1 0
BITMAP
00FFFF
00FFFF
00FFFF
00FFFF
00F00F
00E00F
01E00F
01E00F
01E00F
01E00F
01E00F
01E00F
01E00F
03C00F
03C00F
03C00F
03C00F
07C00F
07800F
07800F
0F800F
0F000F
1F000F
FE000F
FC000F
F8000F
ENDCHAR
STARTCHAR uni043C
ENCODING -1
SWIDTH 600 0
DWIDTH 29 0
BBX 23 26 3 0
BITMAP
F8003E
FC003E
FC007E
FC007E
FC007E
FE00FE
FE00FE
FE00FE
F701DE
F701DE
F701DE
F783DE
F3839E
F3839E
F3C79E
F1C71E
F1C71E
F1C71E
F0EE1E
F0EE1E
F0EE1E
F06C1E
F07C1E
F07C1E
F07C1E
F0381E
ENDCHAR
STARTCHAR uni043D
ENCODING -1
SWIDTH 600 0
DWIDTH 29 0
BBX 21 26 4 0
BITMAP
F00078
F00078
F00078
F00078
F00078
F00078
F00078
F00078
F00078
F00078
F00078
FFFFF8
FFFFF8
FFFFF8
FFFFF8
F00078
F00078
F00078
F00078
F00078
F00078
F00078
F00078
F00078
F00078
F00078
ENDCHAR
STARTCHAR uni043E
ENCODING -1
SWIDTH 600 0
DWIDTH 29 0
BBX 23 26 3 0
BITMAP
00FE00
03FF80
0FFFE0
1FFFF0
3F01F8
3C00F8
7C007C
78003C
F8003C
F8003E
F8003E
F0001E
F0001E
F0001E
F0001E
F8003E
F8003E
78003C
78003C
7C007C
3E00F8
3F01F8
1FFFF0
0FFFE0
03FF80
00FE00
ENDCHAR
STARTCHAR uni043F
ENCODING -1
SWIDTH 600 0
DWIDTH 29 0
BBX 21 26 4 0
BITMAP
FFFFF8
FFFFF8
FFFFF8
FFFFF8
F00078
F00078
F00078
F00078
F00078
F00078
F00078
F00078
F00078
F00078
F00078
F00078
F00078
F00078
F00078
F00078
F00078
F00078
F00078
F00078
F00078
F00078
ENDCHAR
STARTCHAR uni0440
ENCODING -1
SWIDTH 600 0
DWIDTH 29 0
BBX 22 38 4 -12
BITMAP
F07E00
F1FF80
F7FFC0
F7FFE0
FE01F0
FC00F8
F800F8
F80078
F8007C
F0007C
F0007C
F0003C
F0003C
F0003C
F0003C
F0007C
F8007C
F8007C
F80078
F800F8
FC00F8
FE01F0
FFFFE0
F7FFC0
F1FF80
F0FE00
F00000
F00000
F00000
F00000
F00000
F00000
F00000
F00000
F00000
F00000
F00000
F00000
ENDCHAR
STARTCHAR uni0441
ENCODING -1
SWIDTH 600 0
DWIDTH 29 0
BBX 21 26 4 0
BITMAP
007FC0
03FFF8
0FFFF8
1FFFF0
3F8030
3E0000
7C0000
7C0000
780000
F80000
F80000
F00000
F00000
F00000
F00000
F80000
F80000
F80000
7C0000
7C0000
3E0000
3F8018
1FFFF8
0FFFF8
03FFF8
007FC0
ENDCHAR
STARTCHAR uni0442
ENCODING -1
SWIDTH 600 0
DWIDTH 29 0
BBX 23 26 3 0
BITMAP
FFFFFE
FFFFFE
FFFFFE
FFFFFE
007800
007800
007800
007800
007800
007800
007800
007800
007800
007800
007800
007800
007800
007800
007800
007800
007800
007800
007800
007800
007800
007800
ENDCHAR
STARTCHAR uni0443
ENCODING -1
SWIDTH 600 0
DWIDTH 29 0
BBX 25 38 2 -12
BITMAP
F8000F80
78000F00
78000F00
7C001F00
3C001E00
3E003E00
1E003E00
1E003C00
1F007C00
0F007800
0F807800
0780F800
0780F000
07C1F000
03C1E000
03E1E000
01E3E000
01E3C000
00F3C000
00F7C000
00F78000
00778000
007F0000
003F0000
003F0000
003E0000
003E0000
003C0000
003C0000
007C0000
00780000
00F80000
00F00000
01F00000
FFE00000
FFC00000
FF800000
FE000000
ENDCHAR
STARTCHAR uni0444
ENCODING -1
SWIDTH 600 0
DWIDTH 29 0
BBX 25 48 2 -12
BITMAP
001E0000
001E0000
001E0000
001E0000
001E0000
001E0000
001E0000
001E0000
001E0000
001E0000
00FF8000
03FFF000
0FFFF800
1FFFFC00
3F1E3E00
3C1E1E00
781E0F00
781E0F00
F01E0780
F01E0780
F01E0780
F01E0780
F01E0780
F01E0780
F01E0780
F01E0780
F01E0780
F01E0780
781E0F00
781E0F00
3C1E1F00
3F1E3E00
1FFFFC00
0FFFF800
03FFF000
00FF8000
001E0000
001E0000
001E0000
001E0000
001E0000
001E0000
001E0000
001E0000
001E0000
001E0000
001E0000
001E0000
ENDCHAR
STARTCHAR uni0445
ENCODING -1
SWIDTH 600 0
DWIDTH 29 0
BBX 25 26 2 0
BITMAP
7C001F00
3C001E00
3E003E00
1F007C00
0F80F800
0780F000
07C1F000
03E3E000
01F7C000
00F78000
00FF8000
007F0000
003E0000
007F0000
007F0000
00FF8000
01F7C000
03E3E000
03C1E000
07C1F000
0F80F800
1F007C00
1E003C00
3E003E00
7C001F00
F8000F80
ENDCHAR
STARTCHAR uni0446
ENCODING -1
SWIDTH 600 0
DWIDTH 29 0
BBX 24 35 4 -9
BITMAP
F000F0
F000F0
F000F0
F000F0
F000F0
F000F0
F000F0
F000F0
F000F0
F000F0
F000F0
F000F0
F000F0
F000F0
F000F0
F000F0
F000F0
F000F0
F000F0
F000F0
F000F0
F000F0
FFFFFF
FFFFFF
FFFFFF
FFFFFF
00000F
00000F
00000F
00000F
00000F
00000F
00000F
00000F
00000F
ENDCHAR
STARTCHAR uni0447
ENCODING -1
SWIDTH 600 0
DWIDTH 29 0
BBX 21 26 4 0
BITMAP
F00078
F00078
F00078
F00078
F00078
F00078
F00078
F00078
F00078
F00078
F00078
F800F8
FC03F8
7FFFF8
3FFF78
1FFC78
07F078
000078
000078
000078
000078
000078
000078
000078
000078
000078
ENDCHAR
STARTCHAR uni0448
ENCODING -1
SWIDTH 600 0
DWIDTH 29 0
BBX 23 26 3 0
BITMAP
F03C1E
F03C1E
F03C1E
F03C1E
F03C1E
F03C1E
F03C1E
F03C1E
F03C1E
F03C1E
F03C1E
F03C1E
F03C1E
F03C1E
F03C1E
F03C1E
F03C1E
F03C1E
F03C1E
F03C1E
F03C1E
F03C1E
FFFFFE
FFFFFE
FFFFFE
FFFFFE
ENDCHAR
STARTCHAR uni0449
ENCODING -1
SWIDTH 600 0
DWIDTH 29 0
BBX 26 35 3 -9
BITMAP
F03C1E00
F03C1E00
F03C1E00
F03C1E00
F03C1E00
F03C1E00
F03C1E00
F03C1E00
F03C1E00
F03C1E00
F03C1E00
F03C1E00
F03C1E00
F03C1E00
F03C1E00
F03C1E00
F03C1E00
F03C1E00
F03C1E00
F03C1E00
F03C1E00
F03C1E00
FFFFFFC0
FFFFFFC0
FFFFFFC0
FFFFFFC0
000003C0
000003C0
000003C0
000003C0
000003C0
000003C0
000003C0
000003C0
000003C0
ENDCHAR
STARTCHAR uni044A
ENCODING -1
SWIDTH 600 0
DWIDTH 29 0
BBX 26 26 1 0
BITMAP
FFF80000
FFF80000
FFF80000
FFF80000
00780000
00780000
00780000
00780000
00780000
00780000
00780000
007FF800
007FFE00
007FFF00
007FFF80
007807C0
007803C0
007803C0
007803C0
007803C0
007803C0
00780780
007FFF80
007FFF00
007FFE00
007FF800
ENDCHAR
STARTCHAR uni044B
ENCODING -1
SWIDTH 600 0
DWIDTH 29 0
BBX 23 26 3 0
BITMAP
F0001E
F0001E
F0001E
F0001E
F0001E
F0001E
F0001E
F0001E
F0001E
F0001E
F0001E
FFE01E
FFF81E
FFFC1E
FFFE1E
F01F1E
F00F1E
F00F1E
F00F1E
F00F1E
F00F1E
F01E1E
FFFE1E
FFFC1E
FFF81E
FFE01E
ENDCHAR
STARTCHAR uni044C
ENCODING -1
SWIDTH 600 0
DWIDTH 29 0
BBX 21 26 5 0
BITMAP
F00000
F00000
F00000
F00000
F00000
F00000
F00000
F00000
F00000
F00000
F00000
FFFF00
FFFFC0
FFFFE0
FFFFF0
F001F8
F000F8
F00078
F00078
F00078
F000F8
F001F0
FFFFF0
FFFFE0
FFFFC0
FFFE00
ENDCHAR
STARTCHAR uni044D
ENCODING -1
SWIDTH 600 0
DWIDTH 29 0
BBX 21 26 4 0
BITMAP
1FF000
FFFE00
FFFF80
7FFFC0
600FE0
0003E0
0001F0
0000F0
0000F0
0000F8
0000F8
0FFFF8
0FFFF8
0FFFF8
0FFFF8
000078
0000F8
0000F0
0000F0
0001F0
0003E0
C00FE0
FFFFC0
FFFF80
FFFE00
1FF000
ENDCHAR
STARTCHAR uni044E
ENCODING -1
SWIDTH 600 0
DWIDTH 29 0
BBX 24 26 3 0
BITMAP
F007C0
F01FF0
F03FF8
F07FFC
F0F83C
F0F01E
F0F01E
F1E00E
F1E00F
F1E00F
F1E00F
FFE00F
FFE00F
FFE00F
FFE00F
F1E00F
F1E00F
F1E00F
F1E00E
F0E01E
F0F01E
F0F83E
F07FFC
F03FF8
F01FF0
F00FC0
ENDCHAR
STARTCHAR uni044F
ENCODING -1
SWIDTH 600 0
DWIDTH 29 0
BBX 21 26 3 0
BITMAP
03FFF8
0FFFF8
1FFFF8
3FFFF8
3E0078
7C0078
780078
780078
780078
7C0078
7C0078
3F0078
1FFFF8
0FFFF8
07FFF8
03FFF8
07C078
078078
0F8078
0F0078
1E0078
3E0078
3C0078
7C0078
780078
F80078
ENDCHAR
STARTCHAR uni0451
ENCODING -1
SWIDTH 600 0
DWIDTH 29 0
BBX 23 35 3 0
BITMAP
01C1C0
03C1E0
03E3E0
03C1E0
01C1C0
000000
000000
000000
000000
00FF00
03FFC0
0FFFE0
1FFFF0
3F00F8
3C007C
7C003C
78003E
78003E
F8001E
FFFFFE
FFFFFE
FFFFFE
FFFFFE
F00000
F80000
F80000
780000
780000
7C0000
3E0000
3F801C
1FFFFC
07FFFC
03FFF8
007FC0
ENDCHAR
STARTCHAR uni0452
ENCODING -1
SWIDTH 600 0
DWIDTH 29 0
BBX 25 48 0 -12
BITMAP
0F000000
0F000000
0F000000
0F000000
FFFF8000
FFFF8000
FFFF8000
0F000000
0F000000
0F000000
0F000000
0F07F000
0F1FFC00
0F7FFE00
0F7FFF00
0FE01F00
0FC00F00
0F800F80
0F800780
0F800780
0F000780
0F000780
0F000780
0F000780
0F000780
0F000780
0F000780
0F000780
0F000780
0F000780
0F000780
0F000780
0F000780
0F000780
0F000780
0F000780
00000780
00000780
00000780
00000780
00000780
00000780
00000F80
00001F80
0001FF00
0001FF00
0001FE00
0001F800
ENDCHAR
STARTCHAR uni0453
ENCODING -1
SWIDTH 600 0
DWIDTH 29 0
BBX 18 37 7 0
BITMAP
003E00
007C00
007C00
00F800
00F000
01E000
01C000
038000
000000
000000
000000
FFFFC0
FFFFC0
FFFFC0
FFFFC0
F00000
F00000
F00000
F00000
F00000
F00000
F00000
F00000
F00000
F00000
F00000
F00000
F00000
F00000
F00000
F00000
F00000
F00000
F00000
F00000
F00000
F00000
ENDCHAR
STARTCHAR uni0454
ENCODING -1
SWIDTH 600 0
DWIDTH 29 0
BBX 21 26 4 0
BITMAP
007FC0
03FFF8
07FFF8
1FFFF8
3F8030
3E0000
7C0000
780000
780000
F80000
F80000
FFFFC0
FFFFC0
FFFFC0
FFFFC0
F00000
F80000
F80000
780000
7C0000
3E0000
3F8018
1FFFF8
0FFFF8
03FFF8
007FC0
ENDCHAR
STARTCHAR uni0455
ENCODING -1
SWIDTH 600 0
DWIDTH 29 0
BBX 19 26 5 0
BITMAP
03FE00
1FFFC0
3FFFE0
7FFFC0
F801C0
F00000
F00000
F00000
F80000
7E0000
7F8000
3FF000
0FFC00
03FF00
007F80
000FC0
0007E0
0003E0
0001E0
0001E0
0003E0
E007C0
FFFFC0
FFFF80
FFFF00
1FF800
ENDCHAR
STARTCHAR uni0456
ENCODING -1
SWIDTH 600 0
DWIDTH 29 0
BBX 21 36 5 0
BITMAP
00F000
00F800
00F800
00F000
00F000
000000
000000
000000
000000
000000
3FF000
3FF000
3FF000
00F000
00F000
00F000
00F000
00F000
00F000
00F000
00F000
00F000
00F000
00F000
00F000
00F000
00F000
00F000
00F000
00F000
00F000
00F000
00F000
FFFFF8
FFFFF8
FFFFF8
ENDCHAR
STARTCHAR uni0457
ENCODING -1
SWIDTH 600 0
DWIDTH 29 0
BBX 21 35 5 0
BITMAP
0E0E00
1E0F00
1F1F00
1E0F00
0E0E00
000000
000000
000000
000000
3FF000
3FF000
3FF000
00F000
00F000
00F000
00F000
00F000
00F000
00F000
00F000
00F000
00F000
00F000
00F000
00F000
00F000
00F000
00F000
00F000
00F000
00F000
00F000
FFFFF8
FFFFF8
FFFFF8
ENDCHAR
STARTCHAR uni0458
ENCODING -1
SWIDTH 600 0
DWIDTH 29 0
BBX 17 48 3 -12
BITMAP
000700
000F80
000F80
000F80
000700
000000
000000
000000
000000
000000
1FFF80
1FFF80
1FFF80
000780
000780
000780
000780
000780
000780
000780
000780
000780
000780
000780
000780
000780
000780
000780
000780
000780
000780
000780
000780
000780
000780
000780
000780
000780
000780
000780
000780
000F80
000F00
001F00
FFFE00
FFFE00
FFF800
7FE000
ENDCHAR
STARTCHAR uni0459
ENCODING -1
SWIDTH 600 0
DWIDTH 29 0
BBX 28 26 0 0
BITMAP
07FF8000
07FF8000
07FF8000
07FF8000
07078000
07078000
0F078000
0F078000
0F078000
0F078000
0F078000
0F07FE00
0F07FF80
0F07FFC0
0F07FFE0
0E0781F0
0E0780F0
0E0780F0
1E0780F0
1E0780F0
1E0780F0
1E0781E0
3C07FFE0
FC07FFC0
FC07FF80
F007FC00
ENDCHAR
STARTCHAR uni045A
ENCODING -1
SWIDTH 600 0
DWIDTH 29 0
BBX 26 26 2 0
BITMAP
F01E0000
F01E0000
F01E0000
F01E0000
F01E0000
F01E0000
F01E0000
F01E0000
F01E0000
F01E0000
F01E0000
FFFFF800
FFFFFE00
FFFFFF00
FFFE7F80
F01E07C0
F01E03C0
F01E03C0
F01E03C0
F01E03C0
F01E03C0
F01E0780
F01FFF80
F01FFF00
F01FFE00
F01FF000
ENDCHAR
STARTCHAR uni045B
ENCODING -1
SWIDTH 600 0
DWIDTH 29 0
BBX 25 36 0 0
BITMAP
0F000000
0F000000
0F000000
0F000000
FFFFC000
FFFFC000
FFFFC000
0F000000
0F000000
0F000000
0F000000
0F07F000
0F1FFC00
0F7FFE00
0F7FFF00
0FE01F00
0FC00F80
0F800F80
0F800780
0F800780
0F000780
0F000780
0F000780
0F000780
0F000780
0F000780
0F000780
0F000780
0F000780
0F000780
0F000780
0F000780
0F000780
0F000780
0F000780
0F000780
ENDCHAR
STARTCHAR uni045C
ENCODING -1
SWIDTH 600 0
DWIDTH 29 0
BBX 22 37 5 0
BITMAP
001F00
003E00
003E00
007C00
007800
00F000
00E000
01C000
000000
000000
000000
F000F8
F001F0
F003E0
F007C0
F00F80
F01F00
F03E00
F07C00
F0F800
F1F000
F1E000
F3C000
F7C000
FFE000
FFF000
FCF800
F87C00
F07E00
F03E00
F01F00
F00F80
F007C0
F003E0
F001F0
F000F8
F0007C
ENDCHAR
STARTCHAR uni045E
ENCODING -1
SWIDTH 600 0
DWIDTH 29 0
BBX 25 49 2 -12
BITMAP
0F003C00
0F003C00
0F007C00
07807800
07C1F800
03FFF000
01FFE000
007F8000
00000000
00000000
00000000
F8000F80
78000F00
78000F00
7C001F00
3C001E00
3E003E00
1E003E00
1E003C00
1F007C00
0F007800
0F807800
0780F800
0780F000
07C1F000
03C1E000
03E1E000
01E3E000
01E3C000
00F3C000
00F7C000
00F78000
00778000
007F0000
003F0000
003F0000
003E0000
003E0000
003C0000
003C0000
007C0000
00780000
00F80000
00F00000
01F00000
FFE00000
FFC00000
FF800000
FE000000
ENDCHAR
STARTCHAR uni045F
ENCODING -1
SWIDTH 600 0
DWIDTH 29 0
BBX 21 35 4 -9
BITMAP
F00078
F00078
F00078
F00078
F00078
F00078
F00078
F00078
F00078
F00078
F00078
F00078
F00078
F00078
F00078
F00078
F00078
F00078
F00078
F00078
F00078
F00078
FFFFF8
FFFFF8
FFFFF8
FFFFF8
007800
007800
007800
007800
007800
007800
007800
007800
007800
ENDCHAR
STARTCHAR uni0490
ENCODING -1
SWIDTH 600 0
DWIDTH 29 0
BBX 19 41 6 0
BITMAP
0001E0
0001E0
0001E0
0001E0
0001E0
0001E0
0001E0
FFFFE0
FFFFE0
FFFFE0
FFFFE0
F00000
F00000
F00000
F00000
F00000
F00000
F00000
F00000
F00000
F00000
F00000
F00000
F00000
F00000
F00000
F00000
F00000
F00000
F00000
F00000
F00000
F00000
F00000
F00000
F00000
F00000
F00000
F00000
F00000
F00000
ENDCHAR
STARTCHAR uni0491
ENCODING -1
SWIDTH 600 0
DWIDTH 29 0
BBX 17 33 7 0
BITMAP
000780
000780
000780
000780
000780
000780
000780
FFFF80
FFFF80
FFFF80
F00000
F00000
F00000
F00000
F00000
F00000
F00000
F00000
F00000
F00000
F00000
F00000
F00000
F00000
F00000
F00000
F00000
F00000
F00000
F00000
F00000
F00000
F00000
ENDCHAR
STARTCHAR Wgrave
ENCODING -1
SWIDTH 600 0
DWIDTH 29 0
BBX 29 45 0 0
BITMAP
00F80000
007C0000
007C0000
003E0000
001E0000
000F0000
00070000
00038000
00000000
00000000
00000000
F0000078
F0000078
F0000078
F0000078
78000070
780000F0
780000F0
780000F0
780000F0
780000F0
780000F0
3C0F80F0
3C0F80E0
3C0F80E0
3C1DC0E0
3C1DC1E0
3C1DC1E0
1C1DE1E0
1C3DE1E0
1E38E1E0
1E38E1C0
1E78F1C0
1E7871C0
1E7071C0
0E707BC0
0EF03BC0
0EE03BC0
0EE03BC0
0EE01F80
0EE01F80
0FC01F80
07C00F80
07C00F80
07800F80
ENDCHAR
STARTCHAR wgrave
ENCODING -1
SWIDTH 600 0
DWIDTH 29 0
BBX 29 37 0 0
BITMAP
00F80000
007C0000
007C0000
003E0000
001E0000
000F0000
00070000
00038000
00000000
00000000
00000000
F00F8078
F00F8078
700F8070
701FC070
781DC0F0
781DC0F0
781DC0F0
381DC0E0
383DE0E0
3C38E0E0
3C38E1E0
3C38E1E0
1C78F1C0
1C78F1C0
1C7071C0
1E7073C0
1E7073C0
0EF07B80
0EE03B80
0EE03B80
0EE03B80
0EE03B80
07E03F00
07C01F00
07C01F00
07C01F00
ENDCHAR
STARTCHAR Wacute
ENCODING -1
SWIDTH 600 0
DWIDTH 29 0
BBX 29 45 0 0
BITMAP
0000F800
0001F000
0001F000
0003E000
0003C000
00078000
00070000
000E0000
00000000
00000000
00000000
F0000078
F0000078
F0000078
F0000078
78000070
780000F0
780000F0
780000F0
780000F0
780000F0
780000F0
3C0F80F0
3C0F80E0
3C0F80E0
3C1DC0E0
3C1DC1E0
3C1DC1E0
1C1DE1E0
1C3DE1E0
1E38E1E0
1E38E1C0
1E78F1C0
1E7871C0
1E7071C0
0E707BC0
0EF03BC0
0EE03BC0
0EE03BC0
0EE01F80
0EE01F80
0FC01F80
07C00F80
07C00F80
07800F80
ENDCHAR
STARTCHAR wacute
ENCODING -1
SWIDTH 600 0
DWIDTH 29 0
BBX 29 37 0 0
BITMAP
00007C00
0000F800
0000F800
0001F000
0001E000
0003C000
00038000
00070000
00000000
00000000
00000000
F00F8078
F00F8078
700F8070
701FC070
781DC0F0
781DC0F0
781DC0F0
381DC0E0
383DE0E0
3C38E0E0
3C38E1E0
3C38E1E0
1C78F1C0
1C78F1C0
1C7071C0
1E7073C0
1E7073C0
0EF07B80
0EE03B80
0EE03B80
0EE03B80
0EE03B80
07E03F00
07C01F00
07C01F00
07C01F00
ENDCHAR
STARTCHAR Wdieresis
ENCODING -1
SWIDTH 600 0
DWIDTH 29 0
BBX 29 43 0 0
BITMAP
00707000
00F07800
00F8F800
00F07800
00707000
00000000
00000000
00000000
00000000
F0000078
F0000078
F0000078
F0000078
78000070
780000F0
780000F0
780000F0
780000F0
780000F0
780000F0
3C0F80F0
3C0F80E0
3C0F80E0
3C1DC0E0
3C1DC1E0
3C1DC1E0
1C1DE1E0
1C3DE1E0
1E38E1E0
1E38E1C0
1E78F1C0
1E7871C0
1E7071C0
0E707BC0
0EF03BC0
0EE03BC0
0EE03BC0
0EE01F80
0EE01F80
0FC01F80
07C00F80
07C00F80
07800F80
ENDCHAR
STARTCHAR wdieresis
ENCODING -1
SWIDTH 600 0
DWIDTH 29 0
BBX 29 35 0 0
BITMAP
00707000
00F07800
00F8F800
00F07800
00707000
00000000
00000000
00000000
00000000
F00F8078
F00F8078
700F8070
701FC070
781DC0F0
781DC0F0
781DC0F0
381DC0E0
383DE0E0
3C38E0E0
3C38E1E0
3C38E1E0
1C78F1C0
1C78F1C0
1C7071C0
1E7073C0
1E7073C0
0EF07B80
0EE03B80
0EE03B80
0EE03B80
0EE03B80
07E03F00
07C01F00
07C01F00
07C01F00
ENDCHAR
STARTCHAR Ygrave
ENCODING -1
SWIDTH 600 0
DWIDTH 29 0
BBX 27 45 1 0
BITMAP
01F00000
00F80000
00F80000
007C0000
003C0000
001E0000
000E0000
00070000
00000000
00000000
00000000
F80003E0
780007C0
7C0007C0
3C000F80
3E000F80
1E001F00
1F001E00
0F003E00
0F803C00
07807C00
07C07800
03C0F800
01E0F000
01E1F000
00F1E000
00F3C000
007BC000
007F8000
003F8000
003F0000
001F0000
001E0000
001E0000
001E0000
001E0000
001E0000
001E0000
001E0000
001E0000
001E0000
001E0000
001E0000
001E0000
001E0000
ENDCHAR
STARTCHAR ygrave
ENCODING -1
SWIDTH 600 0
DWIDTH 29 0
BBX 25 49 2 -12
BITMAP
03E00000
01F00000
01F00000
00F80000
00780000
003C0000
001C0000
000E0000
00000000
00000000
00000000
F8000F80
78000F00
78000F00
7C001F00
3C001E00
3E003E00
1E003E00
1E003C00
1F007C00
0F007800
0F807800
0780F800
0780F000
07C1F000
03C1E000
03E1E000
01E3E000
01E3C000
00F3C000
00F7C000
00F78000
00778000
007F0000
003F0000
003F0000
003E0000
003E0000
003C0000
003C0000
007C0000
00780000
00F80000
00F00000
01F00000
FFE00000
FFC00000
FF800000
FE000000
ENDCHAR
STARTCHAR endash
ENCODING -1
SWIDTH 600 0
DWIDTH 29 0
BBX 21 4 4 11
BITMAP
FFFFF8
FFFFF8
FFFFF8
FFFFF8
ENDCHAR
STARTCHAR emdash
ENCODING -1
SWIDTH 600 0
DWIDTH 29 0
BBX 29 4 0 11
BITMAP
FFFFFFF8
FFFFFFF8
FFFFFFF8
FFFFFFF8
ENDCHAR
STARTCHAR uni2015
ENCODING -1
SWIDTH 600 0
DWIDTH 29 0
BBX 29 4 0 11
BITMAP
FFFFFFF8
FFFFFFF8
FFFFFFF8
FFFFFFF8
ENDCHAR
STARTCHAR underscoredbl
ENCODING -1
SWIDTH 600 0
DWIDTH 29 0
BBX 29 10 0 -11
BITMAP
FFFFFFF8
FFFFFFF8
FFFFFFF8
00000000
00000000
00000000
00000000
FFFFFFF8
FFFFFFF8
FFFFFFF8
ENDCHAR
STARTCHAR quoteleft
ENCODING -1
SWIDTH 600 0
DWIDTH 29 0
BBX 8 12 11 22
BITMAP
0F
0F
1E
1E
3E
3E
3E
7C
7C
7C
FC
FC
ENDCHAR
STARTCHAR quoteright
ENCODING -1
SWIDTH 600 0
DWIDTH 29 0
BBX 8 12 11 22
BITMAP
3F
3F
3E
3E
3E
7C
7C
7C
78
78
F0
F0
ENDCHAR
STARTCHAR quotesinglbase
ENCODING -1
SWIDTH 600 0
DWIDTH 29 0
BBX 8 13 11 -7
BITMAP
3F
3F
3E
3E
3E
3E
7C
7C
78
78
78
F0
F0
ENDCHAR
STARTCHAR quotereversed
ENCODING -1
SWIDTH 600 0
DWIDTH 29 0
BBX 8 12 11 22
BITMAP
FC
FC
7C
7C
7C
3E
3E
3E
1E
1E
0F
0F
ENDCHAR
STARTCHAR quotedblleft
ENCODING -1
SWIDTH 600 0
DWIDTH 29 0
BBX 18 12 6 22
BITMAP
0F03C0
0F03C0
1E0780
1E0780
3E0F80
3E0F80
3E0F80
7C1F00
7C1F00
7C1F00
FC3F00
FC3F00
ENDCHAR
STARTCHAR quotedblright
ENCODING -1
SWIDTH 600 0
DWIDTH 29 0
BBX 18 12 6 22
BITMAP
3F0FC0
3F0FC0
3E0F80
3E0F80
3E0F80
7C1F00
7C1F00
7C1F00
781E00
781E00
F03C00
F03C00
ENDCHAR
STARTCHAR quotedblbase
ENCODING -1
SWIDTH 600 0
DWIDTH 29 0
BBX 18 13 6 -7
BITMAP
3F0FC0
3F0FC0
3E0F80
3E0F80
3E0F80
3E0F00
7C1F00
7C1F00
781E00
781E00
781E00
F03C00
F03C00
ENDCHAR
STARTCHAR dagger
ENCODING -1
SWIDTH 600 0
DWIDTH 29 0
BBX 18 36 6 0
BITMAP
03E000
03E000
03E000
03E000
01E000
01C000
01C000
01C000
01C000
F9CFC0
FFFFC0
FFFFC0
FFFFC0
01C000
01C000
01C000
01C000
01C000
01C000
01C000
01C000
01C000
01C000
01C000
01C000
01E000
01E000
03E000
03E000
03E000
03E000
03E000
03E000
03E000
03E000
03E000
ENDCHAR
STARTCHAR daggerdbl
ENCODING -1
SWIDTH 600 0
DWIDTH 29 0
BBX 18 36 6 0
BITMAP
03E000
03E000
03E000
01E000
01C000
01C000
01C000
01C000
F9CFC0
FFFFC0
FFFFC0
FFFFC0
01C000
01C000
01C000
01E000
03E000
03E000
03E000
03E000
01C000
01C000
01C000
01C000
FFFFC0
FFFFC0
FFFFC0
F9CFC0
01C000
01C000
01C000
01C000
01E000
03E000
03E000
03E000
ENDCHAR
STARTCHAR bullet
ENCODING -1
SWIDTH 600 0
DWIDTH 29 0
BBX 11 12 9 11
BITMAP
1F00
7FC0
7FC0
FFE0
FFE0
FFE0
FFE0
FFE0
FFE0
7FC0
7F80
1F00
ENDCHAR
STARTCHAR ellipsis
ENCODING -1
SWIDTH 600 0
DWIDTH 29 0
BBX 26 6 1 -1
BITMAP
781E0780
FC3F0FC0
FC3F0FC0
FC3F0FC0
FC3F0FC0
781E0780
ENDCHAR
STARTCHAR perthousand
ENCODING -1
SWIDTH 600 0
DWIDTH 29 0
BBX 28 34 0 0
BITMAP
1F000000
3F800000
7FC00000
71C00000
F1E00000
F1E00000
F1E00000
F1E00000
F1E00000
F1E00000
F1E00000
71C00000
7FC10000
3F8F8000
1F3F8000
00FC0000
07F00000
1F800000
FE000000
F8F80F80
41FC1FC0
03FE3FE0
038E38E0
078F78F0
078F78F0
078F78F0
078F78F0
078F78F0
078F78F0
078F78F0
038E38E0
03FE3FE0
01FC1FC0
00F80F80
ENDCHAR
STARTCHAR minute
ENCODING -1
SWIDTH 600 0
DWIDTH 29 0
BBX 6 13 12 21
BITMAP
FC
F8
F8
F8
F8
F8
F8
78
78
78
78
78
78
ENDCHAR
STARTCHAR second
ENCODING -1
SWIDTH 600 0
DWIDTH 29 0
BBX 16 13 7 21
BITMAP
FC3F
F83E
F83E
F83E
F83E
F83E
F83E
781E
781E
781E
781E
781E
781E
ENDCHAR
STARTCHAR guilsinglleft
ENCODING -1
SWIDTH 600 0
DWIDTH 29 0
BBX 10 19 10 3
BITMAP
0100
03C0
0780
0F80
0F00
1E00
3E00
7C00
7800
F000
7800
7C00
3E00
1E00
0F00
0780
0780
03C0
0100
ENDCHAR
STARTCHAR guilsinglright
ENCODING -1
SWIDTH 600 0
DWIDTH 29 0
BBX 10 19 10 3
BITMAP
2000
F000
7800
7800
3C00
1E00
1F00
0F80
0780
03C0
0780
0F80
1F00
1E00
3C00
7C00
7800
F000
2000
ENDCHAR
STARTCHAR exclamdbl
ENCODING -1
SWIDTH 600 0
DWIDTH 29 0
BBX 16 35 6 -1
BITMAP
FC3F
FC3F
7C1F
781E
781E
781E
781E
781E
781E
781E
781E
781E
781E
781E
781E
781E
781E
781E
781E
781E
781E
781E
781E
380E
300C
0000
0000
0000
0000
781E
FC3F
FC3F
FC3F
FC3F
781E
ENDCHAR
STARTCHAR fraction
ENCODING -1
SWIDTH 600 0
DWIDTH 29 0
BBX 21 34 4 0
BITMAP
000078
000070
0000F0
0001E0
0001E0
0003C0
0003C0
000780
000780
000F00
000F00
001E00
001E00
003C00
003C00
007800
007800
00F000
00F000
01E000
01E000
03C000
03C000
078000
078000
0F0000
0F0000
1E0000
1E0000
3C0000
3C0000
780000
700000
F00000
ENDCHAR
STARTCHAR uni207F
ENCODING -1
SWIDTH 600 0
DWIDTH 29 0
BBX 14 15 7 19
BITMAP
E3E0
EFF8
EFF8
F83C
F03C
F03C
F03C
F03C
F03C
F03C
F03C
F03C
F03C
F03C
F03C
ENDCHAR
STARTCHAR franc
ENCODING -1
SWIDTH 600 0
DWIDTH 29 0
BBX 22 34 3 0
BITMAP
0FFFFC
0FFFFC
0FFFFC
0FFFFC
0F0000
0F0000
0F0000
0F0000
0F0000
0F0000
0F0000
0F0000
0F0000
0F0000
0F0000
0F0000
0FFFF8
0FFFF8
0FFFF8
0FFFF8
0F0000
0F0000
0F0000
0F0000
0F0000
FFFE00
FFFE00
FFFE00
0F0000
0F0000
0F0000
0F0000
0F0000
0F0000
ENDCHAR
STARTCHAR lira
ENCODING -1
SWIDTH 600 0
DWIDTH 29 0
BBX 23 34 3 0
BITMAP
001FC0
007FF8
01FFFC
03FFF8
03E018
07C000
07C000
07C000
078000
078000
078000
078000
078000
078000
FFFFC0
FFFFC0
FFFFC0
078000
078000
078000
FFFFC0
FFFFC0
FFFFC0
078000
078000
078000
078000
0F0000
1F0000
3E0000
FFFFFE
FFFFFE
FFFFFE
FFFFFE
ENDCHAR
STARTCHAR peseta
ENCODING -1
SWIDTH 600 0
DWIDTH 29 0
BBX 26 34 2 0
BITMAP
FF800000
FFF00000
FFFC0000
FFFE0000
F07E0000
F01F0000
F01F0000
F00F0000
F00F0000
F00F0000
F00F0000
F00F3000
F00F3000
F01F7000
F01F7000
F03E7000
F0FEFF80
FFFFFF80
FFFBFF80
FFE07000
F0007000
F0007000
F0007000
F0007000
F0007000
F0007000
F0007000
F0007000
F0007000
F0007800
F0007CC0
F0003FC0
F0003FC0
F0001F80
ENDCHAR
STARTCHAR Euro
ENCODING -1
SWIDTH 600 0
DWIDTH 29 0
BBX 24 34 3 0
BITMAP
000FF0
003FFE
00FFFF
01FFFE
03F80E
03E000
07C000
07C000
0F8000
0F8000
0F0000
1F0000
FFFFC0
FFFFC0
FFFFC0
1E0000
1E0000
1E0000
1E0000
FFFF80
FFFF80
FFFF80
1F0000
0F0000
0F8000
0F8000
07C000
07C000
03E000
03F806
01FFFE
00FFFE
003FFE
000FF0
ENDCHAR
STARTCHAR uni2105
ENCODING -1
SWIDTH 600 0
DWIDTH 29 0
BBX 29 34 0 0
BITMAP
07E00780
1FF00700
3FF00F00
78000E00
70001E00
F0001C00
F0003C00
F0007800
F0007800
F000F000
F000F000
7001E000
7801E000
3FF3C000
1FF3C000
0FE78000
00078000
000F0000
000F1F80
001E3FC0
001E7FE0
003CF0F0
003CE070
0079E078
0079E078
00F1E078
00F1E078
01E1E078
01E1E078
03C0E070
0380F0F0
07807FE0
07003FC0
0F001F80
ENDCHAR
STARTCHAR uni2113
ENCODING -1
SWIDTH 600 0
DWIDTH 29 0
BBX 19 34 5 0
BITMAP
007C00
01FE00
03FF00
03C700
078780
078380
078380
078380
078380
078380
078780
078700
078700
078E00
079C00
07BC00
07F800
07E000
1FC000
FF8000
FF8000
C78000
078000
078000
078000
078000
0780E0
0780E0
07C1E0
07C1C0
03F7C0
01FF80
01FF80
007E00
ENDCHAR
STARTCHAR uni2116
ENCODING -1
SWIDTH 600 0
DWIDTH 29 0
BBX 27 34 1 0
BITMAP
F01C0000
F01C0000
F81C0000
F81C0000
F81C0000
FC1C0000
FC1C0000
FC1C0000
FC1C0000
EE1C0000
EE1C0000
EE1C1F00
EE1C3F80
E71C7FC0
E71C71C0
E71CF1E0
E71CE0E0
E39CE0E0
E39CE0E0
E39CE0E0
E39CE0E0
E1DCE0E0
E1DCE0E0
E1DCF1E0
E1DC71C0
E0FC7FC0
E0FC3F80
E0FC1F00
E0FC0000
E07C0000
E07C0000
E07C7FC0
E03C7FC0
E03C7FC0
ENDCHAR
STARTCHAR trademark
ENCODING -1
SWIDTH 600 0
DWIDTH 29 0
BBX 28 17 0 17
BITMAP
FFEF80F0
FFEF81F0
FFEF81F0
0E0F81F0
0E0FC3F0
0E0FC3F0
0E0EC370
0E0EE370
0E0EE770
0E0E6670
0E0E6670
0E0E7E70
0E0E7C70
0E0E3C70
0E0E3C70
0E0E3C70
0E0E1870
ENDCHAR
STARTCHAR Omega
ENCODING -1
SWIDTH 600 0
DWIDTH 29 0
BBX 25 34 2 0
BITMAP
007F0000
03FFE000
07FFF000
0FFFF800
1F80FC00
3F007E00
3E003E00
7C001F00
7C001F00
78000F00
F8000F80
F8000F80
F8000F80
F8000F80
F8000F80
F8000F80
F8000F80
F8000F80
F8000F80
F8000F80
78000F80
78000F00
7C001F00
7C001F00
3C001E00
3E003E00
1E003C00
0F007C00
07807800
03C0F000
FFE1FF80
FFE1FF80
FFE1FF80
FFE1FF80
ENDCHAR
STARTCHAR estimated
ENCODING -1
SWIDTH 600 0
DWIDTH 29 0
BBX 25 26 2 0
BITMAP
007F0000
03FFE000
0780F000
0E003800
1C001C00
38000E00
78000F00
78000F00
78000F00
F8000F80
F8000F80
FFFFFF80
FFFFFF80
F8000000
F8000000
F8000000
F8000000
78000000
78000000
78000600
38000E00
1C001C00
0E003800
0780F000
03FFE000
007F0000
ENDCHAR
STARTCHAR oneeighth
ENCODING -1
SWIDTH 600 0
DWIDTH 29 0
BBX 27 34 1 0
BITMAP
07801E00
1F801C00
3F803C00
FF807800
77807800
4780F000
0780F000
0781E000
0781E000
0783C000
0783C000
07878000
07878000
078F0000
078F0000
079E3E00
079EFF80
07BCF780
07BDE3C0
0079E3C0
0079E3C0
00F1E3C0
00F0F780
01E07F00
01E07F00
03C1F7C0
03C1E3C0
0783C1E0
0783C1E0
0F03C1E0
0F03C1E0
1E01F7C0
1C00FF80
3C007F00
ENDCHAR
STARTCHAR threeeighths
ENCODING -1
SWIDTH 600 0
DWIDTH 29 0
BBX 28 34 0 0
BITMAP
1F000780
7FC00700
FFE00F00
61E01E00
01E01E00
01E03C00
01E03C00
03C07800
1F807800
1F80F000
03E0F000
00F1E000
00F1E000
00F3C000
00F3C000
80F79F00
FFE7FFC0
FFCF7BC0
3F8FF1E0
001EF1E0
001EF1E0
003CF1E0
003C7BC0
00783F80
00783F80
00F0FBE0
00F0F1E0
01E1E0F0
01E1E0F0
03C1E0F0
03C1E0F0
0780FBE0
07007FC0
0F003F80
ENDCHAR
STARTCHAR fiveeighths
ENCODING -1
SWIDTH 600 0
DWIDTH 29 0
BBX 27 34 1 0
BITMAP
7FE00F00
7FE00E00
7FE01E00
E0003C00
E0003C00
E0007800
E0007800
FF00F000
FFC0F000
67E1E000
00F1E000
00F3C000
00F3C000
00F78000
00F78000
81EF3E00
FFEFFF80
FFDEF780
7F1FE3C0
003DE3C0
003DE3C0
0079E3C0
0078F780
00F07F00
00F07F00
01E1F7C0
01E1E3C0
03C3C1E0
03C3C1E0
0783C1E0
0783C1E0
0F01F7C0
0E00FF80
1E007F00
ENDCHAR
STARTCHAR seveneighths
ENCODING -1
SWIDTH 600 0
DWIDTH 29 0
BBX 27 34 1 0
BITMAP
FFF83C00
FFF83800
FFF87800
0070F000
0070F000
00F1E000
00E1E000
01E3C000
01C3C000
03C78000
03878000
078F0000
070F0000
0F1E0000
0F1E0000
0E3C3E00
1E3CFF80
1C78F780
3C79E3C0
00F1E3C0
00F1E3C0
01E1E3C0
01E0F780
03C07F00
03C07F00
0781F7C0
0781E3C0
0F03C1E0
0F03C1E0
1E03C1E0
1E03C1E0
3C01F7C0
3800FF80
78007F00
ENDCHAR
STARTCHAR partialdiff
ENCODING -1
SWIDTH 600 0
DWIDTH 29 0
BBX 23 34 3 0
BITMAP
007F00
03FFE0
03FFF0
03FFF8
0300F8
00007C
00007C
00003C
00003E
00001E
00001E
007E1E
03FF9E
07FFDE
0FF3FE
1F80FE
3F007E
3E003E
7C003C
7C003C
78003C
F8007C
F80078
F80078
F000F8
F000F0
F001F0
F803E0
F807E0
7C0FC0
7FFF80
3FFF00
1FFC00
07F000
ENDCHAR
STARTCHAR Delta
ENCODING -1
SWIDTH 600 0
DWIDTH 29 0
BBX 25 34 2 0
BITMAP
003E0000
003E0000
003F0000
007F0000
007F0000
00778000
00F78000
00F78000
00F7C000
01E3C000
01E3C000
01E3C000
03C1E000
03C1E000
03C1E000
0780F000
0780F000
0780F000
0F807800
0F007800
0F007800
1F007C00
1E003C00
1E003C00
3E003E00
3C001E00
3C001E00
7C001F00
78000F00
78000F00
FFFFFF80
FFFFFF80
FFFFFF80
FFFFFF80
ENDCHAR
STARTCHAR product
ENCODING -1
SWIDTH 600 0
DWIDTH 29 0
BBX 22 46 4 -12
BITMAP
FFFFFC
FFFFFC
FFFFFC
FFFFFC
F0003C
F0003C
F0003C
F0003C
F0003C
F0003C
F0003C
F0003C
F0003C
F0003C
F0003C
F0003C
F0003C
F0003C
F0003C
F0003C
F0003C
F0003C
F0003C
F0003C
F0003C
F0003C
F0003C
F0003C
F0003C
F0003C
F0003C
F0003C
F0003C
F0003C
F0003C
F0003C
F0003C
F0003C
F0003C
F0003C
F0003C
F0003C
F0003C
F0003C
F0003C
F0003C
ENDCHAR
STARTCHAR summation
ENCODING -1
SWIDTH 600 0
DWIDTH 29 0
BBX 26 46 2 -12
BITMAP
FFFFFF00
FFFFFF00
FFFFFF00
7FFFFF00
3E000000
3F000000
1F000000
0F800000
0FC00000
07C00000
03E00000
01F00000
01F80000
00F80000
007C0000
007E0000
003E0000
001F0000
000F8000
000F8000
0007C000
0003E000
0003E000
0007C000
000FC000
000F8000
001F0000
003F0000
003E0000
007C0000
00FC0000
00F80000
01F00000
03F00000
03E00000
07C00000
0FC00000
0F800000
1F000000
3F000000
3E000000
7C000000
7FFFFFC0
FFFFFFC0
FFFFFFC0
FFFFFFC0
ENDCHAR
STARTCHAR minus
ENCODING -1
SWIDTH 600 0
DWIDTH 29 0
BBX 21 4 4 15
BITMAP
FFFFF8
FFFFF8
FFFFF8
FFFFF8
ENDCHAR
STARTCHAR radical
ENCODING -1
SWIDTH 600 0
DWIDTH 29 0
BBX 27 40 1 0
BITMAP
000001E0
000001E0
000001C0
000003C0
000003C0
00000380
00000780
00000780
00000700
00000F00
00000F00
00000E00
00001E00
00001E00
00001C00
00003C00
00003C00
00003800
FE007800
FE007800
FF007000
0F00F000
0F00F000
0780E000
0781E000
03C1E000
03C1C000
03C3C000
01E3C000
01E38000
01E78000
00F78000
00F70000
00F70000
007F0000
007E0000
003E0000
003E0000
003C0000
001C0000
ENDCHAR
STARTCHAR infinity
ENCODING -1
SWIDTH 600 0
DWIDTH 29 0
BBX 25 15 2 10
BITMAP
0F007800
3FC1FE00
7FE3FF00
78E7DF00
F0770780
F03E0780
E03E0380
E01C0380
E03C0380
F03E0780
F0770780
78E78F00
7FE3FF00
3FC1FE00
0F00FC00
ENDCHAR
STARTCHAR integral
ENCODING -1
SWIDTH 600 0
DWIDTH 29 0
BBX 17 48 6 -12
BITMAP
001F80
007F80
00FF80
00F880
01F000
01E000
01E000
01E000
01E000
01E000
01E000
01E000
01E000
01E000
01E000
01E000
01E000
01E000
01E000
01E000
01E000
01E000
01E000
01E000
01E000
01E000
01E000
01E000
01E000
01E000
01E000
01E000
01E000
01E000
01E000
01E000
01E000
01E000
01E000
01E000
01C000
01C000
03C000
03C000
8F8000
FF8000
FF0000
FC0000
ENDCHAR
STARTCHAR approxequal
ENCODING -1
SWIDTH 600 0
DWIDTH 29 0
BBX 21 16 4 9
BITMAP
1F8008
7FF018
FFFFF8
FFFFF8
C07FF0
800FC0
000000
000000
000000
000000
1F8008
7FF018
FFFFF8
FFFFF8
C07FF0
800FC0
ENDCHAR
STARTCHAR notequal
ENCODING -1
SWIDTH 600 0
DWIDTH 29 0
BBX 21 25 4 4
BITMAP
000380
0003C0
000780
000780
000F00
000F00
FFFFF8
FFFFF8
FFFFF8
FFFFF8
007800
007800
007000
00F000
00E000
FFFFF8
FFFFF8
FFFFF8
FFFFF8
078000
078000
0F0000
0F0000
1E0000
0E0000
ENDCHAR
STARTCHAR lessequal
ENCODING -1
SWIDTH 600 0
DWIDTH 29 0
BBX 21 29 4 0
BITMAP
000008
000038
0000F8
0003F8
000FF0
003FC0
00FF00
03FC00
0FF000
1FC000
7F0000
FC0000
FC0000
7F0000
3FC000
0FF000
03FC00
00FF00
003FC0
000FF0
0003F8
0000F8
000038
000008
000000
FFFFF8
FFFFF8
FFFFF8
FFFFF8
ENDCHAR
STARTCHAR greaterequal
ENCODING -1
SWIDTH 600 0
DWIDTH 29 0
BBX 21 29 4 0
BITMAP
800000
E00000
F80000
FE0000
7F8000
1FE000
07F800
01FE00
007F80
001FC0
0007F0
0001F8
0001F8
0007F0
001FC0
007F80
01FE00
07F800
1FE000
7F8000
FE0000
F80000
E00000
800000
000000
FFFFF8
FFFFF8
FFFFF8
FFFFF8
ENDCHAR
STARTCHAR lozenge
ENCODING -1
SWIDTH 600 0
DWIDTH 29 0
BBX 23 34 3 0
BITMAP
003800
003800
007C00
00FE00
00FE00
01EF00
01EF00
03C780
07C7C0
0783C0
0F01E0
1F01F0
1E00F0
3C0078
3C0078
78003C
F8003E
F8003E
78003C
3C0078
3C0078
1E00F0
1F01F0
0F01E0
0783C0
07C7C0
03C780
01EF00
01EF00
00FE00
00FE00
007C00
003800
003800
ENDCHAR
STARTCHAR uniFB01
ENCODING -1
SWIDTH 600 0
DWIDTH 29 0
BBX 24 36 1 0
BITMAP
007F00
01FF8F
03FF8F
03FF9F
07C00F
07C00E
078000
078000
078000
078000
1FFE0F
FFFE0F
FFFE0F
07800F
07800F
07800F
07800F
07800F
07800F
07800F
07800F
07800F
07800F
07800F
07800F
07800F
07800F
07800F
07800F
07800F
07800F
07800F
07800F
07800F
07800F
07800F
ENDCHAR
STARTCHAR uniFB02
ENCODING -1
SWIDTH 600 0
DWIDTH 29 0
BBX 24 36 1 0
BITMAP
007F0F
01FF8F
03FF8F
03FF8F
07C00F
07C00F
07800F
07800F
07800F
07800F
1FFE0F
FFFE0F
FFFE0F
07800F
07800F
07800F
07800F
07800F
07800F
07800F
07800F
07800F
07800F
07800F
07800F
07800F
07800F
07800F
07800F
07800F
07800F
07800F
07800F
07800F
07800F
07800F
ENDCHAR
STARTCHAR glyph566
ENCODING -1
SWIDTH 600 0
DWIDTH 29 0
BBX 18 8 6 29
BITMAP
F003C0
F003C0
F007C0
780780
7C1F80
3FFF00
1FFE00
07F800
ENDCHAR
STARTCHAR glyph567
ENCODING -1
SWIDTH 600 0
DWIDTH 29 0
BBX 17 38 3 -12
BITMAP
1FFF80
1FFF80
1FFF80
000780
000780
000780
000780
000780
000780
000780
000780
000780
000780
000780
000780
000780
000780
000780
000780
000780
000780
000780
000780
000780
000780
000780
000780
000780
000780
000780
000780
000F80
000F00
001F00
FFFE00
FFFE00
FFF800
7FE000
ENDCHAR
STARTCHAR glyph568
ENCODING -1
SWIDTH 600 0
DWIDTH 29 0
BBX 6 8 11 28
BITMAP
7C
7C
78
78
70
F0
E0
E0
ENDCHAR
STARTCHAR glyph569
ENCODING -1
SWIDTH 600 0
DWIDTH 29 0
BBX 6 8 12 -11
BITMAP
3C
3C
78
78
70
70
E0
E0
ENDCHAR
STARTCHAR glyph570
ENCODING -1
SWIDTH 600 0
DWIDTH 29 0
BBX 6 8 12 29
BITMAP
1C
1C
38
38
78
78
F0
F0
ENDCHAR
STARTCHAR glyph571
ENCODING -1
SWIDTH 600 0
DWIDTH 29 0
BBX 14 19 7 15
BITMAP
0078
00F8
01F8
03F8
03F8
0778
0E78
0E78
1C78
3878
7878
7078
FFFC
FFFC
FFFC
0078
0078
0078
0078
ENDCHAR
STARTCHAR glyph572
ENCODING -1
SWIDTH 600 0
DWIDTH 29 0
BBX 12 19 8 15
BITMAP
7FE0
7FE0
7FE0
E000
E000
E000
E000
FF00
FFC0
67E0
00F0
00F0
00F0
00F0
00F0
81E0
FFE0
FFC0
7F00
ENDCHAR
STARTCHAR glyph573
ENCODING -1
SWIDTH 600 0
DWIDTH 29 0
BBX 13 19 9 15
BITMAP
FFF8
FFF8
FFF8
0070
0070
00F0
00E0
01E0
01C0
03C0
0380
0780
0700
0F00
0F00
0E00
1E00
1C00
3C00
ENDCHAR
STARTCHAR glyph574
ENCODING -1
SWIDTH 600 0
DWIDTH 29 0
BBX 13 19 7 15
BITMAP
0F80
3FE0
3DE0
78F0
78F0
78F0
78F0
3DE0
1FC0
1FC0
7DF0
78F0
F078
F078
F078
F078
7DF0
3FE0
1FC0
ENDCHAR
STARTCHAR uni2000
ENCODING -1
SWIDTH 600 0
DWIDTH 29 0
BBX 1 1 0 0
BITMAP
00
ENDCHAR
STARTCHAR uni2001
ENCODING -1
SWIDTH 600 0
DWIDTH 29 0
BBX 1 1 0 0
BITMAP
00
ENDCHAR
STARTCHAR uni2002
ENCODING -1
SWIDTH 600 0
DWIDTH 29 0
BBX 1 1 0 0
BITMAP
00
ENDCHAR
STARTCHAR uni2003
ENCODING -1
SWIDTH 600 0
DWIDTH 29 0
BBX 1 1 0 0
BITMAP
00
ENDCHAR
STARTCHAR uni2004
ENCODING -1
SWIDTH 600 0
DWIDTH 29 0
BBX 1 1 0 0
BITMAP
00
ENDCHAR
STARTCHAR uni2005
ENCODING -1
SWIDTH 600 0
DWIDTH 29 0
BBX 1 1 0 0
BITMAP
00
ENDCHAR
STARTCHAR uni2006
ENCODING -1
SWIDTH 600 0
DWIDTH 29 0
BBX 1 1 0 0
BITMAP
00
ENDCHAR
STARTCHAR uni2007
ENCODING -1
SWIDTH 600 0
DWIDTH 29 0
BBX 1 1 0 0
BITMAP
00
ENDCHAR
STARTCHAR uni2008
ENCODING -1
SWIDTH 600 0
DWIDTH 29 0
BBX 1 1 0 0
BITMAP
00
ENDCHAR
STARTCHAR uni2009
ENCODING -1
SWIDTH 600 0
DWIDTH 29 0
BBX 1 1 0 0
BITMAP
00
ENDCHAR
STARTCHAR uni200A
ENCODING -1
SWIDTH 600 0
DWIDTH 29 0
BBX 1 1 0 0
BITMAP
00
ENDCHAR
STARTCHAR uni200B
ENCODING -1
SWIDTH 600 0
DWIDTH 29 0
BBX 1 1 0 0
BITMAP
00
ENDCHAR
STARTCHAR uniFEFF
ENCODING -1
SWIDTH 600 0
DWIDTH 29 0
BBX 1 1 0 0
BITMAP
00
ENDCHAR
STARTCHAR uniFFFC
ENCODING -1
SWIDTH 600 0
DWIDTH 29 0
BBX 27 45 1 -9
BITMAP
FE3F8FE0
FE3F8FE0
FE3F8FE0
E00000E0
E00000E0
E0F000E0
E3FC00E0
030C0000
070E0000
06060000
E60600E0
E60600E0
E70E00E0
E30C00E0
E3FC00E0
E0F000E0
00000000
00000000
000FC000
E00FE0E0
E00C70E0
E00C70E0
E00FE0E0
E00FE0E0
E00C70E0
000C3000
000C7000
000FE000
000FC000
E00000E0
E0007EE0
E0007EE0
E00018E0
E00018E0
E00018E0
00001800
00001800
00001800
E00018E0
E000F8E0
E000F0E0
E00000E0
FE3F8FE0
FE3F8FE0
FE3F8FE0
ENDCHAR
STARTCHAR uniFFFD
ENCODING -1
SWIDTH 600 0
DWIDTH 29 0
BBX 29 43 0 -7
BITMAP
00020000
00070000
00070000
000F8000
001FC000
001FC000
003FE000
007FF000
007FF000
00FFF800
01E07C00
01801C00
03000E00
07800700
07870700
0FBF0780
1FFF87C0
1FFF87C0
3FFF07E0
7FFE0FF0
7FFC1FF0
FFF83FF8
7FF07FF0
7FE0FFF0
3FE1FFE0
1FE1FFC0
1FE1FFC0
0FFFFF80
07FFFF00
07FFFF00
03F1FE00
01E0FC00
01E0FC00
00E0F800
0060F000
0071F000
003FE000
001FC000
001FC000
000F8000
00070000
00070000
00020000
ENDCHAR
STARTCHAR uni01F0
ENCODING -1
SWIDTH 600 0
DWIDTH 29 0
BBX 19 49 3 -12
BITMAP
1C01E0
0F03C0
0F8780
07CF00
03DE00
01FE00
01FC00
00F800
000000
000000
000000
1FFF80
1FFF80
1FFF80
000780
000780
000780
000780
000780
000780
000780
000780
000780
000780
000780
000780
000780
000780
000780
000780
000780
000780
000780
000780
000780
000780
000780
000780
000780
000780
000780
000780
000F80
000F00
001F00
FFFE00
FFFE00
FFF800
7FE000
ENDCHAR
STARTCHAR uni02BC
ENCODING -1
SWIDTH 600 0
DWIDTH 29 0
BBX 8 12 11 22
BITMAP
3F
3F
3E
3E
3E
7C
7C
7C
78
78
F0
F0
ENDCHAR
STARTCHAR theta1
ENCODING -1
SWIDTH 600 0
DWIDTH 29 0
BBX 28 36 0 0
BITMAP
003F8000
00FFE000
01FFF000
01F9F800
03E07C00
03C03C00
03C03E00
03C01E00
03C01F00
03E00F00
01E00F00
01F00F00
00FC0F80
007F0F80
003FFFF0
000FFFF0
3E01FFF0
FF000780
7F800780
4F800780
07800780
07800780
07800780
0F800F80
0F000F80
0F000F00
0F000F00
0F000F00
0F001E00
0F001E00
0F803C00
0F807C00
07F3F800
03FFF000
01FFE000
007F0000
ENDCHAR
STARTCHAR Upsilon1
ENCODING -1
SWIDTH 600 0
DWIDTH 29 0
BBX 27 34 1 0
BITMAP
F80003E0
780007E0
7C000FE0
3C000F80
3E001F00
1E003E00
1F003C00
0F007C00
0F807800
0780F800
07C0F000
03C1F000
01E1E000
01E1E000
00F3C000
00F3C000
007F8000
007F8000
003F0000
003F0000
001F0000
001E0000
001E0000
001E0000
001E0000
001E0000
001E0000
001E0000
001E0000
001E0000
001E0000
001E0000
001E0000
001E0000
ENDCHAR
STARTCHAR omega1
ENCODING -1
SWIDTH 600 0
DWIDTH 29 0
BBX 28 26 0 0
BITMAP
1FFFFFF0
7FFFFFF0
FFFFFFF0
FFFFFFF0
0F000780
1E000380
1E0003C0
1E0003C0
1C0001C0
3C0001E0
3C0001E0
3C0001E0
3C0781E0
3C0781E0
3C0781E0
3C0781E0
3C0781E0
3C0781E0
3C0781E0
3C0781E0
1C0F81C0
1E0FC3C0
1FFDFFC0
0FFCFF80
07F8FF00
03F03E00
ENDCHAR
STARTCHAR uni1E3E
ENCODING -1
SWIDTH 600 0
DWIDTH 29 0
BBX 23 45 3 0
BITMAP
0003E0
0007C0
0007C0
000F80
000F00
001E00
001C00
003800
000000
000000
000000
FC007E
FC007E
FC007E
FC00FE
FE00EE
EE00EE
EE00EE
EE00EE
EE01EE
EF01CE
E701DE
F701DE
F701DE
F703DE
F7839E
F3839E
F3839E
F3839E
F3871E
F1C71E
F1C71E
F1C71E
F1C71E
F1CE1E
F0EE1E
F0EE1E
F0EE1E
F0EE1E
F0FC1E
F07C1E
F07C1E
F07C1E
F0781E
F0381E
ENDCHAR
STARTCHAR uni1E3F
ENCODING -1
SWIDTH 600 0
DWIDTH 29 0
BBX 25 37 2 0
BITMAP
0001F000
0003E000
0003E000
0007C000
00078000
000F0000
000E0000
001C0000
00000000
00000000
00000000
E1E07C00
F3F0FE00
F7F9FF00
FFFBFF00
F87F0F80
F83E0F80
F83E0780
F83E0780
F03C0780
F03C0780
F03C0780
F03C0780
F03C0780
F03C0780
F03C0780
F03C0780
F03C0780
F03C0780
F03C0780
F03C0780
F03C0780
F03C0780
F03C0780
F03C0780
F03C0780
F03C0780
ENDCHAR
STARTCHAR uni1E00
ENCODING -1
SWIDTH 600 0
DWIDTH 29 0
BBX 27 47 1 -13
BITMAP
001F0000
001F0000
003F8000
003F8000
003F8000
007BC000
007BC000
007BC000
00FBE000
00F1E000
00F1E000
01F1F000
01E0F000
01E0F000
03E0F800
03C07800
03C07800
07C07C00
07C03C00
07803C00
0FFFFE00
0FFFFE00
0FFFFE00
1FFFFF00
1F001F00
1E000F00
3E000F80
3E000F80
3C000780
7C0007C0
7C0007C0
780003C0
F80003E0
F80003E0
00000000
00000000
00000000
001F0000
007FC000
007BC000
00E0E000
00E0E000
00E0E000
00E0E000
007BC000
007FC000
001F0000
ENDCHAR
STARTCHAR uni1E01
ENCODING -1
SWIDTH 600 0
DWIDTH 29 0
BBX 21 39 3 -13
BITMAP
01FE00
0FFFC0
3FFFE0
3FFFF0
1C01F0
0000F8
0000F8
000078
000078
000078
00FFF8
07FFF8
1FFFF8
3FC078
7C0078
F80078
F80078
F000F8
F000F8
F000F8
F801F8
7C03F8
7F3F78
3FFE78
1FFC38
07F038
000000
000000
000000
007C00
01FF00
01EF00
038380
038380
038380
038380
01EF00
01FF00
007C00
ENDCHAR
STARTCHAR uni1F4D
ENCODING -1
SWIDTH 600 0
DWIDTH 29 0
BBX 37 34 -7 0
BITMAP
087C07F000
38783FFE00
70F87FFF00
E0F0FFFF80
E0F1F80FC0
F8E3F007C0
F9C3E003E0
7987C001E0
0007C001F0
0007C001F0
00078000F0
000F8000F8
000F8000F8
000F8000F8
000F8000F8
000F8000F8
000F8000F8
000F8000F8
000F8000F8
000F8000F8
000F8000F8
000F8000F8
000F8000F8
00078000F0
0007C001F0
0007C001F0
0007C001E0
0003E003E0
0003F007C0
0001F80FC0
0000FFFF80
00007FFF00
00003FFE00
000007F000
ENDCHAR
STARTCHAR uni02F3
ENCODING -1
SWIDTH 600 0
DWIDTH 29 0
BBX 11 10 9 -13
BITMAP
1F00
7FC0
7BC0
E0E0
E0E0
E0E0
E0E0
7BC0
7FC0
1F00
ENDCHAR
STARTCHAR glyph601
ENCODING -1
SWIDTH 600 0
DWIDTH 29 0
BBX 14 8 7 26
BITMAP
087C
3878
70F8
E0F0
E0F0
F8E0
F9C0
7180
ENDCHAR
ENDFONT
